<svg width="119" height="35" viewBox="0 0 119 35" fill="none" xmlns="http://www.w3.org/2000/svg">
<path d="M45.2427 8.46963C47.7948 8.87317 50.0964 9.48787 50.0964 11.8528C50.0964 14.2177 47.5443 15.1093 45.0617 15.1093C43.4237 15.1093 41.3495 14.5274 40.5839 13.2699C40.5088 13.1274 40.4714 12.9678 40.4752 12.8064C40.479 12.6451 40.5239 12.4875 40.6055 12.3488C40.6872 12.2101 40.8028 12.095 40.9413 12.0147C41.0797 11.9344 41.2363 11.8916 41.3959 11.8903H42.9411C42.9411 13.725 44.129 14.3256 45.0803 14.3256C46.0315 14.3256 47.2937 13.725 47.2937 11.8903C47.2937 11.1067 46.2311 10.8346 44.8993 10.6328C42.3286 10.2339 40.259 9.45502 40.259 7.34817C40.259 5.1287 43.0432 4.25593 45.006 4.18555C46.4631 4.18555 48.7832 4.80024 49.5025 6.41909C49.5492 6.55897 49.5627 6.70803 49.5417 6.85416C49.5208 7.00028 49.466 7.13935 49.3819 7.26005C49.2978 7.38075 49.1868 7.47969 49.0577 7.54881C48.9287 7.61794 48.7854 7.6553 48.6394 7.65786H47.006C47.006 5.58386 45.7438 4.96447 45.0432 4.96447C44.2357 4.96447 43.0478 5.58386 43.0478 7.31063C43.0478 8.07548 44.2543 8.34763 45.2241 8.4931L45.2427 8.46963Z" fill="white"/>
<path d="M59.0615 14.8371C59.5629 14.0149 59.8011 13.0563 59.7437 12.0921V9.50663C59.7437 6.79916 59.456 4.95977 57.7298 4.95977C55.5349 4.95977 54.8528 6.79916 54.8528 9.50663V12.0921C54.8311 12.8701 54.9718 13.6439 55.2658 14.3632V14.4007C55.3491 14.5647 55.4453 14.7216 55.5535 14.87L55.5906 14.9028H51.2705L51.3448 14.8136C51.8461 13.9914 52.0843 13.0328 52.0269 12.0686V3.30808C52.0269 1.32323 51.2705 0.492688 51.2705 0.492688H52.5512C52.8536 0.490825 53.1533 0.549597 53.4331 0.665605C53.7129 0.781614 53.9671 0.952557 54.1811 1.16855C54.3952 1.38454 54.5647 1.6413 54.68 1.92397C54.7953 2.20664 54.854 2.50962 54.8528 2.81539V5.7997C55.4792 4.88939 56.217 4.18085 57.7112 4.18085C61.3631 4.18085 62.5325 6.63493 62.5325 9.65209V12.0921C62.5108 12.8701 62.6515 13.6439 62.9455 14.3632V14.4007C63.0288 14.5647 63.125 14.7216 63.2331 14.87L63.2656 14.9075H58.9502L59.0244 14.8136L59.0615 14.8371Z" fill="white"/>
<path d="M75.7016 12.308C75.6713 13.2181 75.937 14.1131 76.4579 14.8559H74.5322C73.7758 14.8559 72.9128 14.2365 72.9128 13.4717C72.2678 14.382 71.5207 15.0905 70.0358 15.0905C66.3885 15.0905 64.3561 12.6364 64.3561 9.61457C64.3561 6.59272 66.3885 4.14333 70.0358 4.14333C70.6538 4.13892 71.2683 4.2372 71.8548 4.43425C72.5909 4.74879 73.3837 4.90457 74.1827 4.89164C74.9818 4.87872 75.7693 4.69736 76.4951 4.35918C75.9535 5.19253 75.6886 6.17867 75.7387 7.17457L75.7016 12.308ZM70.0172 14.2553C72.2121 14.2553 72.8942 11.346 72.8942 9.59581C72.8942 6.90711 72.2121 4.92695 70.0172 4.92695C68.291 4.92695 67.1402 6.90711 67.1402 9.61927C67.1402 12.3314 68.291 14.3116 70.0172 14.3116V14.2553Z" fill="white"/>
<path d="M89.1259 12.0358C89.1259 14.016 89.8822 14.8512 89.8822 14.8512H88.8567C88.3476 14.8546 87.8485 14.7083 87.4201 14.43C86.9917 14.1518 86.6525 13.7536 86.4438 13.284C86.011 13.8525 85.4519 14.3101 84.8119 14.6199C84.1719 14.9296 83.4688 15.0828 82.7594 15.067C79.6133 15.067 77.7758 12.613 77.7758 9.59111C77.7758 6.56925 79.3952 4.12455 82.778 4.12455C83.4532 4.10802 84.1235 4.24487 84.7394 4.52504C85.3554 4.80521 85.9013 5.22156 86.3371 5.7434V3.28463C86.3371 1.29978 85.5807 0.469238 85.5807 0.469238H86.5876C87.8498 0.469238 89.1259 1.50624 89.1259 2.77786V12.0358ZM83.4415 14.2553C85.6178 14.2553 86.3185 11.346 86.3185 9.5958C86.3185 6.9071 85.6364 4.92694 83.4415 4.92694C81.7154 4.92694 80.5831 6.9071 80.5831 9.61926C80.5831 12.3314 81.7154 14.3116 83.4415 14.3116V14.2553Z" fill="white"/>
<path d="M102.55 4.34509C101.633 5.27386 100.889 6.36282 100.355 7.55933L96.1791 16.9815C95.9853 17.5258 95.6317 17.9972 95.1657 18.3326C94.6996 18.6681 94.1433 18.8515 93.5713 18.8584C92.908 18.8458 92.2678 18.6097 91.7523 18.1874C91.3418 17.7715 91.1043 17.2123 91.0887 16.6249C91.0863 16.468 91.1147 16.3123 91.1724 16.1666C91.23 16.021 91.3158 15.8884 91.4246 15.7766C91.5334 15.6648 91.6632 15.576 91.8063 15.5154C91.9494 15.4548 92.103 15.4236 92.2581 15.4237H93.8775C93.1212 16.1697 93.033 18.042 93.6966 18.042C94.7917 18.042 95.5109 16.3668 95.5109 16.3668C95.8729 15.5691 95.6037 14.3867 95.2418 13.5843L92.6618 7.74233C92.0995 6.4902 91.3341 5.34196 90.3973 4.34509H94.9819C94.9448 4.56047 94.9262 4.7787 94.9263 4.99732C94.9224 5.6449 95.0586 6.28549 95.3253 6.87425L97.5341 11.895L99.8542 6.63964C100.176 5.92797 100.27 5.13228 100.123 4.36386L102.55 4.34509Z" fill="white"/>
<path d="M46.6441 19.8532C49.2519 19.8532 49.8273 21.2187 49.8273 23.0721C49.8285 23.2237 49.8002 23.3741 49.744 23.5146C49.6877 23.6551 49.6047 23.7831 49.4995 23.8911C49.3944 23.9992 49.2692 24.0852 49.1312 24.1444C48.9932 24.2035 48.845 24.2346 48.6951 24.2358H47.0431C47.0431 24.2358 48.4074 20.6697 46.6812 20.6697C44.4863 20.6697 43.8228 22.0351 43.8228 24.7285V27.7832C43.8005 28.5612 43.9412 29.3352 44.2358 30.0543V30.0918C44.3179 30.2565 44.4141 30.4135 44.5235 30.5611L44.5559 30.5986H40.2405L40.3147 30.5048C40.5143 30.2326 40.9968 29.3786 40.9968 27.7598V22.9032C41.0069 22.1847 40.8858 21.4704 40.6395 20.7964C40.5477 20.5507 40.4261 20.3174 40.2776 20.1019C41.8264 20.7674 43.5725 20.7876 45.136 20.1582C45.6269 19.9586 46.1521 19.8597 46.6812 19.8673L46.6441 19.8532Z" fill="white"/>
<path d="M58.5928 30.5658C59.0941 29.7436 59.3324 28.7849 59.2749 27.8208V25.2353C59.2749 22.5278 58.9872 20.6884 57.261 20.6884C55.0662 20.6884 54.3841 22.5278 54.3841 25.2353V27.8208C54.3623 28.5987 54.5031 29.3726 54.797 30.0918V30.1294C54.8804 30.2933 54.9766 30.4502 55.0847 30.5986L55.1219 30.6315H50.8064L50.876 30.5423C51.0755 30.2701 51.5581 29.4161 51.5581 27.7973V19.0367C51.5581 17.0519 50.8064 16.2213 50.8064 16.2213H52.0825C52.6876 16.2226 53.2676 16.4662 53.6955 16.8989C54.1233 17.3316 54.3643 17.9181 54.3655 18.53V21.5143C54.9966 20.604 55.7297 19.8954 57.2239 19.8954C60.8758 19.8954 62.0452 22.3495 62.0452 25.3714V27.8067C62.0234 28.5846 62.1642 29.3585 62.4581 30.0778V30.1153C62.5415 30.2792 62.6377 30.4361 62.7458 30.5845L62.783 30.6221H58.4629L58.5371 30.5282L58.5928 30.5658Z" fill="white"/>
<path d="M74.3002 20.0737C73.3817 21.0033 72.638 22.094 72.1054 23.2927L67.9291 32.7102C67.7382 33.2563 67.3853 33.7296 66.9186 34.0655C66.4519 34.4014 65.8941 34.5835 65.3213 34.5871C64.658 34.5745 64.0178 34.3383 63.5023 33.9161C63.091 33.5007 62.8534 32.9412 62.8387 32.3535C62.8363 32.1967 62.8647 32.0409 62.9224 31.8953C62.98 31.7496 63.0658 31.6171 63.1746 31.5053C63.2834 31.3935 63.4132 31.3047 63.5563 31.2441C63.6994 31.1835 63.8529 31.1523 64.0081 31.1523H65.6275C64.8712 31.8984 64.783 33.7706 65.4466 33.7706C66.5417 33.7706 67.2609 32.1002 67.2609 32.1002C67.6229 31.2978 67.3537 30.1153 66.9918 29.3176L64.4257 23.4616C63.8634 22.2095 63.0981 21.0612 62.1613 20.0644H66.7458C66.7089 20.2798 66.6903 20.498 66.6902 20.7166C66.6857 21.3642 66.822 22.005 67.0892 22.5935L69.298 27.6143L71.6181 22.3589C71.9403 21.6472 72.0344 20.8515 71.8873 20.0831L74.3002 20.0737Z" fill="white"/>
<path d="M89.0516 30.6033C89.5556 29.7803 89.7954 28.8199 89.7384 27.8536V24.8177C89.7384 22.129 89.2744 20.7635 88.1375 20.7635C86.2814 20.7635 85.5807 22.0164 85.5297 24.5643V27.8489C85.5076 28.6284 85.6483 29.4039 85.9427 30.1247V30.1622C86.0241 30.3272 86.1204 30.4843 86.2304 30.6315L86.2628 30.669H81.9891L82.0634 30.5799C82.5647 29.7577 82.803 28.799 82.7455 27.8348V24.7661C82.7455 22.0727 82.2583 20.7072 81.1446 20.7072C79.2374 20.7072 78.5182 22.0727 78.5182 24.7661V27.8208C78.4992 28.5985 78.6399 29.3718 78.9312 30.0919V30.1294C79.0164 30.2922 79.1125 30.449 79.2189 30.5986L79.256 30.6315H74.9406L75.0102 30.5423C75.2097 30.2702 75.6969 29.4162 75.6969 27.7973V22.9408C75.7058 22.2219 75.5831 21.5076 75.335 20.8339C75.2429 20.5892 75.1229 20.3562 74.9777 20.1394C75.6998 20.4687 76.4814 20.6437 77.2734 20.6534C78.0655 20.6631 78.8511 20.5073 79.5808 20.1958C80.159 19.9975 80.7661 19.8992 81.3766 19.9048C82.0416 19.8786 82.6996 20.0505 83.2688 20.3992C83.8381 20.7479 84.2934 21.2581 84.5784 21.8662C84.9536 21.268 85.4715 20.7748 86.0845 20.4321C86.6975 20.0893 87.386 19.908 88.0865 19.9048C91.2326 19.9048 92.5643 22.3589 92.5643 25.3808V27.8161C92.5426 28.594 92.6833 29.3679 92.9773 30.0872V30.1247C93.0607 30.2886 93.1569 30.4455 93.265 30.5939L93.3021 30.6315H88.9867L89.0563 30.5376L89.0516 30.6033Z" fill="white"/>
<path d="M101.13 29.8385C103.863 29.8385 105.733 27.2389 105.733 27.2389C104.996 29.1815 102.819 30.8192 100.165 30.8192C96.6014 30.8192 94.374 28.3275 94.374 25.3104C94.374 22.2932 96.6014 19.872 100.165 19.872C102.986 19.872 105.2 21.3829 105.826 23.8558C105.891 24.097 105.899 24.3502 105.851 24.5953C105.802 24.8404 105.698 25.0708 105.546 25.2682C105.395 25.4657 105.2 25.6248 104.977 25.7331C104.754 25.8414 104.51 25.8959 104.262 25.8922H97.3345C97.7475 27.8536 98.9354 29.8385 101.149 29.8385H101.13ZM99.2046 20.7823C97.3484 21.2891 97.0468 23.3114 97.1721 25.0758H102.495C102.586 25.0696 102.675 25.0444 102.756 25.0019C102.837 24.9594 102.908 24.9003 102.966 24.8285C103.023 24.7567 103.066 24.6737 103.09 24.5846C103.114 24.4956 103.12 24.4024 103.107 24.3109C102.782 22.2369 101.33 20.2004 99.2231 20.7823H99.2046Z" fill="white"/>
<path d="M112.151 24.1983C114.708 24.6018 117.009 25.2165 117.009 27.5814C117.009 29.9464 114.452 30.8379 111.97 30.8379C110.337 30.8379 108.258 30.2561 107.492 29.0032C107.41 28.8599 107.367 28.6973 107.368 28.5319C107.368 28.3664 107.412 28.204 107.494 28.0611C107.577 27.9182 107.695 27.7998 107.837 27.7181C107.979 27.6363 108.141 27.594 108.304 27.5955H109.831C109.831 29.4302 111.019 30.0308 111.97 30.0308C112.921 30.0308 114.183 29.4302 114.183 27.5955C114.183 26.8119 113.121 26.5398 111.794 26.3427C109.218 25.9391 107.153 25.1602 107.153 23.0299C107.153 20.8151 109.937 19.9377 111.9 19.8673C113.357 19.8673 115.678 20.4867 116.397 22.1055C116.443 22.2451 116.455 22.3937 116.434 22.5392C116.413 22.6847 116.358 22.8231 116.274 22.9432C116.19 23.0633 116.079 23.1617 115.95 23.2306C115.822 23.2995 115.679 23.3368 115.534 23.3396H113.896C113.896 21.2656 112.638 20.6462 111.933 20.6462C111.125 20.6462 109.937 21.2656 109.937 22.9924C109.937 23.7572 111.144 24.0294 112.114 24.1748L112.151 24.1983Z" fill="white"/>
<path d="M13.2757 19.7585L8.22 24.8156L9.19043 25.7785L14.2774 20.6901C14.751 20.9988 15.2843 21.2042 15.8426 21.2928V31H17.2043V21.2928C17.7842 21.1934 18.3364 20.9719 18.8243 20.6431L23.8252 25.6454L24.7957 24.6825L19.8026 19.688C20.1792 19.1765 20.4311 18.5841 20.5383 17.958H30V16.5958H20.5148C20.4261 16.0374 20.2208 15.5039 19.9122 15.0302L24.6078 10.3331L23.6452 9.37025L18.9496 14.0673C18.4241 13.6605 17.8054 13.3914 17.1496 13.2844V4H15.8191V13.2609C15.1932 13.3682 14.6009 13.6201 14.0896 13.9968L9.32348 9.22934L8.35304 10.1844L13.1348 14.9675C12.8028 15.4539 12.5811 16.0069 12.4852 16.588H3V17.9501H12.4852C12.5932 18.6096 12.865 19.2314 13.2757 19.7585ZM16.5 14.5605C17.0361 14.5651 17.5588 14.7283 18.0023 15.0296C18.4458 15.3309 18.7902 15.7568 18.9921 16.2535C19.1941 16.7503 19.2445 17.2957 19.1371 17.8211C19.0297 18.3465 18.7692 18.8283 18.3885 19.2059C18.0078 19.5834 17.5239 19.8398 16.9977 19.9427C16.4716 20.0457 15.9268 19.9905 15.4319 19.7842C14.9371 19.578 14.5143 19.2298 14.217 18.7836C13.9196 18.3374 13.7609 17.8131 13.7609 17.2769C13.7609 16.9182 13.8319 16.563 13.9698 16.2319C14.1077 15.9008 14.3099 15.6003 14.5645 15.3477C14.8192 15.0952 15.1214 14.8956 15.4536 14.7605C15.7857 14.6253 16.1414 14.5574 16.5 14.5605Z" fill="#FADCD9" stroke="#FADCD9" stroke-miterlimit="10"/>
</svg>
