<svg width="537" height="55" viewBox="0 0 537 55" fill="none" xmlns="http://www.w3.org/2000/svg">
<path d="M6.72269 7.538C7.17869 7.61 7.59269 7.796 7.96469 8.096C8.34869 8.396 8.64869 8.768 8.86469 9.212C9.09269 9.656 9.20669 10.13 9.20669 10.634C9.20669 11.27 9.04469 11.846 8.72069 12.362C8.39669 12.866 7.92269 13.268 7.29869 13.568C6.68669 13.856 5.96069 14 5.12069 14H0.440688V1.454H4.94069C5.79269 1.454 6.51869 1.598 7.11869 1.886C7.71869 2.162 8.16869 2.54 8.46869 3.02C8.76869 3.5 8.91869 4.04 8.91869 4.64C8.91869 5.384 8.71469 6.002 8.30669 6.494C7.91069 6.974 7.38269 7.322 6.72269 7.538ZM2.07869 6.872H4.83269C5.60069 6.872 6.19469 6.692 6.61469 6.332C7.03469 5.972 7.24469 5.474 7.24469 4.838C7.24469 4.202 7.03469 3.704 6.61469 3.344C6.19469 2.984 5.58869 2.804 4.79669 2.804H2.07869V6.872ZM4.97669 12.65C5.79269 12.65 6.42869 12.458 6.88469 12.074C7.34069 11.69 7.56869 11.156 7.56869 10.472C7.56869 9.776 7.32869 9.23 6.84869 8.834C6.36869 8.426 5.72669 8.222 4.92269 8.222H2.07869V12.65H4.97669ZM13.1178 5.738C13.4058 5.174 13.8138 4.736 14.3418 4.424C14.8818 4.112 15.5358 3.956 16.3038 3.956V5.648H15.8718C14.0358 5.648 13.1178 6.644 13.1178 8.636V14H11.4798V4.136H13.1178V5.738ZM19.0406 2.534C18.7286 2.534 18.4646 2.426 18.2486 2.21C18.0326 1.994 17.9246 1.73 17.9246 1.418C17.9246 1.106 18.0326 0.842 18.2486 0.625999C18.4646 0.409999 18.7286 0.301999 19.0406 0.301999C19.3406 0.301999 19.5926 0.409999 19.7966 0.625999C20.0126 0.842 20.1206 1.106 20.1206 1.418C20.1206 1.73 20.0126 1.994 19.7966 2.21C19.5926 2.426 19.3406 2.534 19.0406 2.534ZM19.8326 4.136V14H18.1946V4.136H19.8326ZM27.4303 3.956C28.6303 3.956 29.6023 4.322 30.3463 5.054C31.0903 5.774 31.4623 6.818 31.4623 8.186V14H29.8423V8.42C29.8423 7.436 29.5963 6.686 29.1043 6.17C28.6123 5.642 27.9403 5.378 27.0883 5.378C26.2243 5.378 25.5343 5.648 25.0183 6.188C24.5143 6.728 24.2623 7.514 24.2623 8.546V14H22.6243V4.136H24.2623V5.54C24.5863 5.036 25.0243 4.646 25.5763 4.37C26.1403 4.094 26.7583 3.956 27.4303 3.956ZM38.206 3.974C39.058 3.974 39.802 4.16 40.438 4.532C41.086 4.904 41.566 5.372 41.878 5.936V4.136H43.534V14.216C43.534 15.116 43.342 15.914 42.958 16.61C42.574 17.318 42.022 17.87 41.302 18.266C40.594 18.662 39.766 18.86 38.818 18.86C37.522 18.86 36.442 18.554 35.578 17.942C34.714 17.33 34.204 16.496 34.048 15.44H35.668C35.848 16.04 36.22 16.52 36.784 16.88C37.348 17.252 38.026 17.438 38.818 17.438C39.718 17.438 40.45 17.156 41.014 16.592C41.59 16.028 41.878 15.236 41.878 14.216V12.146C41.554 12.722 41.074 13.202 40.438 13.586C39.802 13.97 39.058 14.162 38.206 14.162C37.33 14.162 36.532 13.946 35.812 13.514C35.104 13.082 34.546 12.476 34.138 11.696C33.73 10.916 33.526 10.028 33.526 9.032C33.526 8.024 33.73 7.142 34.138 6.386C34.546 5.618 35.104 5.024 35.812 4.604C36.532 4.184 37.33 3.974 38.206 3.974ZM41.878 9.05C41.878 8.306 41.728 7.658 41.428 7.106C41.128 6.554 40.72 6.134 40.204 5.846C39.7 5.546 39.142 5.396 38.53 5.396C37.918 5.396 37.36 5.54 36.856 5.828C36.352 6.116 35.95 6.536 35.65 7.088C35.35 7.64 35.2 8.288 35.2 9.032C35.2 9.788 35.35 10.448 35.65 11.012C35.95 11.564 36.352 11.99 36.856 12.29C37.36 12.578 37.918 12.722 38.53 12.722C39.142 12.722 39.7 12.578 40.204 12.29C40.72 11.99 41.128 11.564 41.428 11.012C41.728 10.448 41.878 9.794 41.878 9.05ZM47.148 2.534C46.836 2.534 46.572 2.426 46.356 2.21C46.14 1.994 46.032 1.73 46.032 1.418C46.032 1.106 46.14 0.842 46.356 0.625999C46.572 0.409999 46.836 0.301999 47.148 0.301999C47.448 0.301999 47.7 0.409999 47.904 0.625999C48.12 0.842 48.228 1.106 48.228 1.418C48.228 1.73 48.12 1.994 47.904 2.21C47.7 2.426 47.448 2.534 47.148 2.534ZM47.94 4.136V14H46.302V4.136H47.94ZM55.5377 3.956C56.7377 3.956 57.7097 4.322 58.4537 5.054C59.1977 5.774 59.5697 6.818 59.5697 8.186V14H57.9497V8.42C57.9497 7.436 57.7037 6.686 57.2117 6.17C56.7197 5.642 56.0477 5.378 55.1957 5.378C54.3317 5.378 53.6417 5.648 53.1257 6.188C52.6217 6.728 52.3697 7.514 52.3697 8.546V14H50.7317V4.136H52.3697V5.54C52.6937 5.036 53.1317 4.646 53.6837 4.37C54.2477 4.094 54.8657 3.956 55.5377 3.956ZM66.3134 3.974C67.1654 3.974 67.9094 4.16 68.5454 4.532C69.1934 4.904 69.6734 5.372 69.9854 5.936V4.136H71.6414V14.216C71.6414 15.116 71.4494 15.914 71.0654 16.61C70.6814 17.318 70.1294 17.87 69.4094 18.266C68.7014 18.662 67.8734 18.86 66.9254 18.86C65.6294 18.86 64.5494 18.554 63.6854 17.942C62.8214 17.33 62.3114 16.496 62.1554 15.44H63.7754C63.9554 16.04 64.3274 16.52 64.8914 16.88C65.4554 17.252 66.1334 17.438 66.9254 17.438C67.8254 17.438 68.5574 17.156 69.1214 16.592C69.6974 16.028 69.9854 15.236 69.9854 14.216V12.146C69.6614 12.722 69.1814 13.202 68.5454 13.586C67.9094 13.97 67.1654 14.162 66.3134 14.162C65.4374 14.162 64.6394 13.946 63.9194 13.514C63.2114 13.082 62.6534 12.476 62.2454 11.696C61.8374 10.916 61.6334 10.028 61.6334 9.032C61.6334 8.024 61.8374 7.142 62.2454 6.386C62.6534 5.618 63.2114 5.024 63.9194 4.604C64.6394 4.184 65.4374 3.974 66.3134 3.974ZM69.9854 9.05C69.9854 8.306 69.8354 7.658 69.5354 7.106C69.2354 6.554 68.8274 6.134 68.3114 5.846C67.8074 5.546 67.2494 5.396 66.6374 5.396C66.0254 5.396 65.4674 5.54 64.9634 5.828C64.4594 6.116 64.0574 6.536 63.7574 7.088C63.4574 7.64 63.3074 8.288 63.3074 9.032C63.3074 9.788 63.4574 10.448 63.7574 11.012C64.0574 11.564 64.4594 11.99 64.9634 12.29C65.4674 12.578 66.0254 12.722 66.6374 12.722C67.2494 12.722 67.8074 12.578 68.3114 12.29C68.8274 11.99 69.2354 11.564 69.5354 11.012C69.8354 10.448 69.9854 9.794 69.9854 9.05ZM80.0543 2.534C79.7423 2.534 79.4783 2.426 79.2623 2.21C79.0463 1.994 78.9383 1.73 78.9383 1.418C78.9383 1.106 79.0463 0.842 79.2623 0.625999C79.4783 0.409999 79.7423 0.301999 80.0543 0.301999C80.3543 0.301999 80.6063 0.409999 80.8103 0.625999C81.0263 0.842 81.1343 1.106 81.1343 1.418C81.1343 1.73 81.0263 1.994 80.8103 2.21C80.6063 2.426 80.3543 2.534 80.0543 2.534ZM80.8463 4.136V14H79.2083V4.136H80.8463ZM88.444 3.956C89.644 3.956 90.616 4.322 91.36 5.054C92.104 5.774 92.476 6.818 92.476 8.186V14H90.856V8.42C90.856 7.436 90.61 6.686 90.118 6.17C89.626 5.642 88.954 5.378 88.102 5.378C87.238 5.378 86.548 5.648 86.032 6.188C85.528 6.728 85.276 7.514 85.276 8.546V14H83.638V4.136H85.276V5.54C85.6 5.036 86.038 4.646 86.59 4.37C87.154 4.094 87.772 3.956 88.444 3.956ZM97.1496 5.486V11.3C97.1496 11.78 97.2516 12.122 97.4556 12.326C97.6596 12.518 98.0136 12.614 98.5176 12.614H99.7236V14H98.2476C97.3356 14 96.6516 13.79 96.1956 13.37C95.7396 12.95 95.5116 12.26 95.5116 11.3V5.486H94.2336V4.136H95.5116V1.652H97.1496V4.136H99.7236V5.486H97.1496ZM110.708 8.69C110.708 9.002 110.69 9.332 110.654 9.68H102.77C102.83 10.652 103.16 11.414 103.76 11.966C104.372 12.506 105.11 12.776 105.974 12.776C106.682 12.776 107.27 12.614 107.738 12.29C108.218 11.954 108.554 11.51 108.746 10.958H110.51C110.246 11.906 109.718 12.68 108.926 13.28C108.134 13.868 107.15 14.162 105.974 14.162C105.038 14.162 104.198 13.952 103.454 13.532C102.722 13.112 102.146 12.518 101.726 11.75C101.306 10.97 101.096 10.07 101.096 9.05C101.096 8.03 101.3 7.136 101.708 6.368C102.116 5.6 102.686 5.012 103.418 4.604C104.162 4.184 105.014 3.974 105.974 3.974C106.91 3.974 107.738 4.178 108.458 4.586C109.178 4.994 109.73 5.558 110.114 6.278C110.51 6.986 110.708 7.79 110.708 8.69ZM109.016 8.348C109.016 7.724 108.878 7.19 108.602 6.746C108.326 6.29 107.948 5.948 107.468 5.72C107 5.48 106.478 5.36 105.902 5.36C105.074 5.36 104.366 5.624 103.778 6.152C103.202 6.68 102.872 7.412 102.788 8.348H109.016ZM114.508 5.738C114.796 5.174 115.204 4.736 115.732 4.424C116.272 4.112 116.926 3.956 117.694 3.956V5.648H117.262C115.426 5.648 114.508 6.644 114.508 8.636V14H112.87V4.136H114.508V5.738ZM120.431 2.534C120.119 2.534 119.855 2.426 119.639 2.21C119.423 1.994 119.315 1.73 119.315 1.418C119.315 1.106 119.423 0.842 119.639 0.625999C119.855 0.409999 120.119 0.301999 120.431 0.301999C120.731 0.301999 120.983 0.409999 121.187 0.625999C121.403 0.842 121.511 1.106 121.511 1.418C121.511 1.73 121.403 1.994 121.187 2.21C120.983 2.426 120.731 2.534 120.431 2.534ZM121.223 4.136V14H119.585V4.136H121.223ZM128.317 14.162C127.393 14.162 126.553 13.952 125.797 13.532C125.053 13.112 124.465 12.518 124.033 11.75C123.613 10.97 123.403 10.07 123.403 9.05C123.403 8.042 123.619 7.154 124.051 6.386C124.495 5.606 125.095 5.012 125.851 4.604C126.607 4.184 127.453 3.974 128.389 3.974C129.325 3.974 130.171 4.184 130.927 4.604C131.683 5.012 132.277 5.6 132.709 6.368C133.153 7.136 133.375 8.03 133.375 9.05C133.375 10.07 133.147 10.97 132.691 11.75C132.247 12.518 131.641 13.112 130.873 13.532C130.105 13.952 129.253 14.162 128.317 14.162ZM128.317 12.722C128.905 12.722 129.457 12.584 129.973 12.308C130.489 12.032 130.903 11.618 131.215 11.066C131.539 10.514 131.701 9.842 131.701 9.05C131.701 8.258 131.545 7.586 131.233 7.034C130.921 6.482 130.513 6.074 130.009 5.81C129.505 5.534 128.959 5.396 128.371 5.396C127.771 5.396 127.219 5.534 126.715 5.81C126.223 6.074 125.827 6.482 125.527 7.034C125.227 7.586 125.077 8.258 125.077 9.05C125.077 9.854 125.221 10.532 125.509 11.084C125.809 11.636 126.205 12.05 126.697 12.326C127.189 12.59 127.729 12.722 128.317 12.722ZM137.167 5.738C137.455 5.174 137.863 4.736 138.391 4.424C138.931 4.112 139.585 3.956 140.353 3.956V5.648H139.921C138.085 5.648 137.167 6.644 137.167 8.636V14H135.529V4.136H137.167V5.738ZM145.735 14.162C144.979 14.162 144.301 14.036 143.701 13.784C143.101 13.52 142.627 13.16 142.279 12.704C141.931 12.236 141.739 11.702 141.703 11.102H143.395C143.443 11.594 143.671 11.996 144.079 12.308C144.499 12.62 145.045 12.776 145.717 12.776C146.341 12.776 146.833 12.638 147.193 12.362C147.553 12.086 147.733 11.738 147.733 11.318C147.733 10.886 147.541 10.568 147.157 10.364C146.773 10.148 146.179 9.938 145.375 9.734C144.643 9.542 144.043 9.35 143.575 9.158C143.119 8.954 142.723 8.66 142.387 8.276C142.063 7.88 141.901 7.364 141.901 6.728C141.901 6.224 142.051 5.762 142.351 5.342C142.651 4.922 143.077 4.592 143.629 4.352C144.181 4.1 144.811 3.974 145.519 3.974C146.611 3.974 147.493 4.25 148.165 4.802C148.837 5.354 149.197 6.11 149.245 7.07H147.607C147.571 6.554 147.361 6.14 146.977 5.828C146.605 5.516 146.101 5.36 145.465 5.36C144.877 5.36 144.409 5.486 144.061 5.738C143.713 5.99 143.539 6.32 143.539 6.728C143.539 7.052 143.641 7.322 143.845 7.538C144.061 7.742 144.325 7.91 144.637 8.042C144.961 8.162 145.405 8.3 145.969 8.456C146.677 8.648 147.253 8.84 147.697 9.032C148.141 9.212 148.519 9.488 148.831 9.86C149.155 10.232 149.323 10.718 149.335 11.318C149.335 11.858 149.185 12.344 148.885 12.776C148.585 13.208 148.159 13.55 147.607 13.802C147.067 14.042 146.443 14.162 145.735 14.162ZM158.445 5.486V11.3C158.445 11.78 158.547 12.122 158.751 12.326C158.955 12.518 159.309 12.614 159.813 12.614H161.019V14H159.543C158.631 14 157.947 13.79 157.491 13.37C157.035 12.95 156.807 12.26 156.807 11.3V5.486H155.529V4.136H156.807V1.652H158.445V4.136H161.019V5.486H158.445ZM167.305 14.162C166.381 14.162 165.541 13.952 164.785 13.532C164.041 13.112 163.453 12.518 163.021 11.75C162.601 10.97 162.391 10.07 162.391 9.05C162.391 8.042 162.607 7.154 163.039 6.386C163.483 5.606 164.083 5.012 164.839 4.604C165.595 4.184 166.441 3.974 167.377 3.974C168.313 3.974 169.159 4.184 169.915 4.604C170.671 5.012 171.265 5.6 171.697 6.368C172.141 7.136 172.363 8.03 172.363 9.05C172.363 10.07 172.135 10.97 171.679 11.75C171.235 12.518 170.629 13.112 169.861 13.532C169.093 13.952 168.241 14.162 167.305 14.162ZM167.305 12.722C167.893 12.722 168.445 12.584 168.961 12.308C169.477 12.032 169.891 11.618 170.203 11.066C170.527 10.514 170.689 9.842 170.689 9.05C170.689 8.258 170.533 7.586 170.221 7.034C169.909 6.482 169.501 6.074 168.997 5.81C168.493 5.534 167.947 5.396 167.359 5.396C166.759 5.396 166.207 5.534 165.703 5.81C165.211 6.074 164.815 6.482 164.515 7.034C164.215 7.586 164.065 8.258 164.065 9.05C164.065 9.854 164.209 10.532 164.497 11.084C164.797 11.636 165.193 12.05 165.685 12.326C166.177 12.59 166.717 12.722 167.305 12.722ZM180.954 0.68V14H179.316V0.68H180.954ZM184.591 2.534C184.279 2.534 184.015 2.426 183.799 2.21C183.583 1.994 183.475 1.73 183.475 1.418C183.475 1.106 183.583 0.842 183.799 0.625999C184.015 0.409999 184.279 0.301999 184.591 0.301999C184.891 0.301999 185.143 0.409999 185.347 0.625999C185.563 0.842 185.671 1.106 185.671 1.418C185.671 1.73 185.563 1.994 185.347 2.21C185.143 2.426 184.891 2.534 184.591 2.534ZM185.383 4.136V14H183.745V4.136H185.383ZM192.189 5.486H190.119V14H188.481V5.486H187.203V4.136H188.481V3.434C188.481 2.33 188.763 1.526 189.327 1.022C189.903 0.505999 190.821 0.247999 192.081 0.247999V1.616C191.361 1.616 190.851 1.76 190.551 2.048C190.263 2.324 190.119 2.786 190.119 3.434V4.136H192.189V5.486ZM203.099 8.69C203.099 9.002 203.081 9.332 203.045 9.68H195.161C195.221 10.652 195.551 11.414 196.151 11.966C196.763 12.506 197.501 12.776 198.365 12.776C199.073 12.776 199.661 12.614 200.129 12.29C200.609 11.954 200.945 11.51 201.137 10.958H202.901C202.637 11.906 202.109 12.68 201.317 13.28C200.525 13.868 199.541 14.162 198.365 14.162C197.429 14.162 196.589 13.952 195.845 13.532C195.113 13.112 194.537 12.518 194.117 11.75C193.697 10.97 193.487 10.07 193.487 9.05C193.487 8.03 193.691 7.136 194.099 6.368C194.507 5.6 195.077 5.012 195.809 4.604C196.553 4.184 197.405 3.974 198.365 3.974C199.301 3.974 200.129 4.178 200.849 4.586C201.569 4.994 202.121 5.558 202.505 6.278C202.901 6.986 203.099 7.79 203.099 8.69ZM201.407 8.348C201.407 7.724 201.269 7.19 200.993 6.746C200.717 6.29 200.339 5.948 199.859 5.72C199.391 5.48 198.869 5.36 198.293 5.36C197.465 5.36 196.757 5.624 196.169 6.152C195.593 6.68 195.263 7.412 195.179 8.348H201.407ZM206.953 11.732L204.937 16.574H203.839L205.153 11.732H206.953ZM222.376 4.136V14H220.738V12.542C220.426 13.046 219.988 13.442 219.424 13.73C218.872 14.006 218.26 14.144 217.588 14.144C216.82 14.144 216.13 13.988 215.518 13.676C214.906 13.352 214.42 12.872 214.06 12.236C213.712 11.6 213.538 10.826 213.538 9.914V4.136H215.158V9.698C215.158 10.67 215.404 11.42 215.896 11.948C216.388 12.464 217.06 12.722 217.912 12.722C218.788 12.722 219.478 12.452 219.982 11.912C220.486 11.372 220.738 10.586 220.738 9.554V4.136H222.376ZM229.948 3.956C231.148 3.956 232.12 4.322 232.864 5.054C233.608 5.774 233.98 6.818 233.98 8.186V14H232.36V8.42C232.36 7.436 232.114 6.686 231.622 6.17C231.13 5.642 230.458 5.378 229.606 5.378C228.742 5.378 228.052 5.648 227.536 6.188C227.032 6.728 226.78 7.514 226.78 8.546V14H225.142V4.136H226.78V5.54C227.104 5.036 227.542 4.646 228.094 4.37C228.658 4.094 229.276 3.956 229.948 3.956ZM236.044 9.032C236.044 8.024 236.248 7.142 236.656 6.386C237.064 5.618 237.622 5.024 238.33 4.604C239.05 4.184 239.854 3.974 240.742 3.974C241.51 3.974 242.224 4.154 242.884 4.514C243.544 4.862 244.048 5.324 244.396 5.9V0.68H246.052V14H244.396V12.146C244.072 12.734 243.592 13.22 242.956 13.604C242.32 13.976 241.576 14.162 240.724 14.162C239.848 14.162 239.05 13.946 238.33 13.514C237.622 13.082 237.064 12.476 236.656 11.696C236.248 10.916 236.044 10.028 236.044 9.032ZM244.396 9.05C244.396 8.306 244.246 7.658 243.946 7.106C243.646 6.554 243.238 6.134 242.722 5.846C242.218 5.546 241.66 5.396 241.048 5.396C240.436 5.396 239.878 5.54 239.374 5.828C238.87 6.116 238.468 6.536 238.168 7.088C237.868 7.64 237.718 8.288 237.718 9.032C237.718 9.788 237.868 10.448 238.168 11.012C238.468 11.564 238.87 11.99 239.374 12.29C239.878 12.578 240.436 12.722 241.048 12.722C241.66 12.722 242.218 12.578 242.722 12.29C243.238 11.99 243.646 11.564 243.946 11.012C244.246 10.448 244.396 9.794 244.396 9.05ZM257.82 8.69C257.82 9.002 257.802 9.332 257.766 9.68H249.882C249.942 10.652 250.272 11.414 250.872 11.966C251.484 12.506 252.222 12.776 253.086 12.776C253.794 12.776 254.382 12.614 254.85 12.29C255.33 11.954 255.666 11.51 255.858 10.958H257.622C257.358 11.906 256.83 12.68 256.038 13.28C255.246 13.868 254.262 14.162 253.086 14.162C252.15 14.162 251.31 13.952 250.566 13.532C249.834 13.112 249.258 12.518 248.838 11.75C248.418 10.97 248.208 10.07 248.208 9.05C248.208 8.03 248.412 7.136 248.82 6.368C249.228 5.6 249.798 5.012 250.53 4.604C251.274 4.184 252.126 3.974 253.086 3.974C254.022 3.974 254.85 4.178 255.57 4.586C256.29 4.994 256.842 5.558 257.226 6.278C257.622 6.986 257.82 7.79 257.82 8.69ZM256.128 8.348C256.128 7.724 255.99 7.19 255.714 6.746C255.438 6.29 255.06 5.948 254.58 5.72C254.112 5.48 253.59 5.36 253.014 5.36C252.186 5.36 251.478 5.624 250.89 6.152C250.314 6.68 249.984 7.412 249.9 8.348H256.128ZM261.62 5.738C261.908 5.174 262.316 4.736 262.844 4.424C263.384 4.112 264.038 3.956 264.806 3.956V5.648H264.374C262.538 5.648 261.62 6.644 261.62 8.636V14H259.982V4.136H261.62V5.738ZM270.189 14.162C269.433 14.162 268.755 14.036 268.155 13.784C267.555 13.52 267.081 13.16 266.733 12.704C266.385 12.236 266.193 11.702 266.157 11.102H267.849C267.897 11.594 268.125 11.996 268.533 12.308C268.953 12.62 269.499 12.776 270.171 12.776C270.795 12.776 271.287 12.638 271.647 12.362C272.007 12.086 272.187 11.738 272.187 11.318C272.187 10.886 271.995 10.568 271.611 10.364C271.227 10.148 270.633 9.938 269.829 9.734C269.097 9.542 268.497 9.35 268.029 9.158C267.573 8.954 267.177 8.66 266.841 8.276C266.517 7.88 266.355 7.364 266.355 6.728C266.355 6.224 266.505 5.762 266.805 5.342C267.105 4.922 267.531 4.592 268.083 4.352C268.635 4.1 269.265 3.974 269.973 3.974C271.065 3.974 271.947 4.25 272.619 4.802C273.291 5.354 273.651 6.11 273.699 7.07H272.061C272.025 6.554 271.815 6.14 271.431 5.828C271.059 5.516 270.555 5.36 269.919 5.36C269.331 5.36 268.863 5.486 268.515 5.738C268.167 5.99 267.993 6.32 267.993 6.728C267.993 7.052 268.095 7.322 268.299 7.538C268.515 7.742 268.779 7.91 269.091 8.042C269.415 8.162 269.859 8.3 270.423 8.456C271.131 8.648 271.707 8.84 272.151 9.032C272.595 9.212 272.973 9.488 273.285 9.86C273.609 10.232 273.777 10.718 273.789 11.318C273.789 11.858 273.639 12.344 273.339 12.776C273.039 13.208 272.613 13.55 272.061 13.802C271.521 14.042 270.897 14.162 270.189 14.162ZM278.099 5.486V11.3C278.099 11.78 278.201 12.122 278.405 12.326C278.609 12.518 278.963 12.614 279.467 12.614H280.673V14H279.197C278.285 14 277.601 13.79 277.145 13.37C276.689 12.95 276.461 12.26 276.461 11.3V5.486H275.183V4.136H276.461V1.652H278.099V4.136H280.673V5.486H278.099ZM282.045 9.032C282.045 8.024 282.249 7.142 282.657 6.386C283.065 5.618 283.623 5.024 284.331 4.604C285.051 4.184 285.849 3.974 286.725 3.974C287.589 3.974 288.339 4.16 288.975 4.532C289.611 4.904 290.085 5.372 290.397 5.936V4.136H292.053V14H290.397V12.164C290.073 12.74 289.587 13.22 288.939 13.604C288.303 13.976 287.559 14.162 286.707 14.162C285.831 14.162 285.039 13.946 284.331 13.514C283.623 13.082 283.065 12.476 282.657 11.696C282.249 10.916 282.045 10.028 282.045 9.032ZM290.397 9.05C290.397 8.306 290.247 7.658 289.947 7.106C289.647 6.554 289.239 6.134 288.723 5.846C288.219 5.546 287.661 5.396 287.049 5.396C286.437 5.396 285.879 5.54 285.375 5.828C284.871 6.116 284.469 6.536 284.169 7.088C283.869 7.64 283.719 8.288 283.719 9.032C283.719 9.788 283.869 10.448 284.169 11.012C284.469 11.564 284.871 11.99 285.375 12.29C285.879 12.578 286.437 12.722 287.049 12.722C287.661 12.722 288.219 12.578 288.723 12.29C289.239 11.99 289.647 11.564 289.947 11.012C290.247 10.448 290.397 9.794 290.397 9.05ZM299.628 3.956C300.828 3.956 301.8 4.322 302.544 5.054C303.288 5.774 303.66 6.818 303.66 8.186V14H302.04V8.42C302.04 7.436 301.794 6.686 301.302 6.17C300.81 5.642 300.138 5.378 299.286 5.378C298.422 5.378 297.732 5.648 297.216 6.188C296.712 6.728 296.46 7.514 296.46 8.546V14H294.822V4.136H296.46V5.54C296.784 5.036 297.222 4.646 297.774 4.37C298.338 4.094 298.956 3.956 299.628 3.956ZM305.723 9.032C305.723 8.024 305.927 7.142 306.335 6.386C306.743 5.618 307.301 5.024 308.009 4.604C308.729 4.184 309.533 3.974 310.421 3.974C311.189 3.974 311.903 4.154 312.563 4.514C313.223 4.862 313.727 5.324 314.075 5.9V0.68H315.731V14H314.075V12.146C313.751 12.734 313.271 13.22 312.635 13.604C311.999 13.976 311.255 14.162 310.403 14.162C309.527 14.162 308.729 13.946 308.009 13.514C307.301 13.082 306.743 12.476 306.335 11.696C305.927 10.916 305.723 10.028 305.723 9.032ZM314.075 9.05C314.075 8.306 313.925 7.658 313.625 7.106C313.325 6.554 312.917 6.134 312.401 5.846C311.897 5.546 311.339 5.396 310.727 5.396C310.115 5.396 309.557 5.54 309.053 5.828C308.549 6.116 308.147 6.536 307.847 7.088C307.547 7.64 307.397 8.288 307.397 9.032C307.397 9.788 307.547 10.448 307.847 11.012C308.147 11.564 308.549 11.99 309.053 12.29C309.557 12.578 310.115 12.722 310.727 12.722C311.339 12.722 311.897 12.578 312.401 12.29C312.917 11.99 313.325 11.564 313.625 11.012C313.925 10.448 314.075 9.794 314.075 9.05ZM319.345 2.534C319.033 2.534 318.769 2.426 318.553 2.21C318.337 1.994 318.229 1.73 318.229 1.418C318.229 1.106 318.337 0.842 318.553 0.625999C318.769 0.409999 319.033 0.301999 319.345 0.301999C319.645 0.301999 319.897 0.409999 320.101 0.625999C320.317 0.842 320.425 1.106 320.425 1.418C320.425 1.73 320.317 1.994 320.101 2.21C319.897 2.426 319.645 2.534 319.345 2.534ZM320.137 4.136V14H318.499V4.136H320.137ZM327.735 3.956C328.935 3.956 329.907 4.322 330.651 5.054C331.395 5.774 331.767 6.818 331.767 8.186V14H330.147V8.42C330.147 7.436 329.901 6.686 329.409 6.17C328.917 5.642 328.245 5.378 327.393 5.378C326.529 5.378 325.839 5.648 325.323 6.188C324.819 6.728 324.567 7.514 324.567 8.546V14H322.929V4.136H324.567V5.54C324.891 5.036 325.329 4.646 325.881 4.37C326.445 4.094 327.063 3.956 327.735 3.956ZM338.511 3.974C339.363 3.974 340.107 4.16 340.743 4.532C341.391 4.904 341.871 5.372 342.183 5.936V4.136H343.839V14.216C343.839 15.116 343.647 15.914 343.263 16.61C342.879 17.318 342.327 17.87 341.607 18.266C340.899 18.662 340.071 18.86 339.123 18.86C337.827 18.86 336.747 18.554 335.883 17.942C335.019 17.33 334.509 16.496 334.353 15.44H335.973C336.153 16.04 336.525 16.52 337.089 16.88C337.653 17.252 338.331 17.438 339.123 17.438C340.023 17.438 340.755 17.156 341.319 16.592C341.895 16.028 342.183 15.236 342.183 14.216V12.146C341.859 12.722 341.379 13.202 340.743 13.586C340.107 13.97 339.363 14.162 338.511 14.162C337.635 14.162 336.837 13.946 336.117 13.514C335.409 13.082 334.851 12.476 334.443 11.696C334.035 10.916 333.831 10.028 333.831 9.032C333.831 8.024 334.035 7.142 334.443 6.386C334.851 5.618 335.409 5.024 336.117 4.604C336.837 4.184 337.635 3.974 338.511 3.974ZM342.183 9.05C342.183 8.306 342.033 7.658 341.733 7.106C341.433 6.554 341.025 6.134 340.509 5.846C340.005 5.546 339.447 5.396 338.835 5.396C338.223 5.396 337.665 5.54 337.161 5.828C336.657 6.116 336.255 6.536 335.955 7.088C335.655 7.64 335.505 8.288 335.505 9.032C335.505 9.788 335.655 10.448 335.955 11.012C336.255 11.564 336.657 11.99 337.161 12.29C337.665 12.578 338.223 12.722 338.835 12.722C339.447 12.722 340.005 12.578 340.509 12.29C341.025 11.99 341.433 11.564 341.733 11.012C342.033 10.448 342.183 9.794 342.183 9.05ZM353.404 5.486V11.3C353.404 11.78 353.506 12.122 353.71 12.326C353.914 12.518 354.268 12.614 354.772 12.614H355.978V14H354.502C353.59 14 352.906 13.79 352.45 13.37C351.994 12.95 351.766 12.26 351.766 11.3V5.486H350.488V4.136H351.766V1.652H353.404V4.136H355.978V5.486H353.404ZM362.858 3.956C363.602 3.956 364.274 4.118 364.874 4.442C365.474 4.754 365.942 5.228 366.278 5.864C366.626 6.5 366.8 7.274 366.8 8.186V14H365.18V8.42C365.18 7.436 364.934 6.686 364.442 6.17C363.95 5.642 363.278 5.378 362.426 5.378C361.562 5.378 360.872 5.648 360.356 6.188C359.852 6.728 359.6 7.514 359.6 8.546V14H357.962V0.68H359.6V5.54C359.924 5.036 360.368 4.646 360.932 4.37C361.508 4.094 362.15 3.956 362.858 3.956ZM378.476 8.69C378.476 9.002 378.458 9.332 378.422 9.68H370.538C370.598 10.652 370.928 11.414 371.528 11.966C372.14 12.506 372.878 12.776 373.742 12.776C374.45 12.776 375.038 12.614 375.506 12.29C375.986 11.954 376.322 11.51 376.514 10.958H378.278C378.014 11.906 377.486 12.68 376.694 13.28C375.902 13.868 374.918 14.162 373.742 14.162C372.806 14.162 371.966 13.952 371.222 13.532C370.49 13.112 369.914 12.518 369.494 11.75C369.074 10.97 368.864 10.07 368.864 9.05C368.864 8.03 369.068 7.136 369.476 6.368C369.884 5.6 370.454 5.012 371.186 4.604C371.93 4.184 372.782 3.974 373.742 3.974C374.678 3.974 375.506 4.178 376.226 4.586C376.946 4.994 377.498 5.558 377.882 6.278C378.278 6.986 378.476 7.79 378.476 8.69ZM376.784 8.348C376.784 7.724 376.646 7.19 376.37 6.746C376.094 6.29 375.716 5.948 375.236 5.72C374.768 5.48 374.246 5.36 373.67 5.36C372.842 5.36 372.134 5.624 371.546 6.152C370.97 6.68 370.64 7.412 370.556 8.348H376.784ZM387.075 5.954C387.399 5.39 387.879 4.922 388.515 4.55C389.163 4.166 389.913 3.974 390.765 3.974C391.641 3.974 392.433 4.184 393.141 4.604C393.861 5.024 394.425 5.618 394.833 6.386C395.241 7.142 395.445 8.024 395.445 9.032C395.445 10.028 395.241 10.916 394.833 11.696C394.425 12.476 393.861 13.082 393.141 13.514C392.433 13.946 391.641 14.162 390.765 14.162C389.925 14.162 389.181 13.976 388.533 13.604C387.897 13.22 387.411 12.746 387.075 12.182V18.68H385.437V4.136H387.075V5.954ZM393.771 9.032C393.771 8.288 393.621 7.64 393.321 7.088C393.021 6.536 392.613 6.116 392.097 5.828C391.593 5.54 391.035 5.396 390.423 5.396C389.823 5.396 389.265 5.546 388.749 5.846C388.245 6.134 387.837 6.56 387.525 7.124C387.225 7.676 387.075 8.318 387.075 9.05C387.075 9.794 387.225 10.448 387.525 11.012C387.837 11.564 388.245 11.99 388.749 12.29C389.265 12.578 389.823 12.722 390.423 12.722C391.035 12.722 391.593 12.578 392.097 12.29C392.613 11.99 393.021 11.564 393.321 11.012C393.621 10.448 393.771 9.788 393.771 9.032ZM406.601 8.69C406.601 9.002 406.583 9.332 406.547 9.68H398.663C398.723 10.652 399.053 11.414 399.653 11.966C400.265 12.506 401.003 12.776 401.867 12.776C402.575 12.776 403.163 12.614 403.631 12.29C404.111 11.954 404.447 11.51 404.639 10.958H406.403C406.139 11.906 405.611 12.68 404.819 13.28C404.027 13.868 403.043 14.162 401.867 14.162C400.931 14.162 400.091 13.952 399.347 13.532C398.615 13.112 398.039 12.518 397.619 11.75C397.199 10.97 396.989 10.07 396.989 9.05C396.989 8.03 397.193 7.136 397.601 6.368C398.009 5.6 398.579 5.012 399.311 4.604C400.055 4.184 400.907 3.974 401.867 3.974C402.803 3.974 403.631 4.178 404.351 4.586C405.071 4.994 405.623 5.558 406.007 6.278C406.403 6.986 406.601 7.79 406.601 8.69ZM404.909 8.348C404.909 7.724 404.771 7.19 404.495 6.746C404.219 6.29 403.841 5.948 403.361 5.72C402.893 5.48 402.371 5.36 401.795 5.36C400.967 5.36 400.259 5.624 399.671 6.152C399.095 6.68 398.765 7.412 398.681 8.348H404.909ZM410.401 5.738C410.689 5.174 411.097 4.736 411.625 4.424C412.165 4.112 412.819 3.956 413.587 3.956V5.648H413.155C411.319 5.648 410.401 6.644 410.401 8.636V14H408.763V4.136H410.401V5.738ZM418.97 14.162C418.214 14.162 417.536 14.036 416.936 13.784C416.336 13.52 415.862 13.16 415.514 12.704C415.166 12.236 414.974 11.702 414.938 11.102H416.63C416.678 11.594 416.906 11.996 417.314 12.308C417.734 12.62 418.28 12.776 418.952 12.776C419.576 12.776 420.068 12.638 420.428 12.362C420.788 12.086 420.968 11.738 420.968 11.318C420.968 10.886 420.776 10.568 420.392 10.364C420.008 10.148 419.414 9.938 418.61 9.734C417.878 9.542 417.278 9.35 416.81 9.158C416.354 8.954 415.958 8.66 415.622 8.276C415.298 7.88 415.136 7.364 415.136 6.728C415.136 6.224 415.286 5.762 415.586 5.342C415.886 4.922 416.312 4.592 416.864 4.352C417.416 4.1 418.046 3.974 418.754 3.974C419.846 3.974 420.728 4.25 421.4 4.802C422.072 5.354 422.432 6.11 422.48 7.07H420.842C420.806 6.554 420.596 6.14 420.212 5.828C419.84 5.516 419.336 5.36 418.7 5.36C418.112 5.36 417.644 5.486 417.296 5.738C416.948 5.99 416.774 6.32 416.774 6.728C416.774 7.052 416.876 7.322 417.08 7.538C417.296 7.742 417.56 7.91 417.872 8.042C418.196 8.162 418.64 8.3 419.204 8.456C419.912 8.648 420.488 8.84 420.932 9.032C421.376 9.212 421.754 9.488 422.066 9.86C422.39 10.232 422.558 10.718 422.57 11.318C422.57 11.858 422.42 12.344 422.12 12.776C421.82 13.208 421.394 13.55 420.842 13.802C420.302 14.042 419.678 14.162 418.97 14.162ZM429.184 14.162C428.26 14.162 427.42 13.952 426.664 13.532C425.92 13.112 425.332 12.518 424.9 11.75C424.48 10.97 424.27 10.07 424.27 9.05C424.27 8.042 424.486 7.154 424.918 6.386C425.362 5.606 425.962 5.012 426.718 4.604C427.474 4.184 428.32 3.974 429.256 3.974C430.192 3.974 431.038 4.184 431.794 4.604C432.55 5.012 433.144 5.6 433.576 6.368C434.02 7.136 434.242 8.03 434.242 9.05C434.242 10.07 434.014 10.97 433.558 11.75C433.114 12.518 432.508 13.112 431.74 13.532C430.972 13.952 430.12 14.162 429.184 14.162ZM429.184 12.722C429.772 12.722 430.324 12.584 430.84 12.308C431.356 12.032 431.77 11.618 432.082 11.066C432.406 10.514 432.568 9.842 432.568 9.05C432.568 8.258 432.412 7.586 432.1 7.034C431.788 6.482 431.38 6.074 430.876 5.81C430.372 5.534 429.826 5.396 429.238 5.396C428.638 5.396 428.086 5.534 427.582 5.81C427.09 6.074 426.694 6.482 426.394 7.034C426.094 7.586 425.944 8.258 425.944 9.05C425.944 9.854 426.088 10.532 426.376 11.084C426.676 11.636 427.072 12.05 427.564 12.326C428.056 12.59 428.596 12.722 429.184 12.722ZM441.202 3.956C442.402 3.956 443.374 4.322 444.118 5.054C444.862 5.774 445.234 6.818 445.234 8.186V14H443.614V8.42C443.614 7.436 443.368 6.686 442.876 6.17C442.384 5.642 441.712 5.378 440.86 5.378C439.996 5.378 439.306 5.648 438.79 6.188C438.286 6.728 438.034 7.514 438.034 8.546V14H436.396V4.136H438.034V5.54C438.358 5.036 438.796 4.646 439.348 4.37C439.912 4.094 440.53 3.956 441.202 3.956ZM457.01 14.162C456.086 14.162 455.246 13.952 454.49 13.532C453.746 13.112 453.158 12.518 452.726 11.75C452.306 10.97 452.096 10.07 452.096 9.05C452.096 8.042 452.312 7.154 452.744 6.386C453.188 5.606 453.788 5.012 454.544 4.604C455.3 4.184 456.146 3.974 457.082 3.974C458.018 3.974 458.864 4.184 459.62 4.604C460.376 5.012 460.97 5.6 461.402 6.368C461.846 7.136 462.068 8.03 462.068 9.05C462.068 10.07 461.84 10.97 461.384 11.75C460.94 12.518 460.334 13.112 459.566 13.532C458.798 13.952 457.946 14.162 457.01 14.162ZM457.01 12.722C457.598 12.722 458.15 12.584 458.666 12.308C459.182 12.032 459.596 11.618 459.908 11.066C460.232 10.514 460.394 9.842 460.394 9.05C460.394 8.258 460.238 7.586 459.926 7.034C459.614 6.482 459.206 6.074 458.702 5.81C458.198 5.534 457.652 5.396 457.064 5.396C456.464 5.396 455.912 5.534 455.408 5.81C454.916 6.074 454.52 6.482 454.22 7.034C453.92 7.586 453.77 8.258 453.77 9.05C453.77 9.854 453.914 10.532 454.202 11.084C454.502 11.636 454.898 12.05 455.39 12.326C455.882 12.59 456.422 12.722 457.01 12.722ZM465.86 5.738C466.148 5.174 466.556 4.736 467.084 4.424C467.624 4.112 468.278 3.956 469.046 3.956V5.648H468.614C466.778 5.648 465.86 6.644 465.86 8.636V14H464.222V4.136H465.86V5.738ZM477.374 5.954C477.698 5.39 478.178 4.922 478.814 4.55C479.462 4.166 480.212 3.974 481.064 3.974C481.94 3.974 482.732 4.184 483.44 4.604C484.16 5.024 484.724 5.618 485.132 6.386C485.54 7.142 485.744 8.024 485.744 9.032C485.744 10.028 485.54 10.916 485.132 11.696C484.724 12.476 484.16 13.082 483.44 13.514C482.732 13.946 481.94 14.162 481.064 14.162C480.224 14.162 479.48 13.976 478.832 13.604C478.196 13.22 477.71 12.746 477.374 12.182V18.68H475.736V4.136H477.374V5.954ZM484.07 9.032C484.07 8.288 483.92 7.64 483.62 7.088C483.32 6.536 482.912 6.116 482.396 5.828C481.892 5.54 481.334 5.396 480.722 5.396C480.122 5.396 479.564 5.546 479.048 5.846C478.544 6.134 478.136 6.56 477.824 7.124C477.524 7.676 477.374 8.318 477.374 9.05C477.374 9.794 477.524 10.448 477.824 11.012C478.136 11.564 478.544 11.99 479.048 12.29C479.564 12.578 480.122 12.722 480.722 12.722C481.334 12.722 481.892 12.578 482.396 12.29C482.912 11.99 483.32 11.564 483.62 11.012C483.92 10.448 484.07 9.788 484.07 9.032ZM496.9 8.69C496.9 9.002 496.882 9.332 496.846 9.68H488.962C489.022 10.652 489.352 11.414 489.952 11.966C490.564 12.506 491.302 12.776 492.166 12.776C492.874 12.776 493.462 12.614 493.93 12.29C494.41 11.954 494.746 11.51 494.938 10.958H496.702C496.438 11.906 495.91 12.68 495.118 13.28C494.326 13.868 493.342 14.162 492.166 14.162C491.23 14.162 490.39 13.952 489.646 13.532C488.914 13.112 488.338 12.518 487.918 11.75C487.498 10.97 487.288 10.07 487.288 9.05C487.288 8.03 487.492 7.136 487.9 6.368C488.308 5.6 488.878 5.012 489.61 4.604C490.354 4.184 491.206 3.974 492.166 3.974C493.102 3.974 493.93 4.178 494.65 4.586C495.37 4.994 495.922 5.558 496.306 6.278C496.702 6.986 496.9 7.79 496.9 8.69ZM495.208 8.348C495.208 7.724 495.07 7.19 494.794 6.746C494.518 6.29 494.14 5.948 493.66 5.72C493.192 5.48 492.67 5.36 492.094 5.36C491.266 5.36 490.558 5.624 489.97 6.152C489.394 6.68 489.064 7.412 488.98 8.348H495.208ZM503.364 14.162C502.44 14.162 501.6 13.952 500.844 13.532C500.1 13.112 499.512 12.518 499.08 11.75C498.66 10.97 498.45 10.07 498.45 9.05C498.45 8.042 498.666 7.154 499.098 6.386C499.542 5.606 500.142 5.012 500.898 4.604C501.654 4.184 502.5 3.974 503.436 3.974C504.372 3.974 505.218 4.184 505.974 4.604C506.73 5.012 507.324 5.6 507.756 6.368C508.2 7.136 508.422 8.03 508.422 9.05C508.422 10.07 508.194 10.97 507.738 11.75C507.294 12.518 506.688 13.112 505.92 13.532C505.152 13.952 504.3 14.162 503.364 14.162ZM503.364 12.722C503.952 12.722 504.504 12.584 505.02 12.308C505.536 12.032 505.95 11.618 506.262 11.066C506.586 10.514 506.748 9.842 506.748 9.05C506.748 8.258 506.592 7.586 506.28 7.034C505.968 6.482 505.56 6.074 505.056 5.81C504.552 5.534 504.006 5.396 503.418 5.396C502.818 5.396 502.266 5.534 501.762 5.81C501.27 6.074 500.874 6.482 500.574 7.034C500.274 7.586 500.124 8.258 500.124 9.05C500.124 9.854 500.268 10.532 500.556 11.084C500.856 11.636 501.252 12.05 501.744 12.326C502.236 12.59 502.776 12.722 503.364 12.722ZM512.213 5.954C512.537 5.39 513.017 4.922 513.653 4.55C514.301 4.166 515.051 3.974 515.903 3.974C516.779 3.974 517.571 4.184 518.279 4.604C518.999 5.024 519.563 5.618 519.971 6.386C520.379 7.142 520.583 8.024 520.583 9.032C520.583 10.028 520.379 10.916 519.971 11.696C519.563 12.476 518.999 13.082 518.279 13.514C517.571 13.946 516.779 14.162 515.903 14.162C515.063 14.162 514.319 13.976 513.671 13.604C513.035 13.22 512.549 12.746 512.213 12.182V18.68H510.575V4.136H512.213V5.954ZM518.909 9.032C518.909 8.288 518.759 7.64 518.459 7.088C518.159 6.536 517.751 6.116 517.235 5.828C516.731 5.54 516.173 5.396 515.561 5.396C514.961 5.396 514.403 5.546 513.887 5.846C513.383 6.134 512.975 6.56 512.663 7.124C512.363 7.676 512.213 8.318 512.213 9.05C512.213 9.794 512.363 10.448 512.663 11.012C512.975 11.564 513.383 11.99 513.887 12.29C514.403 12.578 514.961 12.722 515.561 12.722C516.173 12.722 516.731 12.578 517.235 12.29C517.751 11.99 518.159 11.564 518.459 11.012C518.759 10.448 518.909 9.788 518.909 9.032ZM524.378 0.68V14H522.74V0.68H524.378ZM536.169 8.69C536.169 9.002 536.151 9.332 536.115 9.68H528.231C528.291 10.652 528.621 11.414 529.221 11.966C529.833 12.506 530.571 12.776 531.435 12.776C532.143 12.776 532.731 12.614 533.199 12.29C533.679 11.954 534.015 11.51 534.207 10.958H535.971C535.707 11.906 535.179 12.68 534.387 13.28C533.595 13.868 532.611 14.162 531.435 14.162C530.499 14.162 529.659 13.952 528.915 13.532C528.183 13.112 527.607 12.518 527.187 11.75C526.767 10.97 526.557 10.07 526.557 9.05C526.557 8.03 526.761 7.136 527.169 6.368C527.577 5.6 528.147 5.012 528.879 4.604C529.623 4.184 530.475 3.974 531.435 3.974C532.371 3.974 533.199 4.178 533.919 4.586C534.639 4.994 535.191 5.558 535.575 6.278C535.971 6.986 536.169 7.79 536.169 8.69ZM534.477 8.348C534.477 7.724 534.339 7.19 534.063 6.746C533.787 6.29 533.409 5.948 532.929 5.72C532.461 5.48 531.939 5.36 531.363 5.36C530.535 5.36 529.827 5.624 529.239 6.152C528.663 6.68 528.333 7.412 528.249 8.348H534.477ZM69.5611 36.68V50H67.9231V36.68H69.5611ZM73.1988 38.534C72.8868 38.534 72.6228 38.426 72.4068 38.21C72.1908 37.994 72.0828 37.73 72.0828 37.418C72.0828 37.106 72.1908 36.842 72.4068 36.626C72.6228 36.41 72.8868 36.302 73.1988 36.302C73.4988 36.302 73.7508 36.41 73.9548 36.626C74.1708 36.842 74.2788 37.106 74.2788 37.418C74.2788 37.73 74.1708 37.994 73.9548 38.21C73.7508 38.426 73.4988 38.534 73.1988 38.534ZM73.9908 40.136V50H72.3528V40.136H73.9908ZM80.4545 48.488L83.5145 40.136H85.2605L81.3905 50H79.4825L75.6125 40.136H77.3765L80.4545 48.488ZM87.7183 38.534C87.4063 38.534 87.1423 38.426 86.9263 38.21C86.7103 37.994 86.6023 37.73 86.6023 37.418C86.6023 37.106 86.7103 36.842 86.9263 36.626C87.1423 36.41 87.4063 36.302 87.7183 36.302C88.0183 36.302 88.2703 36.41 88.4743 36.626C88.6903 36.842 88.7983 37.106 88.7983 37.418C88.7983 37.73 88.6903 37.994 88.4743 38.21C88.2703 38.426 88.0183 38.534 87.7183 38.534ZM88.5103 40.136V50H86.8723V40.136H88.5103ZM96.108 39.956C97.308 39.956 98.28 40.322 99.024 41.054C99.768 41.774 100.14 42.818 100.14 44.186V50H98.52V44.42C98.52 43.436 98.274 42.686 97.782 42.17C97.29 41.642 96.618 41.378 95.766 41.378C94.902 41.378 94.212 41.648 93.696 42.188C93.192 42.728 92.94 43.514 92.94 44.546V50H91.302V40.136H92.94V41.54C93.264 41.036 93.702 40.646 94.254 40.37C94.818 40.094 95.436 39.956 96.108 39.956ZM106.884 39.974C107.736 39.974 108.48 40.16 109.116 40.532C109.764 40.904 110.244 41.372 110.556 41.936V40.136H112.212V50.216C112.212 51.116 112.02 51.914 111.636 52.61C111.252 53.318 110.7 53.87 109.98 54.266C109.272 54.662 108.444 54.86 107.496 54.86C106.2 54.86 105.12 54.554 104.256 53.942C103.392 53.33 102.882 52.496 102.726 51.44H104.346C104.526 52.04 104.898 52.52 105.462 52.88C106.026 53.252 106.704 53.438 107.496 53.438C108.396 53.438 109.128 53.156 109.692 52.592C110.268 52.028 110.556 51.236 110.556 50.216V48.146C110.232 48.722 109.752 49.202 109.116 49.586C108.48 49.97 107.736 50.162 106.884 50.162C106.008 50.162 105.21 49.946 104.49 49.514C103.782 49.082 103.224 48.476 102.816 47.696C102.408 46.916 102.204 46.028 102.204 45.032C102.204 44.024 102.408 43.142 102.816 42.386C103.224 41.618 103.782 41.024 104.49 40.604C105.21 40.184 106.008 39.974 106.884 39.974ZM110.556 45.05C110.556 44.306 110.406 43.658 110.106 43.106C109.806 42.554 109.398 42.134 108.882 41.846C108.378 41.546 107.82 41.396 107.208 41.396C106.596 41.396 106.038 41.54 105.534 41.828C105.03 42.116 104.628 42.536 104.328 43.088C104.028 43.64 103.878 44.288 103.878 45.032C103.878 45.788 104.028 46.448 104.328 47.012C104.628 47.564 105.03 47.99 105.534 48.29C106.038 48.578 106.596 48.722 107.208 48.722C107.82 48.722 108.378 48.578 108.882 48.29C109.398 47.99 109.806 47.564 110.106 47.012C110.406 46.448 110.556 45.794 110.556 45.05ZM120.625 38.534C120.313 38.534 120.049 38.426 119.833 38.21C119.617 37.994 119.509 37.73 119.509 37.418C119.509 37.106 119.617 36.842 119.833 36.626C120.049 36.41 120.313 36.302 120.625 36.302C120.925 36.302 121.177 36.41 121.381 36.626C121.597 36.842 121.705 37.106 121.705 37.418C121.705 37.73 121.597 37.994 121.381 38.21C121.177 38.426 120.925 38.534 120.625 38.534ZM121.417 40.136V50H119.779V40.136H121.417ZM129.014 39.956C130.214 39.956 131.186 40.322 131.93 41.054C132.674 41.774 133.046 42.818 133.046 44.186V50H131.426V44.42C131.426 43.436 131.18 42.686 130.688 42.17C130.196 41.642 129.524 41.378 128.672 41.378C127.808 41.378 127.118 41.648 126.602 42.188C126.098 42.728 125.846 43.514 125.846 44.546V50H124.208V40.136H125.846V41.54C126.17 41.036 126.608 40.646 127.16 40.37C127.724 40.094 128.342 39.956 129.014 39.956ZM139.909 45.032C139.909 44.024 140.113 43.142 140.521 42.386C140.929 41.618 141.487 41.024 142.195 40.604C142.915 40.184 143.713 39.974 144.589 39.974C145.453 39.974 146.203 40.16 146.839 40.532C147.475 40.904 147.949 41.372 148.261 41.936V40.136H149.917V50H148.261V48.164C147.937 48.74 147.451 49.22 146.803 49.604C146.167 49.976 145.423 50.162 144.571 50.162C143.695 50.162 142.903 49.946 142.195 49.514C141.487 49.082 140.929 48.476 140.521 47.696C140.113 46.916 139.909 46.028 139.909 45.032ZM148.261 45.05C148.261 44.306 148.111 43.658 147.811 43.106C147.511 42.554 147.103 42.134 146.587 41.846C146.083 41.546 145.525 41.396 144.913 41.396C144.301 41.396 143.743 41.54 143.239 41.828C142.735 42.116 142.333 42.536 142.033 43.088C141.733 43.64 141.583 44.288 141.583 45.032C141.583 45.788 141.733 46.448 142.033 47.012C142.333 47.564 142.735 47.99 143.239 48.29C143.743 48.578 144.301 48.722 144.913 48.722C145.525 48.722 146.083 48.578 146.587 48.29C147.103 47.99 147.511 47.564 147.811 47.012C148.111 46.448 148.261 45.794 148.261 45.05ZM162.38 39.956C163.124 39.956 163.796 40.118 164.396 40.442C164.996 40.754 165.464 41.228 165.8 41.864C166.148 42.5 166.322 43.274 166.322 44.186V50H164.702V44.42C164.702 43.436 164.456 42.686 163.964 42.17C163.472 41.642 162.8 41.378 161.948 41.378C161.084 41.378 160.394 41.648 159.878 42.188C159.374 42.728 159.122 43.514 159.122 44.546V50H157.484V36.68H159.122V41.54C159.446 41.036 159.89 40.646 160.454 40.37C161.03 40.094 161.672 39.956 162.38 39.956ZM173.299 50.162C172.375 50.162 171.535 49.952 170.779 49.532C170.035 49.112 169.447 48.518 169.015 47.75C168.595 46.97 168.385 46.07 168.385 45.05C168.385 44.042 168.601 43.154 169.033 42.386C169.477 41.606 170.077 41.012 170.833 40.604C171.589 40.184 172.435 39.974 173.371 39.974C174.307 39.974 175.153 40.184 175.909 40.604C176.665 41.012 177.259 41.6 177.691 42.368C178.135 43.136 178.357 44.03 178.357 45.05C178.357 46.07 178.129 46.97 177.673 47.75C177.229 48.518 176.623 49.112 175.855 49.532C175.087 49.952 174.235 50.162 173.299 50.162ZM173.299 48.722C173.887 48.722 174.439 48.584 174.955 48.308C175.471 48.032 175.885 47.618 176.197 47.066C176.521 46.514 176.683 45.842 176.683 45.05C176.683 44.258 176.527 43.586 176.215 43.034C175.903 42.482 175.495 42.074 174.991 41.81C174.487 41.534 173.941 41.396 173.353 41.396C172.753 41.396 172.201 41.534 171.697 41.81C171.205 42.074 170.809 42.482 170.509 43.034C170.209 43.586 170.059 44.258 170.059 45.05C170.059 45.854 170.203 46.532 170.491 47.084C170.791 47.636 171.187 48.05 171.679 48.326C172.171 48.59 172.711 48.722 173.299 48.722ZM192.373 39.956C193.141 39.956 193.825 40.118 194.425 40.442C195.025 40.754 195.499 41.228 195.847 41.864C196.195 42.5 196.369 43.274 196.369 44.186V50H194.749V44.42C194.749 43.436 194.503 42.686 194.011 42.17C193.531 41.642 192.877 41.378 192.049 41.378C191.197 41.378 190.519 41.654 190.015 42.206C189.511 42.746 189.259 43.532 189.259 44.564V50H187.639V44.42C187.639 43.436 187.393 42.686 186.901 42.17C186.421 41.642 185.767 41.378 184.939 41.378C184.087 41.378 183.409 41.654 182.905 42.206C182.401 42.746 182.149 43.532 182.149 44.564V50H180.511V40.136H182.149V41.558C182.473 41.042 182.905 40.646 183.445 40.37C183.997 40.094 184.603 39.956 185.263 39.956C186.091 39.956 186.823 40.142 187.459 40.514C188.095 40.886 188.569 41.432 188.881 42.152C189.157 41.456 189.613 40.916 190.249 40.532C190.885 40.148 191.593 39.956 192.373 39.956ZM208.056 44.69C208.056 45.002 208.038 45.332 208.002 45.68H200.118C200.178 46.652 200.508 47.414 201.108 47.966C201.72 48.506 202.458 48.776 203.322 48.776C204.03 48.776 204.618 48.614 205.086 48.29C205.566 47.954 205.902 47.51 206.094 46.958H207.858C207.594 47.906 207.066 48.68 206.274 49.28C205.482 49.868 204.498 50.162 203.322 50.162C202.386 50.162 201.546 49.952 200.802 49.532C200.07 49.112 199.494 48.518 199.074 47.75C198.654 46.97 198.444 46.07 198.444 45.05C198.444 44.03 198.648 43.136 199.056 42.368C199.464 41.6 200.034 41.012 200.766 40.604C201.51 40.184 202.362 39.974 203.322 39.974C204.258 39.974 205.086 40.178 205.806 40.586C206.526 40.994 207.078 41.558 207.462 42.278C207.858 42.986 208.056 43.79 208.056 44.69ZM206.364 44.348C206.364 43.724 206.226 43.19 205.95 42.746C205.674 42.29 205.296 41.948 204.816 41.72C204.348 41.48 203.826 41.36 203.25 41.36C202.422 41.36 201.714 41.624 201.126 42.152C200.55 42.68 200.22 43.412 200.136 44.348H206.364ZM215.863 38.534C215.551 38.534 215.287 38.426 215.071 38.21C214.855 37.994 214.747 37.73 214.747 37.418C214.747 37.106 214.855 36.842 215.071 36.626C215.287 36.41 215.551 36.302 215.863 36.302C216.163 36.302 216.415 36.41 216.619 36.626C216.835 36.842 216.943 37.106 216.943 37.418C216.943 37.73 216.835 37.994 216.619 38.21C216.415 38.426 216.163 38.534 215.863 38.534ZM216.655 40.136V50H215.017V40.136H216.655ZM222.939 50.162C222.183 50.162 221.505 50.036 220.905 49.784C220.305 49.52 219.831 49.16 219.483 48.704C219.135 48.236 218.943 47.702 218.907 47.102H220.599C220.647 47.594 220.875 47.996 221.283 48.308C221.703 48.62 222.249 48.776 222.921 48.776C223.545 48.776 224.037 48.638 224.397 48.362C224.757 48.086 224.937 47.738 224.937 47.318C224.937 46.886 224.745 46.568 224.361 46.364C223.977 46.148 223.383 45.938 222.579 45.734C221.847 45.542 221.247 45.35 220.779 45.158C220.323 44.954 219.927 44.66 219.591 44.276C219.267 43.88 219.105 43.364 219.105 42.728C219.105 42.224 219.255 41.762 219.555 41.342C219.855 40.922 220.281 40.592 220.833 40.352C221.385 40.1 222.015 39.974 222.723 39.974C223.815 39.974 224.697 40.25 225.369 40.802C226.041 41.354 226.401 42.11 226.449 43.07H224.811C224.775 42.554 224.565 42.14 224.181 41.828C223.809 41.516 223.305 41.36 222.669 41.36C222.081 41.36 221.613 41.486 221.265 41.738C220.917 41.99 220.743 42.32 220.743 42.728C220.743 43.052 220.845 43.322 221.049 43.538C221.265 43.742 221.529 43.91 221.841 44.042C222.165 44.162 222.609 44.3 223.173 44.456C223.881 44.648 224.457 44.84 224.901 45.032C225.345 45.212 225.723 45.488 226.035 45.86C226.359 46.232 226.527 46.718 226.539 47.318C226.539 47.858 226.389 48.344 226.089 48.776C225.789 49.208 225.363 49.55 224.811 49.802C224.271 50.042 223.647 50.162 222.939 50.162ZM237.664 41.486H235.594V50H233.956V41.486H232.678V40.136H233.956V39.434C233.956 38.33 234.238 37.526 234.802 37.022C235.378 36.506 236.296 36.248 237.556 36.248V37.616C236.836 37.616 236.326 37.76 236.026 38.048C235.738 38.324 235.594 38.786 235.594 39.434V40.136H237.664V41.486ZM238.962 45.032C238.962 44.024 239.166 43.142 239.574 42.386C239.982 41.618 240.54 41.024 241.248 40.604C241.968 40.184 242.766 39.974 243.642 39.974C244.506 39.974 245.256 40.16 245.892 40.532C246.528 40.904 247.002 41.372 247.314 41.936V40.136H248.97V50H247.314V48.164C246.99 48.74 246.504 49.22 245.856 49.604C245.22 49.976 244.476 50.162 243.624 50.162C242.748 50.162 241.956 49.946 241.248 49.514C240.54 49.082 239.982 48.476 239.574 47.696C239.166 46.916 238.962 46.028 238.962 45.032ZM247.314 45.05C247.314 44.306 247.164 43.658 246.864 43.106C246.564 42.554 246.156 42.134 245.64 41.846C245.136 41.546 244.578 41.396 243.966 41.396C243.354 41.396 242.796 41.54 242.292 41.828C241.788 42.116 241.386 42.536 241.086 43.088C240.786 43.64 240.636 44.288 240.636 45.032C240.636 45.788 240.786 46.448 241.086 47.012C241.386 47.564 241.788 47.99 242.292 48.29C242.796 48.578 243.354 48.722 243.966 48.722C244.578 48.722 245.136 48.578 245.64 48.29C246.156 47.99 246.564 47.564 246.864 47.012C247.164 46.448 247.314 45.794 247.314 45.05ZM253.376 41.738C253.664 41.174 254.072 40.736 254.6 40.424C255.14 40.112 255.794 39.956 256.562 39.956V41.648H256.13C254.294 41.648 253.376 42.644 253.376 44.636V50H251.738V40.136H253.376V41.738ZM267.319 39.974C268.171 39.974 268.915 40.16 269.551 40.532C270.199 40.904 270.679 41.372 270.991 41.936V40.136H272.647V50.216C272.647 51.116 272.455 51.914 272.071 52.61C271.687 53.318 271.135 53.87 270.415 54.266C269.707 54.662 268.879 54.86 267.931 54.86C266.635 54.86 265.555 54.554 264.691 53.942C263.827 53.33 263.317 52.496 263.161 51.44H264.781C264.961 52.04 265.333 52.52 265.897 52.88C266.461 53.252 267.139 53.438 267.931 53.438C268.831 53.438 269.563 53.156 270.127 52.592C270.703 52.028 270.991 51.236 270.991 50.216V48.146C270.667 48.722 270.187 49.202 269.551 49.586C268.915 49.97 268.171 50.162 267.319 50.162C266.443 50.162 265.645 49.946 264.925 49.514C264.217 49.082 263.659 48.476 263.251 47.696C262.843 46.916 262.639 46.028 262.639 45.032C262.639 44.024 262.843 43.142 263.251 42.386C263.659 41.618 264.217 41.024 264.925 40.604C265.645 40.184 266.443 39.974 267.319 39.974ZM270.991 45.05C270.991 44.306 270.841 43.658 270.541 43.106C270.241 42.554 269.833 42.134 269.317 41.846C268.813 41.546 268.255 41.396 267.643 41.396C267.031 41.396 266.473 41.54 265.969 41.828C265.465 42.116 265.063 42.536 264.763 43.088C264.463 43.64 264.313 44.288 264.313 45.032C264.313 45.788 264.463 46.448 264.763 47.012C265.063 47.564 265.465 47.99 265.969 48.29C266.473 48.578 267.031 48.722 267.643 48.722C268.255 48.722 268.813 48.578 269.317 48.29C269.833 47.99 270.241 47.564 270.541 47.012C270.841 46.448 270.991 45.794 270.991 45.05ZM277.053 41.738C277.341 41.174 277.749 40.736 278.277 40.424C278.817 40.112 279.471 39.956 280.239 39.956V41.648H279.807C277.971 41.648 277.053 42.644 277.053 44.636V50H275.415V40.136H277.053V41.738ZM291.13 44.69C291.13 45.002 291.112 45.332 291.076 45.68H283.192C283.252 46.652 283.582 47.414 284.182 47.966C284.794 48.506 285.532 48.776 286.396 48.776C287.104 48.776 287.692 48.614 288.16 48.29C288.64 47.954 288.976 47.51 289.168 46.958H290.932C290.668 47.906 290.14 48.68 289.348 49.28C288.556 49.868 287.572 50.162 286.396 50.162C285.46 50.162 284.62 49.952 283.876 49.532C283.144 49.112 282.568 48.518 282.148 47.75C281.728 46.97 281.518 46.07 281.518 45.05C281.518 44.03 281.722 43.136 282.13 42.368C282.538 41.6 283.108 41.012 283.84 40.604C284.584 40.184 285.436 39.974 286.396 39.974C287.332 39.974 288.16 40.178 288.88 40.586C289.6 40.994 290.152 41.558 290.536 42.278C290.932 42.986 291.13 43.79 291.13 44.69ZM289.438 44.348C289.438 43.724 289.3 43.19 289.024 42.746C288.748 42.29 288.37 41.948 287.89 41.72C287.422 41.48 286.9 41.36 286.324 41.36C285.496 41.36 284.788 41.624 284.2 42.152C283.624 42.68 283.294 43.412 283.21 44.348H289.438ZM292.68 45.032C292.68 44.024 292.884 43.142 293.292 42.386C293.7 41.618 294.258 41.024 294.966 40.604C295.686 40.184 296.484 39.974 297.36 39.974C298.224 39.974 298.974 40.16 299.61 40.532C300.246 40.904 300.72 41.372 301.032 41.936V40.136H302.688V50H301.032V48.164C300.708 48.74 300.222 49.22 299.574 49.604C298.938 49.976 298.194 50.162 297.342 50.162C296.466 50.162 295.674 49.946 294.966 49.514C294.258 49.082 293.7 48.476 293.292 47.696C292.884 46.916 292.68 46.028 292.68 45.032ZM301.032 45.05C301.032 44.306 300.882 43.658 300.582 43.106C300.282 42.554 299.874 42.134 299.358 41.846C298.854 41.546 298.296 41.396 297.684 41.396C297.072 41.396 296.514 41.54 296.01 41.828C295.506 42.116 295.104 42.536 294.804 43.088C294.504 43.64 294.354 44.288 294.354 45.032C294.354 45.788 294.504 46.448 294.804 47.012C295.104 47.564 295.506 47.99 296.01 48.29C296.514 48.578 297.072 48.722 297.684 48.722C298.296 48.722 298.854 48.578 299.358 48.29C299.874 47.99 300.282 47.564 300.582 47.012C300.882 46.448 301.032 45.794 301.032 45.05ZM307.454 41.486V47.3C307.454 47.78 307.556 48.122 307.76 48.326C307.964 48.518 308.318 48.614 308.822 48.614H310.028V50H308.552C307.64 50 306.956 49.79 306.5 49.37C306.044 48.95 305.816 48.26 305.816 47.3V41.486H304.538V40.136H305.816V37.652H307.454V40.136H310.028V41.486H307.454ZM321.013 44.69C321.013 45.002 320.995 45.332 320.959 45.68H313.075C313.135 46.652 313.465 47.414 314.065 47.966C314.677 48.506 315.415 48.776 316.279 48.776C316.987 48.776 317.575 48.614 318.043 48.29C318.523 47.954 318.859 47.51 319.051 46.958H320.815C320.551 47.906 320.023 48.68 319.231 49.28C318.439 49.868 317.455 50.162 316.279 50.162C315.343 50.162 314.503 49.952 313.759 49.532C313.027 49.112 312.451 48.518 312.031 47.75C311.611 46.97 311.401 46.07 311.401 45.05C311.401 44.03 311.605 43.136 312.013 42.368C312.421 41.6 312.991 41.012 313.723 40.604C314.467 40.184 315.319 39.974 316.279 39.974C317.215 39.974 318.043 40.178 318.763 40.586C319.483 40.994 320.035 41.558 320.419 42.278C320.815 42.986 321.013 43.79 321.013 44.69ZM319.321 44.348C319.321 43.724 319.183 43.19 318.907 42.746C318.631 42.29 318.253 41.948 317.773 41.72C317.305 41.48 316.783 41.36 316.207 41.36C315.379 41.36 314.671 41.624 314.083 42.152C313.507 42.68 313.177 43.412 313.093 44.348H319.321ZM324.813 41.738C325.101 41.174 325.509 40.736 326.037 40.424C326.577 40.112 327.231 39.956 327.999 39.956V41.648H327.567C325.731 41.648 324.813 42.644 324.813 44.636V50H323.175V40.136H324.813V41.738ZM339.495 39.956C340.695 39.956 341.667 40.322 342.411 41.054C343.155 41.774 343.527 42.818 343.527 44.186V50H341.907V44.42C341.907 43.436 341.661 42.686 341.169 42.17C340.677 41.642 340.005 41.378 339.153 41.378C338.289 41.378 337.599 41.648 337.083 42.188C336.579 42.728 336.327 43.514 336.327 44.546V50H334.689V40.136H336.327V41.54C336.651 41.036 337.089 40.646 337.641 40.37C338.205 40.094 338.823 39.956 339.495 39.956ZM355.202 44.69C355.202 45.002 355.184 45.332 355.148 45.68H347.264C347.324 46.652 347.654 47.414 348.254 47.966C348.866 48.506 349.604 48.776 350.468 48.776C351.176 48.776 351.764 48.614 352.232 48.29C352.712 47.954 353.048 47.51 353.24 46.958H355.004C354.74 47.906 354.212 48.68 353.42 49.28C352.628 49.868 351.644 50.162 350.468 50.162C349.532 50.162 348.692 49.952 347.948 49.532C347.216 49.112 346.64 48.518 346.22 47.75C345.8 46.97 345.59 46.07 345.59 45.05C345.59 44.03 345.794 43.136 346.202 42.368C346.61 41.6 347.18 41.012 347.912 40.604C348.656 40.184 349.508 39.974 350.468 39.974C351.404 39.974 352.232 40.178 352.952 40.586C353.672 40.994 354.224 41.558 354.608 42.278C355.004 42.986 355.202 43.79 355.202 44.69ZM353.51 44.348C353.51 43.724 353.372 43.19 353.096 42.746C352.82 42.29 352.442 41.948 351.962 41.72C351.494 41.48 350.972 41.36 350.396 41.36C349.568 41.36 348.86 41.624 348.272 42.152C347.696 42.68 347.366 43.412 347.282 44.348H353.51ZM366.365 44.69C366.365 45.002 366.347 45.332 366.311 45.68H358.427C358.487 46.652 358.817 47.414 359.417 47.966C360.029 48.506 360.767 48.776 361.631 48.776C362.339 48.776 362.927 48.614 363.395 48.29C363.875 47.954 364.211 47.51 364.403 46.958H366.167C365.903 47.906 365.375 48.68 364.583 49.28C363.791 49.868 362.807 50.162 361.631 50.162C360.695 50.162 359.855 49.952 359.111 49.532C358.379 49.112 357.803 48.518 357.383 47.75C356.963 46.97 356.753 46.07 356.753 45.05C356.753 44.03 356.957 43.136 357.365 42.368C357.773 41.6 358.343 41.012 359.075 40.604C359.819 40.184 360.671 39.974 361.631 39.974C362.567 39.974 363.395 40.178 364.115 40.586C364.835 40.994 365.387 41.558 365.771 42.278C366.167 42.986 366.365 43.79 366.365 44.69ZM364.673 44.348C364.673 43.724 364.535 43.19 364.259 42.746C363.983 42.29 363.605 41.948 363.125 41.72C362.657 41.48 362.135 41.36 361.559 41.36C360.731 41.36 360.023 41.624 359.435 42.152C358.859 42.68 358.529 43.412 358.445 44.348H364.673ZM367.915 45.032C367.915 44.024 368.119 43.142 368.527 42.386C368.935 41.618 369.493 41.024 370.201 40.604C370.921 40.184 371.725 39.974 372.613 39.974C373.381 39.974 374.095 40.154 374.755 40.514C375.415 40.862 375.919 41.324 376.267 41.9V36.68H377.923V50H376.267V48.146C375.943 48.734 375.463 49.22 374.827 49.604C374.191 49.976 373.447 50.162 372.595 50.162C371.719 50.162 370.921 49.946 370.201 49.514C369.493 49.082 368.935 48.476 368.527 47.696C368.119 46.916 367.915 46.028 367.915 45.032ZM376.267 45.05C376.267 44.306 376.117 43.658 375.817 43.106C375.517 42.554 375.109 42.134 374.593 41.846C374.089 41.546 373.531 41.396 372.919 41.396C372.307 41.396 371.749 41.54 371.245 41.828C370.741 42.116 370.339 42.536 370.039 43.088C369.739 43.64 369.589 44.288 369.589 45.032C369.589 45.788 369.739 46.448 370.039 47.012C370.339 47.564 370.741 47.99 371.245 48.29C371.749 48.578 372.307 48.722 372.919 48.722C373.531 48.722 374.089 48.578 374.593 48.29C375.109 47.99 375.517 47.564 375.817 47.012C376.117 46.448 376.267 45.794 376.267 45.05ZM386.336 38.534C386.024 38.534 385.76 38.426 385.544 38.21C385.328 37.994 385.22 37.73 385.22 37.418C385.22 37.106 385.328 36.842 385.544 36.626C385.76 36.41 386.024 36.302 386.336 36.302C386.636 36.302 386.888 36.41 387.092 36.626C387.308 36.842 387.416 37.106 387.416 37.418C387.416 37.73 387.308 37.994 387.092 38.21C386.888 38.426 386.636 38.534 386.336 38.534ZM387.128 40.136V50H385.49V40.136H387.128ZM394.725 39.956C395.925 39.956 396.897 40.322 397.641 41.054C398.385 41.774 398.757 42.818 398.757 44.186V50H397.137V44.42C397.137 43.436 396.891 42.686 396.399 42.17C395.907 41.642 395.235 41.378 394.383 41.378C393.519 41.378 392.829 41.648 392.313 42.188C391.809 42.728 391.557 43.514 391.557 44.546V50H389.919V40.136H391.557V41.54C391.881 41.036 392.319 40.646 392.871 40.37C393.435 40.094 394.053 39.956 394.725 39.956ZM405.62 45.032C405.62 44.024 405.824 43.142 406.232 42.386C406.64 41.618 407.198 41.024 407.906 40.604C408.626 40.184 409.43 39.974 410.318 39.974C411.086 39.974 411.8 40.154 412.46 40.514C413.12 40.862 413.624 41.324 413.972 41.9V36.68H415.628V50H413.972V48.146C413.648 48.734 413.168 49.22 412.532 49.604C411.896 49.976 411.152 50.162 410.3 50.162C409.424 50.162 408.626 49.946 407.906 49.514C407.198 49.082 406.64 48.476 406.232 47.696C405.824 46.916 405.62 46.028 405.62 45.032ZM413.972 45.05C413.972 44.306 413.822 43.658 413.522 43.106C413.222 42.554 412.814 42.134 412.298 41.846C411.794 41.546 411.236 41.396 410.624 41.396C410.012 41.396 409.454 41.54 408.95 41.828C408.446 42.116 408.044 42.536 407.744 43.088C407.444 43.64 407.294 44.288 407.294 45.032C407.294 45.788 407.444 46.448 407.744 47.012C408.044 47.564 408.446 47.99 408.95 48.29C409.454 48.578 410.012 48.722 410.624 48.722C411.236 48.722 411.794 48.578 412.298 48.29C412.814 47.99 413.222 47.564 413.522 47.012C413.822 46.448 413.972 45.794 413.972 45.05ZM427.396 44.69C427.396 45.002 427.378 45.332 427.342 45.68H419.458C419.518 46.652 419.848 47.414 420.448 47.966C421.06 48.506 421.798 48.776 422.662 48.776C423.37 48.776 423.958 48.614 424.426 48.29C424.906 47.954 425.242 47.51 425.434 46.958H427.198C426.934 47.906 426.406 48.68 425.614 49.28C424.822 49.868 423.838 50.162 422.662 50.162C421.726 50.162 420.886 49.952 420.142 49.532C419.41 49.112 418.834 48.518 418.414 47.75C417.994 46.97 417.784 46.07 417.784 45.05C417.784 44.03 417.988 43.136 418.396 42.368C418.804 41.6 419.374 41.012 420.106 40.604C420.85 40.184 421.702 39.974 422.662 39.974C423.598 39.974 424.426 40.178 425.146 40.586C425.866 40.994 426.418 41.558 426.802 42.278C427.198 42.986 427.396 43.79 427.396 44.69ZM425.704 44.348C425.704 43.724 425.566 43.19 425.29 42.746C425.014 42.29 424.636 41.948 424.156 41.72C423.688 41.48 423.166 41.36 422.59 41.36C421.762 41.36 421.054 41.624 420.466 42.152C419.89 42.68 419.56 43.412 419.476 44.348H425.704ZM433.05 50.162C432.294 50.162 431.616 50.036 431.016 49.784C430.416 49.52 429.942 49.16 429.594 48.704C429.246 48.236 429.054 47.702 429.018 47.102H430.71C430.758 47.594 430.986 47.996 431.394 48.308C431.814 48.62 432.36 48.776 433.032 48.776C433.656 48.776 434.148 48.638 434.508 48.362C434.868 48.086 435.048 47.738 435.048 47.318C435.048 46.886 434.856 46.568 434.472 46.364C434.088 46.148 433.494 45.938 432.69 45.734C431.958 45.542 431.358 45.35 430.89 45.158C430.434 44.954 430.038 44.66 429.702 44.276C429.378 43.88 429.216 43.364 429.216 42.728C429.216 42.224 429.366 41.762 429.666 41.342C429.966 40.922 430.392 40.592 430.944 40.352C431.496 40.1 432.126 39.974 432.834 39.974C433.926 39.974 434.808 40.25 435.48 40.802C436.152 41.354 436.512 42.11 436.56 43.07H434.922C434.886 42.554 434.676 42.14 434.292 41.828C433.92 41.516 433.416 41.36 432.78 41.36C432.192 41.36 431.724 41.486 431.376 41.738C431.028 41.99 430.854 42.32 430.854 42.728C430.854 43.052 430.956 43.322 431.16 43.538C431.376 43.742 431.64 43.91 431.952 44.042C432.276 44.162 432.72 44.3 433.284 44.456C433.992 44.648 434.568 44.84 435.012 45.032C435.456 45.212 435.834 45.488 436.146 45.86C436.47 46.232 436.638 46.718 436.65 47.318C436.65 47.858 436.5 48.344 436.2 48.776C435.9 49.208 435.474 49.55 434.922 49.802C434.382 50.042 433.758 50.162 433.05 50.162ZM439.808 38.534C439.496 38.534 439.232 38.426 439.016 38.21C438.8 37.994 438.692 37.73 438.692 37.418C438.692 37.106 438.8 36.842 439.016 36.626C439.232 36.41 439.496 36.302 439.808 36.302C440.108 36.302 440.36 36.41 440.564 36.626C440.78 36.842 440.888 37.106 440.888 37.418C440.888 37.73 440.78 37.994 440.564 38.21C440.36 38.426 440.108 38.534 439.808 38.534ZM440.6 40.136V50H438.962V40.136H440.6ZM447.46 39.974C448.312 39.974 449.056 40.16 449.692 40.532C450.34 40.904 450.82 41.372 451.132 41.936V40.136H452.788V50.216C452.788 51.116 452.596 51.914 452.212 52.61C451.828 53.318 451.276 53.87 450.556 54.266C449.848 54.662 449.02 54.86 448.072 54.86C446.776 54.86 445.696 54.554 444.832 53.942C443.968 53.33 443.458 52.496 443.302 51.44H444.922C445.102 52.04 445.474 52.52 446.038 52.88C446.602 53.252 447.28 53.438 448.072 53.438C448.972 53.438 449.704 53.156 450.268 52.592C450.844 52.028 451.132 51.236 451.132 50.216V48.146C450.808 48.722 450.328 49.202 449.692 49.586C449.056 49.97 448.312 50.162 447.46 50.162C446.584 50.162 445.786 49.946 445.066 49.514C444.358 49.082 443.8 48.476 443.392 47.696C442.984 46.916 442.78 46.028 442.78 45.032C442.78 44.024 442.984 43.142 443.392 42.386C443.8 41.618 444.358 41.024 445.066 40.604C445.786 40.184 446.584 39.974 447.46 39.974ZM451.132 45.05C451.132 44.306 450.982 43.658 450.682 43.106C450.382 42.554 449.974 42.134 449.458 41.846C448.954 41.546 448.396 41.396 447.784 41.396C447.172 41.396 446.614 41.54 446.11 41.828C445.606 42.116 445.204 42.536 444.904 43.088C444.604 43.64 444.454 44.288 444.454 45.032C444.454 45.788 444.604 46.448 444.904 47.012C445.204 47.564 445.606 47.99 446.11 48.29C446.614 48.578 447.172 48.722 447.784 48.722C448.396 48.722 448.954 48.578 449.458 48.29C449.974 47.99 450.382 47.564 450.682 47.012C450.982 46.448 451.132 45.794 451.132 45.05ZM460.362 39.956C461.562 39.956 462.534 40.322 463.278 41.054C464.022 41.774 464.394 42.818 464.394 44.186V50H462.774V44.42C462.774 43.436 462.528 42.686 462.036 42.17C461.544 41.642 460.872 41.378 460.02 41.378C459.156 41.378 458.466 41.648 457.95 42.188C457.446 42.728 457.194 43.514 457.194 44.546V50H455.556V40.136H457.194V41.54C457.518 41.036 457.956 40.646 458.508 40.37C459.072 40.094 459.69 39.956 460.362 39.956ZM467.592 50.108C467.28 50.108 467.016 50 466.8 49.784C466.584 49.568 466.476 49.304 466.476 48.992C466.476 48.68 466.584 48.416 466.8 48.2C467.016 47.984 467.28 47.876 467.592 47.876C467.892 47.876 468.144 47.984 468.348 48.2C468.564 48.416 468.672 48.68 468.672 48.992C468.672 49.304 468.564 49.568 468.348 49.784C468.144 50 467.892 50.108 467.592 50.108Z" fill="white"/>
</svg>
