<svg width="461" height="27" viewBox="0 0 461 27" fill="none" xmlns="http://www.w3.org/2000/svg">
<path d="M8.478 7.454V8.786H3.024V13.016H7.452V14.348H3.024V20H1.386V7.454H8.478ZM19.2043 10.136V20H17.5663V18.542C17.2543 19.046 16.8163 19.442 16.2523 19.73C15.7003 20.006 15.0883 20.144 14.4163 20.144C13.6483 20.144 12.9583 19.988 12.3463 19.676C11.7343 19.352 11.2483 18.872 10.8883 18.236C10.5403 17.6 10.3663 16.826 10.3663 15.914V10.136H11.9863V15.698C11.9863 16.67 12.2323 17.42 12.7243 17.948C13.2163 18.464 13.8883 18.722 14.7403 18.722C15.6163 18.722 16.3063 18.452 16.8103 17.912C17.3143 17.372 17.5663 16.586 17.5663 15.554V10.136H19.2043ZM23.608 11.738C23.896 11.174 24.304 10.736 24.832 10.424C25.372 10.112 26.026 9.956 26.794 9.956V11.648H26.362C24.526 11.648 23.608 12.644 23.608 14.636V20H21.97V10.136H23.608V11.738ZM33.4908 9.956C34.6908 9.956 35.6628 10.322 36.4068 11.054C37.1508 11.774 37.5228 12.818 37.5228 14.186V20H35.9028V14.42C35.9028 13.436 35.6568 12.686 35.1648 12.17C34.6728 11.642 34.0008 11.378 33.1488 11.378C32.2848 11.378 31.5948 11.648 31.0788 12.188C30.5748 12.728 30.3228 13.514 30.3228 14.546V20H28.6848V10.136H30.3228V11.54C30.6468 11.036 31.0848 10.646 31.6368 10.37C32.2008 10.094 32.8188 9.956 33.4908 9.956ZM41.0445 8.534C40.7325 8.534 40.4685 8.426 40.2525 8.21C40.0365 7.994 39.9285 7.73 39.9285 7.418C39.9285 7.106 40.0365 6.842 40.2525 6.626C40.4685 6.41 40.7325 6.302 41.0445 6.302C41.3445 6.302 41.5965 6.41 41.8005 6.626C42.0165 6.842 42.1245 7.106 42.1245 7.418C42.1245 7.73 42.0165 7.994 41.8005 8.21C41.5965 8.426 41.3445 8.534 41.0445 8.534ZM41.8365 10.136V20H40.1985V10.136H41.8365ZM46.6262 11.486V17.3C46.6262 17.78 46.7282 18.122 46.9322 18.326C47.1362 18.518 47.4902 18.614 47.9942 18.614H49.2002V20H47.7242C46.8122 20 46.1282 19.79 45.6722 19.37C45.2162 18.95 44.9882 18.26 44.9882 17.3V11.486H43.7102V10.136H44.9882V7.652H46.6262V10.136H49.2002V11.486H46.6262ZM59.9328 10.136V20H58.2948V18.542C57.9828 19.046 57.5448 19.442 56.9808 19.73C56.4288 20.006 55.8168 20.144 55.1448 20.144C54.3768 20.144 53.6868 19.988 53.0748 19.676C52.4628 19.352 51.9768 18.872 51.6168 18.236C51.2688 17.6 51.0948 16.826 51.0948 15.914V10.136H52.7148V15.698C52.7148 16.67 52.9608 17.42 53.4528 17.948C53.9448 18.464 54.6168 18.722 55.4688 18.722C56.3448 18.722 57.0348 18.452 57.5388 17.912C58.0428 17.372 58.2948 16.586 58.2948 15.554V10.136H59.9328ZM64.3365 11.738C64.6245 11.174 65.0325 10.736 65.5605 10.424C66.1005 10.112 66.7545 9.956 67.5225 9.956V11.648H67.0905C65.2545 11.648 64.3365 12.644 64.3365 14.636V20H62.6985V10.136H64.3365V11.738ZM78.4133 14.69C78.4133 15.002 78.3953 15.332 78.3593 15.68H70.4753C70.5353 16.652 70.8653 17.414 71.4653 17.966C72.0773 18.506 72.8153 18.776 73.6793 18.776C74.3873 18.776 74.9753 18.614 75.4433 18.29C75.9233 17.954 76.2593 17.51 76.4513 16.958H78.2153C77.9513 17.906 77.4233 18.68 76.6313 19.28C75.8393 19.868 74.8553 20.162 73.6793 20.162C72.7433 20.162 71.9033 19.952 71.1593 19.532C70.4273 19.112 69.8513 18.518 69.4313 17.75C69.0113 16.97 68.8013 16.07 68.8013 15.05C68.8013 14.03 69.0053 13.136 69.4133 12.368C69.8213 11.6 70.3913 11.012 71.1233 10.604C71.8673 10.184 72.7193 9.974 73.6793 9.974C74.6153 9.974 75.4433 10.178 76.1633 10.586C76.8833 10.994 77.4353 11.558 77.8193 12.278C78.2153 12.986 78.4133 13.79 78.4133 14.69ZM76.7213 14.348C76.7213 13.724 76.5833 13.19 76.3073 12.746C76.0313 12.29 75.6533 11.948 75.1733 11.72C74.7053 11.48 74.1833 11.36 73.6073 11.36C72.7793 11.36 72.0713 11.624 71.4833 12.152C70.9073 12.68 70.5773 13.412 70.4933 14.348H76.7213Z" fill="white"/>
<path d="M145.364 20.126C144.536 20.126 143.792 19.982 143.132 19.694C142.484 19.394 141.974 18.986 141.602 18.47C141.23 17.942 141.038 17.336 141.026 16.652H142.772C142.832 17.24 143.072 17.738 143.492 18.146C143.924 18.542 144.548 18.74 145.364 18.74C146.144 18.74 146.756 18.548 147.2 18.164C147.656 17.768 147.884 17.264 147.884 16.652C147.884 16.172 147.752 15.782 147.488 15.482C147.224 15.182 146.894 14.954 146.498 14.798C146.102 14.642 145.568 14.474 144.896 14.294C144.068 14.078 143.402 13.862 142.898 13.646C142.406 13.43 141.98 13.094 141.62 12.638C141.272 12.17 141.098 11.546 141.098 10.766C141.098 10.082 141.272 9.476 141.62 8.948C141.968 8.42 142.454 8.012 143.078 7.724C143.714 7.436 144.44 7.292 145.256 7.292C146.432 7.292 147.392 7.586 148.136 8.174C148.892 8.762 149.318 9.542 149.414 10.514H147.614C147.554 10.034 147.302 9.614 146.858 9.254C146.414 8.882 145.826 8.696 145.094 8.696C144.41 8.696 143.852 8.876 143.42 9.236C142.988 9.584 142.772 10.076 142.772 10.712C142.772 11.168 142.898 11.54 143.15 11.828C143.414 12.116 143.732 12.338 144.104 12.494C144.488 12.638 145.022 12.806 145.706 12.998C146.534 13.226 147.2 13.454 147.704 13.682C148.208 13.898 148.64 14.24 149 14.708C149.36 15.164 149.54 15.788 149.54 16.58C149.54 17.192 149.378 17.768 149.054 18.308C148.73 18.848 148.25 19.286 147.614 19.622C146.978 19.958 146.228 20.126 145.364 20.126ZM156.846 9.956C157.59 9.956 158.262 10.118 158.862 10.442C159.462 10.754 159.93 11.228 160.266 11.864C160.614 12.5 160.788 13.274 160.788 14.186V20H159.168V14.42C159.168 13.436 158.922 12.686 158.43 12.17C157.938 11.642 157.266 11.378 156.414 11.378C155.55 11.378 154.86 11.648 154.344 12.188C153.84 12.728 153.588 13.514 153.588 14.546V20H151.95V6.68H153.588V11.54C153.912 11.036 154.356 10.646 154.92 10.37C155.496 10.094 156.138 9.956 156.846 9.956ZM167.766 20.162C166.842 20.162 166.002 19.952 165.246 19.532C164.502 19.112 163.914 18.518 163.482 17.75C163.062 16.97 162.852 16.07 162.852 15.05C162.852 14.042 163.068 13.154 163.5 12.386C163.944 11.606 164.544 11.012 165.3 10.604C166.056 10.184 166.902 9.974 167.838 9.974C168.774 9.974 169.62 10.184 170.376 10.604C171.132 11.012 171.726 11.6 172.158 12.368C172.602 13.136 172.824 14.03 172.824 15.05C172.824 16.07 172.596 16.97 172.14 17.75C171.696 18.518 171.09 19.112 170.322 19.532C169.554 19.952 168.702 20.162 167.766 20.162ZM167.766 18.722C168.354 18.722 168.906 18.584 169.422 18.308C169.938 18.032 170.352 17.618 170.664 17.066C170.988 16.514 171.15 15.842 171.15 15.05C171.15 14.258 170.994 13.586 170.682 13.034C170.37 12.482 169.962 12.074 169.458 11.81C168.954 11.534 168.408 11.396 167.82 11.396C167.22 11.396 166.668 11.534 166.164 11.81C165.672 12.074 165.276 12.482 164.976 13.034C164.676 13.586 164.526 14.258 164.526 15.05C164.526 15.854 164.67 16.532 164.958 17.084C165.258 17.636 165.654 18.05 166.146 18.326C166.638 18.59 167.178 18.722 167.766 18.722ZM176.616 11.954C176.94 11.39 177.42 10.922 178.056 10.55C178.704 10.166 179.454 9.974 180.306 9.974C181.182 9.974 181.974 10.184 182.682 10.604C183.402 11.024 183.966 11.618 184.374 12.386C184.782 13.142 184.986 14.024 184.986 15.032C184.986 16.028 184.782 16.916 184.374 17.696C183.966 18.476 183.402 19.082 182.682 19.514C181.974 19.946 181.182 20.162 180.306 20.162C179.466 20.162 178.722 19.976 178.074 19.604C177.438 19.22 176.952 18.746 176.616 18.182V24.68H174.978V10.136H176.616V11.954ZM183.312 15.032C183.312 14.288 183.162 13.64 182.862 13.088C182.562 12.536 182.154 12.116 181.638 11.828C181.134 11.54 180.576 11.396 179.964 11.396C179.364 11.396 178.806 11.546 178.29 11.846C177.786 12.134 177.378 12.56 177.066 13.124C176.766 13.676 176.616 14.318 176.616 15.05C176.616 15.794 176.766 16.448 177.066 17.012C177.378 17.564 177.786 17.99 178.29 18.29C178.806 18.578 179.364 18.722 179.964 18.722C180.576 18.722 181.134 18.578 181.638 18.29C182.154 17.99 182.562 17.564 182.862 17.012C183.162 16.448 183.312 15.788 183.312 15.032Z" fill="white"/>
<path d="M254.802 17.21H249.33L248.322 20H246.594L251.13 7.526H253.02L257.538 20H255.81L254.802 17.21ZM254.334 15.878L252.066 9.542L249.798 15.878H254.334ZM261.153 11.972C261.489 11.384 261.981 10.904 262.629 10.532C263.277 10.16 264.015 9.974 264.843 9.974C265.731 9.974 266.529 10.184 267.237 10.604C267.945 11.024 268.503 11.618 268.911 12.386C269.319 13.142 269.523 14.024 269.523 15.032C269.523 16.028 269.319 16.916 268.911 17.696C268.503 18.476 267.939 19.082 267.219 19.514C266.511 19.946 265.719 20.162 264.843 20.162C263.991 20.162 263.241 19.976 262.593 19.604C261.957 19.232 261.477 18.758 261.153 18.182V20H259.515V6.68H261.153V11.972ZM267.849 15.032C267.849 14.288 267.699 13.64 267.399 13.088C267.099 12.536 266.691 12.116 266.175 11.828C265.671 11.54 265.113 11.396 264.501 11.396C263.901 11.396 263.343 11.546 262.827 11.846C262.323 12.134 261.915 12.56 261.603 13.124C261.303 13.676 261.153 14.318 261.153 15.05C261.153 15.794 261.303 16.448 261.603 17.012C261.915 17.564 262.323 17.99 262.827 18.29C263.343 18.578 263.901 18.722 264.501 18.722C265.113 18.722 265.671 18.578 266.175 18.29C266.691 17.99 267.099 17.564 267.399 17.012C267.699 16.448 267.849 15.788 267.849 15.032ZM275.981 20.162C275.057 20.162 274.217 19.952 273.461 19.532C272.717 19.112 272.129 18.518 271.697 17.75C271.277 16.97 271.067 16.07 271.067 15.05C271.067 14.042 271.283 13.154 271.715 12.386C272.159 11.606 272.759 11.012 273.515 10.604C274.271 10.184 275.117 9.974 276.053 9.974C276.989 9.974 277.835 10.184 278.591 10.604C279.347 11.012 279.941 11.6 280.373 12.368C280.817 13.136 281.039 14.03 281.039 15.05C281.039 16.07 280.811 16.97 280.355 17.75C279.911 18.518 279.305 19.112 278.537 19.532C277.769 19.952 276.917 20.162 275.981 20.162ZM275.981 18.722C276.569 18.722 277.121 18.584 277.637 18.308C278.153 18.032 278.567 17.618 278.879 17.066C279.203 16.514 279.365 15.842 279.365 15.05C279.365 14.258 279.209 13.586 278.897 13.034C278.585 12.482 278.177 12.074 277.673 11.81C277.169 11.534 276.623 11.396 276.035 11.396C275.435 11.396 274.883 11.534 274.379 11.81C273.887 12.074 273.491 12.482 273.191 13.034C272.891 13.586 272.741 14.258 272.741 15.05C272.741 15.854 272.885 16.532 273.173 17.084C273.473 17.636 273.869 18.05 274.361 18.326C274.853 18.59 275.393 18.722 275.981 18.722ZM291.941 10.136V20H290.303V18.542C289.991 19.046 289.553 19.442 288.989 19.73C288.437 20.006 287.825 20.144 287.153 20.144C286.385 20.144 285.695 19.988 285.083 19.676C284.471 19.352 283.985 18.872 283.625 18.236C283.277 17.6 283.103 16.826 283.103 15.914V10.136H284.723V15.698C284.723 16.67 284.969 17.42 285.461 17.948C285.953 18.464 286.625 18.722 287.477 18.722C288.353 18.722 289.043 18.452 289.547 17.912C290.051 17.372 290.303 16.586 290.303 15.554V10.136H291.941ZM296.704 11.486V17.3C296.704 17.78 296.806 18.122 297.01 18.326C297.214 18.518 297.568 18.614 298.072 18.614H299.278V20H297.802C296.89 20 296.206 19.79 295.75 19.37C295.294 18.95 295.066 18.26 295.066 17.3V11.486H293.788V10.136H295.066V7.652H296.704V10.136H299.278V11.486H296.704ZM307.664 7.454V15.392C307.664 16.508 307.934 17.336 308.474 17.876C309.026 18.416 309.788 18.686 310.76 18.686C311.72 18.686 312.47 18.416 313.01 17.876C313.562 17.336 313.838 16.508 313.838 15.392V7.454H315.476V15.374C315.476 16.418 315.266 17.3 314.846 18.02C314.426 18.728 313.856 19.256 313.136 19.604C312.428 19.952 311.63 20.126 310.742 20.126C309.854 20.126 309.05 19.952 308.33 19.604C307.622 19.256 307.058 18.728 306.638 18.02C306.23 17.3 306.026 16.418 306.026 15.374V7.454H307.664ZM321.7 20.162C320.944 20.162 320.266 20.036 319.666 19.784C319.066 19.52 318.592 19.16 318.244 18.704C317.896 18.236 317.704 17.702 317.668 17.102H319.36C319.408 17.594 319.636 17.996 320.044 18.308C320.464 18.62 321.01 18.776 321.682 18.776C322.306 18.776 322.798 18.638 323.158 18.362C323.518 18.086 323.698 17.738 323.698 17.318C323.698 16.886 323.506 16.568 323.122 16.364C322.738 16.148 322.144 15.938 321.34 15.734C320.608 15.542 320.008 15.35 319.54 15.158C319.084 14.954 318.688 14.66 318.352 14.276C318.028 13.88 317.866 13.364 317.866 12.728C317.866 12.224 318.016 11.762 318.316 11.342C318.616 10.922 319.042 10.592 319.594 10.352C320.146 10.1 320.776 9.974 321.484 9.974C322.576 9.974 323.458 10.25 324.13 10.802C324.802 11.354 325.162 12.11 325.21 13.07H323.572C323.536 12.554 323.326 12.14 322.942 11.828C322.57 11.516 322.066 11.36 321.43 11.36C320.842 11.36 320.374 11.486 320.026 11.738C319.678 11.99 319.504 12.32 319.504 12.728C319.504 13.052 319.606 13.322 319.81 13.538C320.026 13.742 320.29 13.91 320.602 14.042C320.926 14.162 321.37 14.3 321.934 14.456C322.642 14.648 323.218 14.84 323.662 15.032C324.106 15.212 324.484 15.488 324.796 15.86C325.12 16.232 325.288 16.718 325.3 17.318C325.3 17.858 325.15 18.344 324.85 18.776C324.55 19.208 324.124 19.55 323.572 19.802C323.032 20.042 322.408 20.162 321.7 20.162Z" fill="white"/>
<path d="M387.774 13.718C387.774 12.494 388.05 11.396 388.602 10.424C389.154 9.44 389.904 8.672 390.852 8.12C391.812 7.568 392.874 7.292 394.038 7.292C395.406 7.292 396.6 7.622 397.62 8.282C398.64 8.942 399.384 9.878 399.852 11.09H397.89C397.542 10.334 397.038 9.752 396.378 9.344C395.73 8.936 394.95 8.732 394.038 8.732C393.162 8.732 392.376 8.936 391.68 9.344C390.984 9.752 390.438 10.334 390.042 11.09C389.646 11.834 389.448 12.71 389.448 13.718C389.448 14.714 389.646 15.59 390.042 16.346C390.438 17.09 390.984 17.666 391.68 18.074C392.376 18.482 393.162 18.686 394.038 18.686C394.95 18.686 395.73 18.488 396.378 18.092C397.038 17.684 397.542 17.102 397.89 16.346H399.852C399.384 17.546 398.64 18.476 397.62 19.136C396.6 19.784 395.406 20.108 394.038 20.108C392.874 20.108 391.812 19.838 390.852 19.298C389.904 18.746 389.154 17.984 388.602 17.012C388.05 16.04 387.774 14.942 387.774 13.718ZM406.592 20.162C405.668 20.162 404.828 19.952 404.072 19.532C403.328 19.112 402.74 18.518 402.308 17.75C401.888 16.97 401.678 16.07 401.678 15.05C401.678 14.042 401.894 13.154 402.326 12.386C402.77 11.606 403.37 11.012 404.126 10.604C404.882 10.184 405.728 9.974 406.664 9.974C407.6 9.974 408.446 10.184 409.202 10.604C409.958 11.012 410.552 11.6 410.984 12.368C411.428 13.136 411.65 14.03 411.65 15.05C411.65 16.07 411.422 16.97 410.966 17.75C410.522 18.518 409.916 19.112 409.148 19.532C408.38 19.952 407.528 20.162 406.592 20.162ZM406.592 18.722C407.18 18.722 407.732 18.584 408.248 18.308C408.764 18.032 409.178 17.618 409.49 17.066C409.814 16.514 409.976 15.842 409.976 15.05C409.976 14.258 409.82 13.586 409.508 13.034C409.196 12.482 408.788 12.074 408.284 11.81C407.78 11.534 407.234 11.396 406.646 11.396C406.046 11.396 405.494 11.534 404.99 11.81C404.498 12.074 404.102 12.482 403.802 13.034C403.502 13.586 403.352 14.258 403.352 15.05C403.352 15.854 403.496 16.532 403.784 17.084C404.084 17.636 404.48 18.05 404.972 18.326C405.464 18.59 406.004 18.722 406.592 18.722ZM418.61 9.956C419.81 9.956 420.782 10.322 421.526 11.054C422.27 11.774 422.642 12.818 422.642 14.186V20H421.022V14.42C421.022 13.436 420.776 12.686 420.284 12.17C419.792 11.642 419.12 11.378 418.268 11.378C417.404 11.378 416.714 11.648 416.198 12.188C415.694 12.728 415.442 13.514 415.442 14.546V20H413.804V10.136H415.442V11.54C415.766 11.036 416.204 10.646 416.756 10.37C417.32 10.094 417.938 9.956 418.61 9.956ZM427.316 11.486V17.3C427.316 17.78 427.418 18.122 427.622 18.326C427.826 18.518 428.18 18.614 428.684 18.614H429.89V20H428.414C427.502 20 426.818 19.79 426.362 19.37C425.906 18.95 425.678 18.26 425.678 17.3V11.486H424.4V10.136H425.678V7.652H427.316V10.136H429.89V11.486H427.316ZM431.262 15.032C431.262 14.024 431.466 13.142 431.874 12.386C432.282 11.618 432.84 11.024 433.548 10.604C434.268 10.184 435.066 9.974 435.942 9.974C436.806 9.974 437.556 10.16 438.192 10.532C438.828 10.904 439.302 11.372 439.614 11.936V10.136H441.27V20H439.614V18.164C439.29 18.74 438.804 19.22 438.156 19.604C437.52 19.976 436.776 20.162 435.924 20.162C435.048 20.162 434.256 19.946 433.548 19.514C432.84 19.082 432.282 18.476 431.874 17.696C431.466 16.916 431.262 16.028 431.262 15.032ZM439.614 15.05C439.614 14.306 439.464 13.658 439.164 13.106C438.864 12.554 438.456 12.134 437.94 11.846C437.436 11.546 436.878 11.396 436.266 11.396C435.654 11.396 435.096 11.54 434.592 11.828C434.088 12.116 433.686 12.536 433.386 13.088C433.086 13.64 432.936 14.288 432.936 15.032C432.936 15.788 433.086 16.448 433.386 17.012C433.686 17.564 434.088 17.99 434.592 18.29C435.096 18.578 435.654 18.722 436.266 18.722C436.878 18.722 437.436 18.578 437.94 18.29C438.456 17.99 438.864 17.564 439.164 17.012C439.464 16.448 439.614 15.794 439.614 15.05ZM443.426 15.05C443.426 14.03 443.63 13.142 444.038 12.386C444.446 11.618 445.01 11.024 445.73 10.604C446.462 10.184 447.296 9.974 448.232 9.974C449.444 9.974 450.44 10.268 451.22 10.856C452.012 11.444 452.534 12.26 452.786 13.304H451.022C450.854 12.704 450.524 12.23 450.032 11.882C449.552 11.534 448.952 11.36 448.232 11.36C447.296 11.36 446.54 11.684 445.964 12.332C445.388 12.968 445.1 13.874 445.1 15.05C445.1 16.238 445.388 17.156 445.964 17.804C446.54 18.452 447.296 18.776 448.232 18.776C448.952 18.776 449.552 18.608 450.032 18.272C450.512 17.936 450.842 17.456 451.022 16.832H452.786C452.522 17.84 451.994 18.65 451.202 19.262C450.41 19.862 449.42 20.162 448.232 20.162C447.296 20.162 446.462 19.952 445.73 19.532C445.01 19.112 444.446 18.518 444.038 17.75C443.63 16.982 443.426 16.082 443.426 15.05ZM456.97 11.486V17.3C456.97 17.78 457.072 18.122 457.276 18.326C457.48 18.518 457.834 18.614 458.338 18.614H459.544V20H458.068C457.156 20 456.472 19.79 456.016 19.37C455.56 18.95 455.332 18.26 455.332 17.3V11.486H454.054V10.136H455.332V7.652H456.97V10.136H459.544V11.486H456.97Z" fill="white"/>
</svg>
