<svg width="216" height="43" viewBox="0 0 216 43" fill="none" xmlns="http://www.w3.org/2000/svg">
<path d="M13.9039 2.436V15H11.3839V6.828L8.01787 15H6.10987L2.72587 6.828V15H0.205867V2.436H3.06787L7.06387 11.778L11.0599 2.436H13.9039ZM15.7473 9.978C15.7473 8.97 15.9453 8.076 16.3413 7.296C16.7493 6.516 17.2953 5.916 17.9793 5.496C18.6753 5.076 19.4493 4.866 20.3013 4.866C21.0453 4.866 21.6933 5.016 22.2453 5.316C22.8093 5.616 23.2593 5.994 23.5953 6.45V5.028H26.1333V15H23.5953V13.542C23.2713 14.01 22.8213 14.4 22.2453 14.712C21.6813 15.012 21.0273 15.162 20.2833 15.162C19.4433 15.162 18.6753 14.946 17.9793 14.514C17.2953 14.082 16.7493 13.476 16.3413 12.696C15.9453 11.904 15.7473 10.998 15.7473 9.978ZM23.5953 10.014C23.5953 9.402 23.4753 8.88 23.2353 8.448C22.9953 8.004 22.6713 7.668 22.2633 7.44C21.8553 7.2 21.4173 7.08 20.9493 7.08C20.4813 7.08 20.0493 7.194 19.6533 7.422C19.2573 7.65 18.9333 7.986 18.6813 8.43C18.4413 8.862 18.3213 9.378 18.3213 9.978C18.3213 10.578 18.4413 11.106 18.6813 11.562C18.9333 12.006 19.2573 12.348 19.6533 12.588C20.0613 12.828 20.4933 12.948 20.9493 12.948C21.4173 12.948 21.8553 12.834 22.2633 12.606C22.6713 12.366 22.9953 12.03 23.2353 11.598C23.4753 11.154 23.5953 10.626 23.5953 10.014ZM34.4985 15L31.1145 10.752V15H28.5945V1.68H31.1145V9.258L34.4625 5.028H37.7385L33.3465 10.032L37.7745 15H34.4985ZM48.3763 9.798C48.3763 10.158 48.3523 10.482 48.3043 10.77H41.0143C41.0743 11.49 41.3263 12.054 41.7703 12.462C42.2143 12.87 42.7603 13.074 43.4083 13.074C44.3443 13.074 45.0103 12.672 45.4063 11.868H48.1243C47.8363 12.828 47.2843 13.62 46.4683 14.244C45.6523 14.856 44.6503 15.162 43.4623 15.162C42.5023 15.162 41.6383 14.952 40.8703 14.532C40.1143 14.1 39.5203 13.494 39.0883 12.714C38.6683 11.934 38.4583 11.034 38.4583 10.014C38.4583 8.982 38.6683 8.076 39.0883 7.296C39.5083 6.516 40.0963 5.916 40.8523 5.496C41.6083 5.076 42.4783 4.866 43.4623 4.866C44.4103 4.866 45.2563 5.07 46.0003 5.478C46.7563 5.886 47.3383 6.468 47.7463 7.224C48.1663 7.968 48.3763 8.826 48.3763 9.798ZM45.7663 9.078C45.7543 8.43 45.5203 7.914 45.0643 7.53C44.6083 7.134 44.0503 6.936 43.3903 6.936C42.7663 6.936 42.2383 7.128 41.8063 7.512C41.3863 7.884 41.1283 8.406 41.0323 9.078H45.7663ZM64.4947 2.436L60.2467 10.626V15H57.7267V10.626L53.4607 2.436H56.3047L59.0047 8.178L61.6867 2.436H64.4947ZM70.3761 15.162C69.4161 15.162 68.5521 14.952 67.7841 14.532C67.0161 14.1 66.4101 13.494 65.9661 12.714C65.5341 11.934 65.3181 11.034 65.3181 10.014C65.3181 8.994 65.5401 8.094 65.9841 7.314C66.4401 6.534 67.0581 5.934 67.8381 5.514C68.6181 5.082 69.4881 4.866 70.4481 4.866C71.4081 4.866 72.2781 5.082 73.0581 5.514C73.8381 5.934 74.4501 6.534 74.8941 7.314C75.3501 8.094 75.5781 8.994 75.5781 10.014C75.5781 11.034 75.3441 11.934 74.8761 12.714C74.4201 13.494 73.7961 14.1 73.0041 14.532C72.2241 14.952 71.3481 15.162 70.3761 15.162ZM70.3761 12.966C70.8321 12.966 71.2581 12.858 71.6541 12.642C72.0621 12.414 72.3861 12.078 72.6261 11.634C72.8661 11.19 72.9861 10.65 72.9861 10.014C72.9861 9.066 72.7341 8.34 72.2301 7.836C71.7381 7.32 71.1321 7.062 70.4121 7.062C69.6921 7.062 69.0861 7.32 68.5941 7.836C68.1141 8.34 67.8741 9.066 67.8741 10.014C67.8741 10.962 68.1081 11.694 68.5761 12.21C69.0561 12.714 69.6561 12.966 70.3761 12.966ZM86.8406 5.028V15H84.3026V13.74C83.9786 14.172 83.5526 14.514 83.0246 14.766C82.5086 15.006 81.9446 15.126 81.3326 15.126C80.5526 15.126 79.8626 14.964 79.2626 14.64C78.6626 14.304 78.1886 13.818 77.8406 13.182C77.5046 12.534 77.3366 11.766 77.3366 10.878V5.028H79.8566V10.518C79.8566 11.31 80.0546 11.922 80.4506 12.354C80.8466 12.774 81.3866 12.984 82.0706 12.984C82.7666 12.984 83.3126 12.774 83.7086 12.354C84.1046 11.922 84.3026 11.31 84.3026 10.518V5.028H86.8406ZM91.847 6.576C92.171 6.048 92.591 5.634 93.107 5.334C93.635 5.034 94.235 4.884 94.907 4.884V7.53H94.241C93.449 7.53 92.849 7.716 92.441 8.088C92.045 8.46 91.847 9.108 91.847 10.032V15H89.327V5.028H91.847V6.576ZM103.413 2.436V15H100.893V2.436H103.413ZM111.429 4.884C112.617 4.884 113.577 5.262 114.309 6.018C115.041 6.762 115.407 7.806 115.407 9.15V15H112.887V9.492C112.887 8.7 112.689 8.094 112.293 7.674C111.897 7.242 111.357 7.026 110.673 7.026C109.977 7.026 109.425 7.242 109.017 7.674C108.621 8.094 108.423 8.7 108.423 9.492V15H105.903V5.028H108.423V6.27C108.759 5.838 109.185 5.502 109.701 5.262C110.229 5.01 110.805 4.884 111.429 4.884ZM120.738 7.098V11.922C120.738 12.258 120.816 12.504 120.972 12.66C121.14 12.804 121.416 12.876 121.8 12.876H122.97V15H121.386C119.262 15 118.2 13.968 118.2 11.904V7.098H117.012V5.028H118.2V2.562H120.738V5.028H122.97V7.098H120.738ZM134.052 9.798C134.052 10.158 134.028 10.482 133.98 10.77H126.69C126.75 11.49 127.002 12.054 127.446 12.462C127.89 12.87 128.436 13.074 129.084 13.074C130.02 13.074 130.686 12.672 131.082 11.868H133.8C133.512 12.828 132.96 13.62 132.144 14.244C131.328 14.856 130.326 15.162 129.138 15.162C128.178 15.162 127.314 14.952 126.546 14.532C125.79 14.1 125.196 13.494 124.764 12.714C124.344 11.934 124.134 11.034 124.134 10.014C124.134 8.982 124.344 8.076 124.764 7.296C125.184 6.516 125.772 5.916 126.528 5.496C127.284 5.076 128.154 4.866 129.138 4.866C130.086 4.866 130.932 5.07 131.676 5.478C132.432 5.886 133.014 6.468 133.422 7.224C133.842 7.968 134.052 8.826 134.052 9.798ZM131.442 9.078C131.43 8.43 131.196 7.914 130.74 7.53C130.284 7.134 129.726 6.936 129.066 6.936C128.442 6.936 127.914 7.128 127.482 7.512C127.062 7.884 126.804 8.406 126.708 9.078H131.442ZM138.411 6.576C138.735 6.048 139.155 5.634 139.671 5.334C140.199 5.034 140.799 4.884 141.471 4.884V7.53H140.805C140.013 7.53 139.413 7.716 139.005 8.088C138.609 8.46 138.411 9.108 138.411 10.032V15H135.891V5.028H138.411V6.576ZM144.447 3.84C144.003 3.84 143.631 3.702 143.331 3.426C143.043 3.138 142.899 2.784 142.899 2.364C142.899 1.944 143.043 1.596 143.331 1.32C143.631 1.032 144.003 0.887999 144.447 0.887999C144.891 0.887999 145.257 1.032 145.545 1.32C145.845 1.596 145.995 1.944 145.995 2.364C145.995 2.784 145.845 3.138 145.545 3.426C145.257 3.702 144.891 3.84 144.447 3.84ZM145.689 5.028V15H143.169V5.028H145.689ZM152.607 15.162C151.647 15.162 150.783 14.952 150.015 14.532C149.247 14.1 148.641 13.494 148.197 12.714C147.765 11.934 147.549 11.034 147.549 10.014C147.549 8.994 147.771 8.094 148.215 7.314C148.671 6.534 149.289 5.934 150.069 5.514C150.849 5.082 151.719 4.866 152.679 4.866C153.639 4.866 154.509 5.082 155.289 5.514C156.069 5.934 156.681 6.534 157.125 7.314C157.581 8.094 157.809 8.994 157.809 10.014C157.809 11.034 157.575 11.934 157.107 12.714C156.651 13.494 156.027 14.1 155.235 14.532C154.455 14.952 153.579 15.162 152.607 15.162ZM152.607 12.966C153.063 12.966 153.489 12.858 153.885 12.642C154.293 12.414 154.617 12.078 154.857 11.634C155.097 11.19 155.217 10.65 155.217 10.014C155.217 9.066 154.965 8.34 154.461 7.836C153.969 7.32 153.363 7.062 152.643 7.062C151.923 7.062 151.317 7.32 150.825 7.836C150.345 8.34 150.105 9.066 150.105 10.014C150.105 10.962 150.339 11.694 150.807 12.21C151.287 12.714 151.887 12.966 152.607 12.966ZM162.177 6.576C162.501 6.048 162.921 5.634 163.437 5.334C163.965 5.034 164.565 4.884 165.237 4.884V7.53H164.571C163.779 7.53 163.179 7.716 162.771 8.088C162.375 8.46 162.177 9.108 162.177 10.032V15H159.657V5.028H162.177V6.576ZM184.921 2.436V15H182.401V6.828L179.035 15H177.127L173.743 6.828V15H171.223V2.436H174.085L178.081 11.778L182.077 2.436H184.921ZM191.841 15.162C190.881 15.162 190.017 14.952 189.249 14.532C188.481 14.1 187.875 13.494 187.431 12.714C186.999 11.934 186.783 11.034 186.783 10.014C186.783 8.994 187.005 8.094 187.449 7.314C187.905 6.534 188.523 5.934 189.303 5.514C190.083 5.082 190.953 4.866 191.913 4.866C192.873 4.866 193.743 5.082 194.523 5.514C195.303 5.934 195.915 6.534 196.359 7.314C196.815 8.094 197.043 8.994 197.043 10.014C197.043 11.034 196.809 11.934 196.341 12.714C195.885 13.494 195.261 14.1 194.469 14.532C193.689 14.952 192.813 15.162 191.841 15.162ZM191.841 12.966C192.297 12.966 192.723 12.858 193.119 12.642C193.527 12.414 193.851 12.078 194.091 11.634C194.331 11.19 194.451 10.65 194.451 10.014C194.451 9.066 194.199 8.34 193.695 7.836C193.203 7.32 192.597 7.062 191.877 7.062C191.157 7.062 190.551 7.32 190.059 7.836C189.579 8.34 189.339 9.066 189.339 10.014C189.339 10.962 189.573 11.694 190.041 12.21C190.521 12.714 191.121 12.966 191.841 12.966ZM201.411 6.576C201.735 6.048 202.155 5.634 202.671 5.334C203.199 5.034 203.799 4.884 204.471 4.884V7.53H203.805C203.013 7.53 202.413 7.716 202.005 8.088C201.609 8.46 201.411 9.108 201.411 10.032V15H198.891V5.028H201.411V6.576ZM215.439 9.798C215.439 10.158 215.415 10.482 215.367 10.77H208.077C208.137 11.49 208.389 12.054 208.833 12.462C209.277 12.87 209.823 13.074 210.471 13.074C211.407 13.074 212.073 12.672 212.469 11.868H215.187C214.899 12.828 214.347 13.62 213.531 14.244C212.715 14.856 211.713 15.162 210.525 15.162C209.565 15.162 208.701 14.952 207.933 14.532C207.177 14.1 206.583 13.494 206.151 12.714C205.731 11.934 205.521 11.034 205.521 10.014C205.521 8.982 205.731 8.076 206.151 7.296C206.571 6.516 207.159 5.916 207.915 5.496C208.671 5.076 209.541 4.866 210.525 4.866C211.473 4.866 212.319 5.07 213.063 5.478C213.819 5.886 214.401 6.468 214.809 7.224C215.229 7.968 215.439 8.826 215.439 9.798ZM212.829 9.078C212.817 8.43 212.583 7.914 212.127 7.53C211.671 7.134 211.113 6.936 210.453 6.936C209.829 6.936 209.301 7.128 208.869 7.512C208.449 7.884 208.191 8.406 208.095 9.078H212.829ZM22.6666 29.436V42H20.1466V33.828L16.7806 42H14.8726L11.4886 33.828V42H8.96856V29.436H11.8306L15.8266 38.778L19.8226 29.436H22.6666ZM26.436 30.84C25.992 30.84 25.62 30.702 25.32 30.426C25.032 30.138 24.888 29.784 24.888 29.364C24.888 28.944 25.032 28.596 25.32 28.32C25.62 28.032 25.992 27.888 26.436 27.888C26.88 27.888 27.246 28.032 27.534 28.32C27.834 28.596 27.984 28.944 27.984 29.364C27.984 29.784 27.834 30.138 27.534 30.426C27.246 30.702 26.88 30.84 26.436 30.84ZM27.678 32.028V42H25.158V32.028H27.678ZM35.6938 31.884C36.8818 31.884 37.8418 32.262 38.5738 33.018C39.3058 33.762 39.6718 34.806 39.6718 36.15V42H37.1518V36.492C37.1518 35.7 36.9538 35.094 36.5578 34.674C36.1618 34.242 35.6218 34.026 34.9378 34.026C34.2418 34.026 33.6898 34.242 33.2818 34.674C32.8858 35.094 32.6878 35.7 32.6878 36.492V42H30.1678V32.028H32.6878V33.27C33.0238 32.838 33.4498 32.502 33.9658 32.262C34.4938 32.01 35.0698 31.884 35.6938 31.884ZM43.3462 30.84C42.9022 30.84 42.5302 30.702 42.2302 30.426C41.9422 30.138 41.7982 29.784 41.7982 29.364C41.7982 28.944 41.9422 28.596 42.2302 28.32C42.5302 28.032 42.9022 27.888 43.3462 27.888C43.7902 27.888 44.1562 28.032 44.4442 28.32C44.7442 28.596 44.8942 28.944 44.8942 29.364C44.8942 29.784 44.7442 30.138 44.4442 30.426C44.1562 30.702 43.7902 30.84 43.3462 30.84ZM44.5882 32.028V42H42.0682V32.028H44.5882ZM59.4619 31.884C60.6859 31.884 61.6699 32.262 62.4139 33.018C63.1699 33.762 63.5479 34.806 63.5479 36.15V42H61.0279V36.492C61.0279 35.712 60.8299 35.118 60.4339 34.71C60.0379 34.29 59.4979 34.08 58.8139 34.08C58.1299 34.08 57.5839 34.29 57.1759 34.71C56.7799 35.118 56.5819 35.712 56.5819 36.492V42H54.0619V36.492C54.0619 35.712 53.8639 35.118 53.4679 34.71C53.0719 34.29 52.5319 34.08 51.8479 34.08C51.1519 34.08 50.5999 34.29 50.1919 34.71C49.7959 35.118 49.5979 35.712 49.5979 36.492V42H47.0779V32.028H49.5979V33.234C49.9219 32.814 50.3359 32.484 50.8399 32.244C51.3559 32.004 51.9199 31.884 52.5319 31.884C53.3119 31.884 54.0079 32.052 54.6199 32.388C55.2319 32.712 55.7059 33.18 56.0419 33.792C56.3659 33.216 56.8339 32.754 57.4459 32.406C58.0699 32.058 58.7419 31.884 59.4619 31.884ZM65.2913 36.978C65.2913 35.97 65.4893 35.076 65.8853 34.296C66.2933 33.516 66.8393 32.916 67.5233 32.496C68.2193 32.076 68.9933 31.866 69.8453 31.866C70.5893 31.866 71.2373 32.016 71.7893 32.316C72.3533 32.616 72.8033 32.994 73.1393 33.45V32.028H75.6773V42H73.1393V40.542C72.8153 41.01 72.3653 41.4 71.7893 41.712C71.2253 42.012 70.5713 42.162 69.8273 42.162C68.9873 42.162 68.2193 41.946 67.5233 41.514C66.8393 41.082 66.2933 40.476 65.8853 39.696C65.4893 38.904 65.2913 37.998 65.2913 36.978ZM73.1393 37.014C73.1393 36.402 73.0193 35.88 72.7793 35.448C72.5393 35.004 72.2153 34.668 71.8073 34.44C71.3993 34.2 70.9613 34.08 70.4933 34.08C70.0253 34.08 69.5933 34.194 69.1973 34.422C68.8013 34.65 68.4773 34.986 68.2253 35.43C67.9853 35.862 67.8653 36.378 67.8653 36.978C67.8653 37.578 67.9853 38.106 68.2253 38.562C68.4773 39.006 68.8013 39.348 69.1973 39.588C69.6053 39.828 70.0373 39.948 70.4933 39.948C70.9613 39.948 71.3993 39.834 71.8073 39.606C72.2153 39.366 72.5393 39.03 72.7793 38.598C73.0193 38.154 73.1393 37.626 73.1393 37.014ZM79.4165 30.84C78.9725 30.84 78.6005 30.702 78.3005 30.426C78.0125 30.138 77.8685 29.784 77.8685 29.364C77.8685 28.944 78.0125 28.596 78.3005 28.32C78.6005 28.032 78.9725 27.888 79.4165 27.888C79.8605 27.888 80.2265 28.032 80.5145 28.32C80.8145 28.596 80.9645 28.944 80.9645 29.364C80.9645 29.784 80.8145 30.138 80.5145 30.426C80.2265 30.702 79.8605 30.84 79.4165 30.84ZM80.6585 32.028V42H78.1385V32.028H80.6585ZM86.9643 42.162C86.1483 42.162 85.4163 42.018 84.7683 41.73C84.1203 41.43 83.6043 41.028 83.2203 40.524C82.8483 40.02 82.6443 39.462 82.6083 38.85H85.1463C85.1943 39.234 85.3803 39.552 85.7043 39.804C86.0403 40.056 86.4543 40.182 86.9463 40.182C87.4263 40.182 87.7983 40.086 88.0623 39.894C88.3383 39.702 88.4763 39.456 88.4763 39.156C88.4763 38.832 88.3083 38.592 87.9723 38.436C87.6483 38.268 87.1263 38.088 86.4062 37.896C85.6623 37.716 85.0503 37.53 84.5703 37.338C84.1023 37.146 83.6943 36.852 83.3463 36.456C83.0103 36.06 82.8423 35.526 82.8423 34.854C82.8423 34.302 82.9983 33.798 83.3103 33.342C83.6343 32.886 84.0903 32.526 84.6783 32.262C85.2783 31.998 85.9803 31.866 86.7843 31.866C87.9723 31.866 88.9203 32.166 89.6283 32.766C90.3363 33.354 90.7263 34.152 90.7983 35.16H88.3863C88.3503 34.764 88.1823 34.452 87.8823 34.224C87.5943 33.984 87.2043 33.864 86.7123 33.864C86.2563 33.864 85.9023 33.948 85.6503 34.116C85.4103 34.284 85.2903 34.518 85.2903 34.818C85.2903 35.154 85.4583 35.412 85.7943 35.592C86.1303 35.76 86.6523 35.934 87.3603 36.114C88.0803 36.294 88.6743 36.48 89.1423 36.672C89.6103 36.864 90.0123 37.164 90.3483 37.572C90.6963 37.968 90.8763 38.496 90.8883 39.156C90.8883 39.732 90.7263 40.248 90.4023 40.704C90.0903 41.16 89.6343 41.52 89.0343 41.784C88.4463 42.036 87.7563 42.162 86.9643 42.162ZM95.8908 34.098V38.922C95.8908 39.258 95.9688 39.504 96.1248 39.66C96.2928 39.804 96.5688 39.876 96.9528 39.876H98.1228V42H96.5388C94.4148 42 93.3528 40.968 93.3528 38.904V34.098H92.1648V32.028H93.3528V29.562H95.8908V32.028H98.1228V34.098H95.8908ZM101.213 30.84C100.769 30.84 100.397 30.702 100.097 30.426C99.8094 30.138 99.6654 29.784 99.6654 29.364C99.6654 28.944 99.8094 28.596 100.097 28.32C100.397 28.032 100.769 27.888 101.213 27.888C101.657 27.888 102.023 28.032 102.311 28.32C102.611 28.596 102.761 28.944 102.761 29.364C102.761 29.784 102.611 30.138 102.311 30.426C102.023 30.702 101.657 30.84 101.213 30.84ZM102.455 32.028V42H99.9354V32.028H102.455ZM104.297 37.014C104.297 35.982 104.507 35.082 104.927 34.314C105.347 33.534 105.929 32.934 106.673 32.514C107.417 32.082 108.269 31.866 109.229 31.866C110.465 31.866 111.485 32.178 112.289 32.802C113.105 33.414 113.651 34.278 113.927 35.394H111.209C111.065 34.962 110.819 34.626 110.471 34.386C110.135 34.134 109.715 34.008 109.211 34.008C108.491 34.008 107.921 34.272 107.501 34.8C107.081 35.316 106.871 36.054 106.871 37.014C106.871 37.962 107.081 38.7 107.501 39.228C107.921 39.744 108.491 40.002 109.211 40.002C110.231 40.002 110.897 39.546 111.209 38.634H113.927C113.651 39.714 113.105 40.572 112.289 41.208C111.473 41.844 110.453 42.162 109.229 42.162C108.269 42.162 107.417 41.952 106.673 41.532C105.929 41.1 105.347 40.5 104.927 39.732C104.507 38.952 104.297 38.046 104.297 37.014ZM129.728 42L128.36 40.65C127.196 41.694 125.774 42.216 124.094 42.216C123.17 42.216 122.354 42.06 121.646 41.748C120.95 41.424 120.41 40.974 120.026 40.398C119.642 39.81 119.45 39.132 119.45 38.364C119.45 37.536 119.684 36.792 120.152 36.132C120.62 35.472 121.31 34.938 122.222 34.53C121.898 34.134 121.664 33.756 121.52 33.396C121.376 33.024 121.304 32.628 121.304 32.208C121.304 31.632 121.454 31.116 121.754 30.66C122.054 30.192 122.48 29.826 123.032 29.562C123.596 29.298 124.25 29.166 124.994 29.166C125.75 29.166 126.398 29.31 126.938 29.598C127.478 29.886 127.88 30.27 128.144 30.75C128.408 31.23 128.522 31.764 128.486 32.352H126.038C126.05 31.956 125.954 31.656 125.75 31.452C125.546 31.236 125.27 31.128 124.922 31.128C124.586 31.128 124.304 31.23 124.076 31.434C123.86 31.626 123.752 31.878 123.752 32.19C123.752 32.49 123.842 32.79 124.022 33.09C124.202 33.378 124.496 33.738 124.904 34.17L128.072 37.302C128.096 37.278 128.114 37.254 128.126 37.23C128.138 37.206 128.15 37.182 128.162 37.158L129.188 35.448H131.816L130.556 37.662C130.316 38.13 130.058 38.574 129.782 38.994L132.824 42H129.728ZM124.166 40.128C125.15 40.128 126.02 39.78 126.776 39.084L123.68 36.024C122.516 36.54 121.934 37.272 121.934 38.22C121.934 38.76 122.138 39.216 122.546 39.588C122.954 39.948 123.494 40.128 124.166 40.128ZM152.059 29.436V42H149.539V33.828L146.173 42H144.265L140.881 33.828V42H138.361V29.436H141.223L145.219 38.778L149.215 29.436H152.059ZM158.979 42.162C158.019 42.162 157.155 41.952 156.387 41.532C155.619 41.1 155.013 40.494 154.569 39.714C154.137 38.934 153.921 38.034 153.921 37.014C153.921 35.994 154.143 35.094 154.587 34.314C155.043 33.534 155.661 32.934 156.441 32.514C157.221 32.082 158.091 31.866 159.051 31.866C160.011 31.866 160.881 32.082 161.661 32.514C162.441 32.934 163.053 33.534 163.497 34.314C163.953 35.094 164.181 35.994 164.181 37.014C164.181 38.034 163.947 38.934 163.479 39.714C163.023 40.494 162.399 41.1 161.607 41.532C160.827 41.952 159.951 42.162 158.979 42.162ZM158.979 39.966C159.435 39.966 159.861 39.858 160.257 39.642C160.665 39.414 160.989 39.078 161.229 38.634C161.469 38.19 161.589 37.65 161.589 37.014C161.589 36.066 161.337 35.34 160.833 34.836C160.341 34.32 159.735 34.062 159.015 34.062C158.295 34.062 157.689 34.32 157.197 34.836C156.717 35.34 156.477 36.066 156.477 37.014C156.477 37.962 156.711 38.694 157.179 39.21C157.659 39.714 158.259 39.966 158.979 39.966ZM165.381 36.978C165.381 35.97 165.579 35.076 165.975 34.296C166.383 33.516 166.935 32.916 167.631 32.496C168.327 32.076 169.101 31.866 169.953 31.866C170.601 31.866 171.219 32.01 171.807 32.298C172.395 32.574 172.863 32.946 173.211 33.414V28.68H175.767V42H173.211V40.524C172.899 41.016 172.461 41.412 171.897 41.712C171.333 42.012 170.679 42.162 169.935 42.162C169.095 42.162 168.327 41.946 167.631 41.514C166.935 41.082 166.383 40.476 165.975 39.696C165.579 38.904 165.381 37.998 165.381 36.978ZM173.229 37.014C173.229 36.402 173.109 35.88 172.869 35.448C172.629 35.004 172.305 34.668 171.897 34.44C171.489 34.2 171.051 34.08 170.583 34.08C170.115 34.08 169.683 34.194 169.287 34.422C168.891 34.65 168.567 34.986 168.315 35.43C168.075 35.862 167.955 36.378 167.955 36.978C167.955 37.578 168.075 38.106 168.315 38.562C168.567 39.006 168.891 39.348 169.287 39.588C169.695 39.828 170.127 39.948 170.583 39.948C171.051 39.948 171.489 39.834 171.897 39.606C172.305 39.366 172.629 39.03 172.869 38.598C173.109 38.154 173.229 37.626 173.229 37.014ZM187.498 36.798C187.498 37.158 187.474 37.482 187.426 37.77H180.136C180.196 38.49 180.448 39.054 180.892 39.462C181.336 39.87 181.882 40.074 182.53 40.074C183.466 40.074 184.132 39.672 184.528 38.868H187.246C186.958 39.828 186.406 40.62 185.59 41.244C184.774 41.856 183.772 42.162 182.584 42.162C181.624 42.162 180.76 41.952 179.992 41.532C179.236 41.1 178.642 40.494 178.21 39.714C177.79 38.934 177.58 38.034 177.58 37.014C177.58 35.982 177.79 35.076 178.21 34.296C178.63 33.516 179.218 32.916 179.974 32.496C180.73 32.076 181.6 31.866 182.584 31.866C183.532 31.866 184.378 32.07 185.122 32.478C185.878 32.886 186.46 33.468 186.868 34.224C187.288 34.968 187.498 35.826 187.498 36.798ZM184.888 36.078C184.876 35.43 184.642 34.914 184.186 34.53C183.73 34.134 183.172 33.936 182.512 33.936C181.888 33.936 181.36 34.128 180.928 34.512C180.508 34.884 180.25 35.406 180.154 36.078H184.888ZM191.858 33.576C192.182 33.048 192.602 32.634 193.118 32.334C193.646 32.034 194.246 31.884 194.918 31.884V34.53H194.252C193.46 34.53 192.86 34.716 192.452 35.088C192.056 35.46 191.858 36.108 191.858 37.032V42H189.338V32.028H191.858V33.576ZM202.141 31.884C203.329 31.884 204.289 32.262 205.021 33.018C205.753 33.762 206.119 34.806 206.119 36.15V42H203.599V36.492C203.599 35.7 203.401 35.094 203.005 34.674C202.609 34.242 202.069 34.026 201.385 34.026C200.689 34.026 200.137 34.242 199.729 34.674C199.333 35.094 199.135 35.7 199.135 36.492V42H196.615V32.028H199.135V33.27C199.471 32.838 199.897 32.502 200.413 32.262C200.941 32.01 201.517 31.884 202.141 31.884Z" fill="white"/>
</svg>
