<svg width="575" height="111" viewBox="0 0 575 111" fill="none" xmlns="http://www.w3.org/2000/svg">
<path d="M37.4103 4.496V38H30.6903V16.208L21.7143 38H16.6263L7.60231 16.208V38H0.882313V4.496H8.51431L19.1703 29.408L29.8263 4.496H37.4103ZM42.3262 24.608C42.3262 21.92 42.8542 19.536 43.9102 17.456C44.9982 15.376 46.4542 13.776 48.2782 12.656C50.1342 11.536 52.1982 10.976 54.4702 10.976C56.4542 10.976 58.1822 11.376 59.6542 12.176C61.1582 12.976 62.3582 13.984 63.2542 15.2V11.408H70.0222V38H63.2542V34.112C62.3902 35.36 61.1902 36.4 59.6542 37.232C58.1502 38.032 56.4062 38.432 54.4222 38.432C52.1822 38.432 50.1342 37.856 48.2782 36.704C46.4542 35.552 44.9982 33.936 43.9102 31.856C42.8542 29.744 42.3262 27.328 42.3262 24.608ZM63.2542 24.704C63.2542 23.072 62.9342 21.68 62.2942 20.528C61.6542 19.344 60.7902 18.448 59.7022 17.84C58.6142 17.2 57.4462 16.88 56.1982 16.88C54.9502 16.88 53.7982 17.184 52.7422 17.792C51.6862 18.4 50.8222 19.296 50.1502 20.48C49.5102 21.632 49.1902 23.008 49.1902 24.608C49.1902 26.208 49.5102 27.616 50.1502 28.832C50.8222 30.016 51.6862 30.928 52.7422 31.568C53.8302 32.208 54.9822 32.528 56.1982 32.528C57.4462 32.528 58.6142 32.224 59.7022 31.616C60.7902 30.976 61.6542 30.08 62.2942 28.928C62.9342 27.744 63.2542 26.336 63.2542 24.704ZM92.3294 38L83.3054 26.672V38H76.5854V2.48H83.3054V22.688L92.2334 11.408H100.969L89.2574 24.752L101.065 38H92.3294ZM129.337 24.128C129.337 25.088 129.273 25.952 129.145 26.72H109.705C109.865 28.64 110.537 30.144 111.721 31.232C112.905 32.32 114.361 32.864 116.089 32.864C118.585 32.864 120.361 31.792 121.417 29.648H128.665C127.897 32.208 126.425 34.32 124.249 35.984C122.073 37.616 119.401 38.432 116.233 38.432C113.673 38.432 111.369 37.872 109.321 36.752C107.305 35.6 105.721 33.984 104.569 31.904C103.449 29.824 102.889 27.424 102.889 24.704C102.889 21.952 103.449 19.536 104.569 17.456C105.689 15.376 107.257 13.776 109.273 12.656C111.289 11.536 113.609 10.976 116.233 10.976C118.761 10.976 121.017 11.52 123.001 12.608C125.017 13.696 126.569 15.248 127.657 17.264C128.777 19.248 129.337 21.536 129.337 24.128ZM122.377 22.208C122.345 20.48 121.721 19.104 120.505 18.08C119.289 17.024 117.801 16.496 116.041 16.496C114.377 16.496 112.969 17.008 111.817 18.032C110.697 19.024 110.009 20.416 109.753 22.208H122.377ZM172.319 4.496L160.991 26.336V38H154.271V26.336L142.895 4.496H150.479L157.679 19.808L164.831 4.496H172.319ZM188.003 38.432C185.443 38.432 183.139 37.872 181.091 36.752C179.043 35.6 177.427 33.984 176.243 31.904C175.091 29.824 174.515 27.424 174.515 24.704C174.515 21.984 175.107 19.584 176.291 17.504C177.507 15.424 179.155 13.824 181.235 12.704C183.315 11.552 185.635 10.976 188.195 10.976C190.755 10.976 193.075 11.552 195.155 12.704C197.235 13.824 198.867 15.424 200.051 17.504C201.267 19.584 201.875 21.984 201.875 24.704C201.875 27.424 201.251 29.824 200.003 31.904C198.787 33.984 197.123 35.6 195.011 36.752C192.931 37.872 190.595 38.432 188.003 38.432ZM188.003 32.576C189.219 32.576 190.355 32.288 191.411 31.712C192.499 31.104 193.363 30.208 194.003 29.024C194.643 27.84 194.963 26.4 194.963 24.704C194.963 22.176 194.291 20.24 192.947 18.896C191.635 17.52 190.019 16.832 188.099 16.832C186.179 16.832 184.563 17.52 183.251 18.896C181.971 20.24 181.331 22.176 181.331 24.704C181.331 27.232 181.955 29.184 183.203 30.56C184.483 31.904 186.083 32.576 188.003 32.576ZM231.908 11.408V38H225.14V34.64C224.276 35.792 223.14 36.704 221.732 37.376C220.356 38.016 218.852 38.336 217.22 38.336C215.14 38.336 213.3 37.904 211.7 37.04C210.1 36.144 208.836 34.848 207.908 33.152C207.012 31.424 206.564 29.376 206.564 27.008V11.408H213.284V26.048C213.284 28.16 213.812 29.792 214.868 30.944C215.924 32.064 217.364 32.624 219.188 32.624C221.044 32.624 222.5 32.064 223.556 30.944C224.612 29.792 225.14 28.16 225.14 26.048V11.408H231.908ZM245.259 15.536C246.123 14.128 247.243 13.024 248.619 12.224C250.027 11.424 251.627 11.024 253.419 11.024V18.08H251.643C249.531 18.08 247.931 18.576 246.843 19.568C245.787 20.56 245.259 22.288 245.259 24.752V38H238.539V11.408H245.259V15.536ZM276.102 4.496V38H269.382V4.496H276.102ZM297.478 11.024C300.646 11.024 303.206 12.032 305.158 14.048C307.11 16.032 308.086 18.816 308.086 22.4V38H301.366V23.312C301.366 21.2 300.838 19.584 299.782 18.464C298.726 17.312 297.286 16.736 295.462 16.736C293.606 16.736 292.134 17.312 291.046 18.464C289.99 19.584 289.462 21.2 289.462 23.312V38H282.742V11.408H289.462V14.72C290.358 13.568 291.494 12.672 292.87 12.032C294.278 11.36 295.814 11.024 297.478 11.024ZM322.3 16.928V29.792C322.3 30.688 322.508 31.344 322.924 31.76C323.372 32.144 324.108 32.336 325.132 32.336H328.252V38H324.028C318.364 38 315.532 35.248 315.532 29.744V16.928H312.364V11.408H315.532V4.832H322.3V11.408H328.252V16.928H322.3ZM357.805 24.128C357.805 25.088 357.741 25.952 357.613 26.72H338.173C338.333 28.64 339.005 30.144 340.189 31.232C341.373 32.32 342.829 32.864 344.557 32.864C347.053 32.864 348.829 31.792 349.885 29.648H357.133C356.365 32.208 354.893 34.32 352.717 35.984C350.541 37.616 347.869 38.432 344.701 38.432C342.141 38.432 339.837 37.872 337.789 36.752C335.773 35.6 334.189 33.984 333.037 31.904C331.917 29.824 331.357 27.424 331.357 24.704C331.357 21.952 331.917 19.536 333.037 17.456C334.157 15.376 335.725 13.776 337.741 12.656C339.757 11.536 342.077 10.976 344.701 10.976C347.229 10.976 349.485 11.52 351.469 12.608C353.485 13.696 355.037 15.248 356.125 17.264C357.245 19.248 357.805 21.536 357.805 24.128ZM350.845 22.208C350.813 20.48 350.189 19.104 348.973 18.08C347.757 17.024 346.269 16.496 344.509 16.496C342.845 16.496 341.437 17.008 340.285 18.032C339.165 19.024 338.477 20.416 338.221 22.208H350.845ZM369.43 15.536C370.294 14.128 371.414 13.024 372.79 12.224C374.198 11.424 375.798 11.024 377.59 11.024V18.08H375.814C373.702 18.08 372.102 18.576 371.014 19.568C369.958 20.56 369.43 22.288 369.43 24.752V38H362.71V11.408H369.43V15.536ZM385.525 8.24C384.341 8.24 383.349 7.872 382.549 7.136C381.781 6.368 381.397 5.424 381.397 4.304C381.397 3.184 381.781 2.256 382.549 1.52C383.349 0.751998 384.341 0.367998 385.525 0.367998C386.709 0.367998 387.685 0.751998 388.453 1.52C389.253 2.256 389.653 3.184 389.653 4.304C389.653 5.424 389.253 6.368 388.453 7.136C387.685 7.872 386.709 8.24 385.525 8.24ZM388.837 11.408V38H382.117V11.408H388.837ZM407.284 38.432C404.724 38.432 402.42 37.872 400.372 36.752C398.324 35.6 396.708 33.984 395.524 31.904C394.372 29.824 393.796 27.424 393.796 24.704C393.796 21.984 394.388 19.584 395.572 17.504C396.788 15.424 398.436 13.824 400.516 12.704C402.596 11.552 404.916 10.976 407.476 10.976C410.036 10.976 412.356 11.552 414.436 12.704C416.516 13.824 418.148 15.424 419.332 17.504C420.548 19.584 421.156 21.984 421.156 24.704C421.156 27.424 420.532 29.824 419.284 31.904C418.068 33.984 416.404 35.6 414.292 36.752C412.212 37.872 409.876 38.432 407.284 38.432ZM407.284 32.576C408.5 32.576 409.636 32.288 410.692 31.712C411.78 31.104 412.644 30.208 413.284 29.024C413.924 27.84 414.244 26.4 414.244 24.704C414.244 22.176 413.572 20.24 412.228 18.896C410.916 17.52 409.3 16.832 407.38 16.832C405.46 16.832 403.844 17.52 402.532 18.896C401.252 20.24 400.612 22.176 400.612 24.704C400.612 27.232 401.236 29.184 402.484 30.56C403.764 31.904 405.364 32.576 407.284 32.576ZM432.805 15.536C433.669 14.128 434.789 13.024 436.165 12.224C437.573 11.424 439.173 11.024 440.965 11.024V18.08H439.189C437.077 18.08 435.477 18.576 434.389 19.568C433.333 20.56 432.805 22.288 432.805 24.752V38H426.085V11.408H432.805V15.536ZM493.457 4.496V38H486.737V16.208L477.761 38H472.673L463.649 16.208V38H456.929V4.496H464.561L475.217 29.408L485.873 4.496H493.457ZM511.909 38.432C509.349 38.432 507.045 37.872 504.997 36.752C502.949 35.6 501.333 33.984 500.149 31.904C498.997 29.824 498.421 27.424 498.421 24.704C498.421 21.984 499.013 19.584 500.197 17.504C501.413 15.424 503.061 13.824 505.141 12.704C507.221 11.552 509.541 10.976 512.101 10.976C514.661 10.976 516.981 11.552 519.061 12.704C521.141 13.824 522.773 15.424 523.957 17.504C525.173 19.584 525.781 21.984 525.781 24.704C525.781 27.424 525.157 29.824 523.909 31.904C522.693 33.984 521.029 35.6 518.917 36.752C516.837 37.872 514.501 38.432 511.909 38.432ZM511.909 32.576C513.125 32.576 514.261 32.288 515.317 31.712C516.405 31.104 517.269 30.208 517.909 29.024C518.549 27.84 518.869 26.4 518.869 24.704C518.869 22.176 518.197 20.24 516.853 18.896C515.541 17.52 513.925 16.832 512.005 16.832C510.085 16.832 508.469 17.52 507.157 18.896C505.877 20.24 505.237 22.176 505.237 24.704C505.237 27.232 505.861 29.184 507.109 30.56C508.389 31.904 509.989 32.576 511.909 32.576ZM537.43 15.536C538.294 14.128 539.414 13.024 540.79 12.224C542.198 11.424 543.798 11.024 545.59 11.024V18.08H543.814C541.702 18.08 540.102 18.576 539.014 19.568C537.958 20.56 537.43 22.288 537.43 24.752V38H530.71V11.408H537.43V15.536ZM574.837 24.128C574.837 25.088 574.773 25.952 574.645 26.72H555.205C555.365 28.64 556.037 30.144 557.221 31.232C558.405 32.32 559.861 32.864 561.589 32.864C564.085 32.864 565.861 31.792 566.917 29.648H574.165C573.397 32.208 571.925 34.32 569.749 35.984C567.573 37.616 564.901 38.432 561.733 38.432C559.173 38.432 556.869 37.872 554.821 36.752C552.805 35.6 551.221 33.984 550.069 31.904C548.949 29.824 548.389 27.424 548.389 24.704C548.389 21.952 548.949 19.536 550.069 17.456C551.189 15.376 552.757 13.776 554.773 12.656C556.789 11.536 559.109 10.976 561.733 10.976C564.261 10.976 566.517 11.52 568.501 12.608C570.517 13.696 572.069 15.248 573.157 17.264C574.277 19.248 574.837 21.536 574.837 24.128ZM567.877 22.208C567.845 20.48 567.221 19.104 566.005 18.08C564.789 17.024 563.301 16.496 561.541 16.496C559.877 16.496 558.469 17.008 557.317 18.032C556.197 19.024 555.509 20.416 555.253 22.208H567.877ZM60.7775 76.496V110H54.0575V88.208L45.0815 110H39.9935L30.9695 88.208V110H24.2495V76.496H31.8815L42.5375 101.408L53.1935 76.496H60.7775ZM70.8294 80.24C69.6454 80.24 68.6534 79.872 67.8534 79.136C67.0854 78.368 66.7014 77.424 66.7014 76.304C66.7014 75.184 67.0854 74.256 67.8534 73.52C68.6534 72.752 69.6454 72.368 70.8294 72.368C72.0134 72.368 72.9894 72.752 73.7574 73.52C74.5574 74.256 74.9574 75.184 74.9574 76.304C74.9574 77.424 74.5574 78.368 73.7574 79.136C72.9894 79.872 72.0134 80.24 70.8294 80.24ZM74.1414 83.408V110H67.4214V83.408H74.1414ZM95.5168 83.024C98.6848 83.024 101.245 84.032 103.197 86.048C105.149 88.032 106.125 90.816 106.125 94.4V110H99.4048V95.312C99.4048 93.2 98.8768 91.584 97.8208 90.464C96.7648 89.312 95.3248 88.736 93.5008 88.736C91.6448 88.736 90.1728 89.312 89.0848 90.464C88.0288 91.584 87.5008 93.2 87.5008 95.312V110H80.7808V83.408H87.5008V86.72C88.3968 85.568 89.5328 84.672 90.9088 84.032C92.3168 83.36 93.8528 83.024 95.5168 83.024ZM115.923 80.24C114.739 80.24 113.747 79.872 112.947 79.136C112.179 78.368 111.795 77.424 111.795 76.304C111.795 75.184 112.179 74.256 112.947 73.52C113.747 72.752 114.739 72.368 115.923 72.368C117.107 72.368 118.083 72.752 118.851 73.52C119.651 74.256 120.051 75.184 120.051 76.304C120.051 77.424 119.651 78.368 118.851 79.136C118.083 79.872 117.107 80.24 115.923 80.24ZM119.235 83.408V110H112.515V83.408H119.235ZM158.899 83.024C162.163 83.024 164.787 84.032 166.771 86.048C168.787 88.032 169.795 90.816 169.795 94.4V110H163.075V95.312C163.075 93.232 162.547 91.648 161.491 90.56C160.435 89.44 158.995 88.88 157.171 88.88C155.347 88.88 153.891 89.44 152.803 90.56C151.747 91.648 151.219 93.232 151.219 95.312V110H144.499V95.312C144.499 93.232 143.971 91.648 142.915 90.56C141.859 89.44 140.419 88.88 138.595 88.88C136.739 88.88 135.267 89.44 134.179 90.56C133.123 91.648 132.595 93.232 132.595 95.312V110H125.875V83.408H132.595V86.624C133.459 85.504 134.563 84.624 135.907 83.984C137.283 83.344 138.787 83.024 140.419 83.024C142.499 83.024 144.355 83.472 145.987 84.368C147.619 85.232 148.883 86.48 149.779 88.112C150.643 86.576 151.891 85.344 153.523 84.416C155.187 83.488 156.979 83.024 158.899 83.024ZM174.443 96.608C174.443 93.92 174.971 91.536 176.027 89.456C177.115 87.376 178.571 85.776 180.395 84.656C182.251 83.536 184.315 82.976 186.587 82.976C188.571 82.976 190.299 83.376 191.771 84.176C193.275 84.976 194.475 85.984 195.371 87.2V83.408H202.139V110H195.371V106.112C194.507 107.36 193.307 108.4 191.771 109.232C190.267 110.032 188.523 110.432 186.539 110.432C184.299 110.432 182.251 109.856 180.395 108.704C178.571 107.552 177.115 105.936 176.027 103.856C174.971 101.744 174.443 99.328 174.443 96.608ZM195.371 96.704C195.371 95.072 195.051 93.68 194.411 92.528C193.771 91.344 192.907 90.448 191.819 89.84C190.731 89.2 189.563 88.88 188.315 88.88C187.067 88.88 185.915 89.184 184.859 89.792C183.803 90.4 182.939 91.296 182.267 92.48C181.627 93.632 181.307 95.008 181.307 96.608C181.307 98.208 181.627 99.616 182.267 100.832C182.939 102.016 183.803 102.928 184.859 103.568C185.947 104.208 187.099 104.528 188.315 104.528C189.563 104.528 190.731 104.224 191.819 103.616C192.907 102.976 193.771 102.08 194.411 100.928C195.051 99.744 195.371 98.336 195.371 96.704ZM212.111 80.24C210.927 80.24 209.935 79.872 209.135 79.136C208.367 78.368 207.983 77.424 207.983 76.304C207.983 75.184 208.367 74.256 209.135 73.52C209.935 72.752 210.927 72.368 212.111 72.368C213.295 72.368 214.271 72.752 215.039 73.52C215.839 74.256 216.239 75.184 216.239 76.304C216.239 77.424 215.839 78.368 215.039 79.136C214.271 79.872 213.295 80.24 212.111 80.24ZM215.423 83.408V110H208.703V83.408H215.423ZM232.238 110.432C230.062 110.432 228.11 110.048 226.382 109.28C224.654 108.48 223.278 107.408 222.254 106.064C221.262 104.72 220.718 103.232 220.622 101.6H227.39C227.518 102.624 228.014 103.472 228.878 104.144C229.774 104.816 230.878 105.152 232.19 105.152C233.47 105.152 234.462 104.896 235.166 104.384C235.902 103.872 236.27 103.216 236.27 102.416C236.27 101.552 235.822 100.912 234.926 100.496C234.062 100.048 232.67 99.568 230.75 99.056C228.766 98.576 227.134 98.08 225.854 97.568C224.606 97.056 223.518 96.272 222.59 95.216C221.694 94.16 221.246 92.736 221.246 90.944C221.246 89.472 221.662 88.128 222.494 86.912C223.358 85.696 224.574 84.736 226.142 84.032C227.742 83.328 229.614 82.976 231.758 82.976C234.926 82.976 237.454 83.776 239.342 85.376C241.23 86.944 242.27 89.072 242.462 91.76H236.03C235.934 90.704 235.486 89.872 234.686 89.264C233.918 88.624 232.878 88.304 231.566 88.304C230.35 88.304 229.406 88.528 228.734 88.976C228.094 89.424 227.774 90.048 227.774 90.848C227.774 91.744 228.222 92.432 229.118 92.912C230.014 93.36 231.406 93.824 233.294 94.304C235.214 94.784 236.798 95.28 238.046 95.792C239.294 96.304 240.366 97.104 241.262 98.192C242.19 99.248 242.67 100.656 242.702 102.416C242.702 103.952 242.27 105.328 241.406 106.544C240.574 107.76 239.358 108.72 237.758 109.424C236.19 110.096 234.35 110.432 232.238 110.432ZM256.042 88.928V101.792C256.042 102.688 256.25 103.344 256.666 103.76C257.114 104.144 257.85 104.336 258.874 104.336H261.994V110H257.77C252.106 110 249.274 107.248 249.274 101.744V88.928H246.106V83.408H249.274V76.832H256.042V83.408H261.994V88.928H256.042ZM270.236 80.24C269.052 80.24 268.06 79.872 267.26 79.136C266.492 78.368 266.108 77.424 266.108 76.304C266.108 75.184 266.492 74.256 267.26 73.52C268.06 72.752 269.052 72.368 270.236 72.368C271.42 72.368 272.396 72.752 273.164 73.52C273.964 74.256 274.364 75.184 274.364 76.304C274.364 77.424 273.964 78.368 273.164 79.136C272.396 79.872 271.42 80.24 270.236 80.24ZM273.548 83.408V110H266.828V83.408H273.548ZM278.459 96.704C278.459 93.952 279.019 91.552 280.139 89.504C281.259 87.424 282.811 85.824 284.795 84.704C286.779 83.552 289.051 82.976 291.611 82.976C294.907 82.976 297.627 83.808 299.771 85.472C301.947 87.104 303.403 89.408 304.139 92.384H296.891C296.507 91.232 295.851 90.336 294.923 89.696C294.027 89.024 292.907 88.688 291.563 88.688C289.643 88.688 288.123 89.392 287.003 90.8C285.883 92.176 285.323 94.144 285.323 96.704C285.323 99.232 285.883 101.2 287.003 102.608C288.123 103.984 289.643 104.672 291.563 104.672C294.283 104.672 296.059 103.456 296.891 101.024H304.139C303.403 103.904 301.947 106.192 299.771 107.888C297.595 109.584 294.875 110.432 291.611 110.432C289.051 110.432 286.779 109.872 284.795 108.752C282.811 107.6 281.259 106 280.139 103.952C279.019 101.872 278.459 99.456 278.459 96.704ZM346.276 110L342.628 106.4C339.524 109.184 335.732 110.576 331.252 110.576C328.788 110.576 326.612 110.16 324.724 109.328C322.868 108.464 321.428 107.264 320.404 105.728C319.38 104.16 318.868 102.352 318.868 100.304C318.868 98.096 319.492 96.112 320.74 94.352C321.988 92.592 323.828 91.168 326.26 90.08C325.396 89.024 324.772 88.016 324.388 87.056C324.004 86.064 323.812 85.008 323.812 83.888C323.812 82.352 324.212 80.976 325.012 79.76C325.812 78.512 326.948 77.536 328.42 76.832C329.924 76.128 331.668 75.776 333.652 75.776C335.668 75.776 337.396 76.16 338.836 76.928C340.276 77.696 341.348 78.72 342.052 80C342.756 81.28 343.06 82.704 342.964 84.272H336.436C336.468 83.216 336.212 82.416 335.668 81.872C335.124 81.296 334.388 81.008 333.46 81.008C332.564 81.008 331.812 81.28 331.204 81.824C330.628 82.336 330.34 83.008 330.34 83.84C330.34 84.64 330.58 85.44 331.06 86.24C331.54 87.008 332.324 87.968 333.412 89.12L341.859 97.472C341.924 97.408 341.972 97.344 342.004 97.28C342.036 97.216 342.068 97.152 342.1 97.088L344.836 92.528H351.844L348.484 98.432C347.844 99.68 347.156 100.864 346.42 101.984L354.532 110H346.276ZM331.444 105.008C334.068 105.008 336.388 104.08 338.404 102.224L330.148 94.064C327.044 95.44 325.492 97.392 325.492 99.92C325.492 101.36 326.036 102.576 327.124 103.568C328.212 104.528 329.652 105.008 331.444 105.008ZM405.824 76.496V110H399.104V88.208L390.128 110H385.04L376.016 88.208V110H369.296V76.496H376.928L387.584 101.408L398.24 76.496H405.824ZM424.276 110.432C421.716 110.432 419.412 109.872 417.364 108.752C415.316 107.6 413.7 105.984 412.516 103.904C411.364 101.824 410.788 99.424 410.788 96.704C410.788 93.984 411.38 91.584 412.564 89.504C413.78 87.424 415.428 85.824 417.508 84.704C419.588 83.552 421.908 82.976 424.468 82.976C427.028 82.976 429.348 83.552 431.428 84.704C433.508 85.824 435.14 87.424 436.324 89.504C437.54 91.584 438.148 93.984 438.148 96.704C438.148 99.424 437.524 101.824 436.276 103.904C435.06 105.984 433.396 107.6 431.284 108.752C429.204 109.872 426.868 110.432 424.276 110.432ZM424.276 104.576C425.492 104.576 426.628 104.288 427.684 103.712C428.772 103.104 429.636 102.208 430.276 101.024C430.916 99.84 431.236 98.4 431.236 96.704C431.236 94.176 430.564 92.24 429.22 90.896C427.908 89.52 426.292 88.832 424.372 88.832C422.452 88.832 420.836 89.52 419.524 90.896C418.244 92.24 417.604 94.176 417.604 96.704C417.604 99.232 418.228 101.184 419.476 102.56C420.756 103.904 422.356 104.576 424.276 104.576ZM441.35 96.608C441.35 93.92 441.878 91.536 442.934 89.456C444.022 87.376 445.494 85.776 447.35 84.656C449.206 83.536 451.27 82.976 453.542 82.976C455.27 82.976 456.918 83.36 458.486 84.128C460.054 84.864 461.302 85.856 462.23 87.104V74.48H469.046V110H462.23V106.064C461.398 107.376 460.23 108.432 458.726 109.232C457.222 110.032 455.478 110.432 453.494 110.432C451.254 110.432 449.206 109.856 447.35 108.704C445.494 107.552 444.022 105.936 442.934 103.856C441.878 101.744 441.35 99.328 441.35 96.608ZM462.278 96.704C462.278 95.072 461.958 93.68 461.318 92.528C460.678 91.344 459.814 90.448 458.726 89.84C457.638 89.2 456.47 88.88 455.222 88.88C453.974 88.88 452.822 89.184 451.766 89.792C450.71 90.4 449.846 91.296 449.174 92.48C448.534 93.632 448.214 95.008 448.214 96.608C448.214 98.208 448.534 99.616 449.174 100.832C449.846 102.016 450.71 102.928 451.766 103.568C452.854 104.208 454.006 104.528 455.222 104.528C456.47 104.528 457.638 104.224 458.726 103.616C459.814 102.976 460.678 102.08 461.318 100.928C461.958 99.744 462.278 98.336 462.278 96.704ZM500.329 96.128C500.329 97.088 500.265 97.952 500.137 98.72H480.697C480.857 100.64 481.529 102.144 482.713 103.232C483.897 104.32 485.353 104.864 487.081 104.864C489.577 104.864 491.353 103.792 492.409 101.648H499.657C498.889 104.208 497.417 106.32 495.241 107.984C493.065 109.616 490.393 110.432 487.225 110.432C484.665 110.432 482.361 109.872 480.313 108.752C478.297 107.6 476.713 105.984 475.561 103.904C474.441 101.824 473.881 99.424 473.881 96.704C473.881 93.952 474.441 91.536 475.561 89.456C476.681 87.376 478.249 85.776 480.265 84.656C482.281 83.536 484.601 82.976 487.225 82.976C489.753 82.976 492.009 83.52 493.993 84.608C496.009 85.696 497.561 87.248 498.649 89.264C499.769 91.248 500.329 93.536 500.329 96.128ZM493.369 94.208C493.337 92.48 492.713 91.104 491.497 90.08C490.281 89.024 488.793 88.496 487.033 88.496C485.369 88.496 483.961 89.008 482.809 90.032C481.689 91.024 481.001 92.416 480.745 94.208H493.369ZM511.954 87.536C512.818 86.128 513.938 85.024 515.314 84.224C516.722 83.424 518.322 83.024 520.114 83.024V90.08H518.338C516.226 90.08 514.626 90.576 513.538 91.568C512.482 92.56 511.954 94.288 511.954 96.752V110H505.234V83.408H511.954V87.536ZM539.376 83.024C542.544 83.024 545.104 84.032 547.056 86.048C549.008 88.032 549.984 90.816 549.984 94.4V110H543.264V95.312C543.264 93.2 542.736 91.584 541.68 90.464C540.624 89.312 539.184 88.736 537.36 88.736C535.504 88.736 534.032 89.312 532.944 90.464C531.888 91.584 531.36 93.2 531.36 95.312V110H524.64V83.408H531.36V86.72C532.256 85.568 533.392 84.672 534.768 84.032C536.176 83.36 537.712 83.024 539.376 83.024Z" fill="white"/>
</svg>
