<svg width="100" height="15" viewBox="0 0 100 15" fill="none" xmlns="http://www.w3.org/2000/svg">
<path d="M8 0L10.7193 4.60228L16 5.72949L12.4 9.70106L12.9443 15L8 12.8523L3.05573 15L3.6 9.70106L0 5.72949L5.28065 4.60228L8 0Z" fill="#FFCB45"/>
<path d="M29 0L31.7193 4.60228L37 5.72949L33.4 9.70106L33.9443 15L29 12.8523L24.0557 15L24.6 9.70106L21 5.72949L26.2807 4.60228L29 0Z" fill="#FFCB45"/>
<path d="M50 0L52.7193 4.60228L58 5.72949L54.4 9.70106L54.9443 15L50 12.8523L45.0557 15L45.6 9.70106L42 5.72949L47.2807 4.60228L50 0Z" fill="#FFCB45"/>
<path d="M71 0L73.7193 4.60228L79 5.72949L75.4 9.70106L75.9443 15L71 12.8523L66.0557 15L66.6 9.70106L63 5.72949L68.2807 4.60228L71 0Z" fill="#FFCB45"/>
<path d="M92 0L94.7193 4.60228L100 5.72949L96.4 9.70106L96.9443 15L92 12.8523L87.0557 15L87.6 9.70106L84 5.72949L89.2807 4.60228L92 0Z" fill="#FFCB45"/>
</svg>
