<svg width="400" height="60" viewBox="0 0 400 60" fill="none" xmlns="http://www.w3.org/2000/svg">
<rect x="0.5" y="0.5" width="399" height="59" rx="29.5" fill="#FEFCFB" stroke="#FADCD9"/>
<path d="M22.352 25.242V35H21.078V25.242H22.352ZM28.2613 27.188C29.1946 27.188 29.9506 27.4727 30.5293 28.042C31.108 28.602 31.3973 29.414 31.3973 30.478V35H30.1373V30.66C30.1373 29.8947 29.946 29.3113 29.5633 28.91C29.1806 28.4993 28.658 28.294 27.9953 28.294C27.3233 28.294 26.7866 28.504 26.3853 28.924C25.9933 29.344 25.7973 29.9553 25.7973 30.758V35H24.5233V27.328H25.7973V28.42C26.0493 28.028 26.39 27.7247 26.8193 27.51C27.258 27.2953 27.7386 27.188 28.2613 27.188ZM36.1944 35.126C35.6064 35.126 35.0791 35.028 34.6124 34.832C34.1457 34.6267 33.7771 34.3467 33.5064 33.992C33.2357 33.628 33.0864 33.2127 33.0584 32.746H34.3744C34.4117 33.1287 34.5891 33.4413 34.9064 33.684C35.2331 33.9267 35.6577 34.048 36.1804 34.048C36.6657 34.048 37.0484 33.9407 37.3284 33.726C37.6084 33.5113 37.7484 33.2407 37.7484 32.914C37.7484 32.578 37.5991 32.3307 37.3004 32.172C37.0017 32.004 36.5397 31.8407 35.9144 31.682C35.3451 31.5327 34.8784 31.3833 34.5144 31.234C34.1597 31.0753 33.8517 30.8467 33.5904 30.548C33.3384 30.24 33.2124 29.8387 33.2124 29.344C33.2124 28.952 33.3291 28.5927 33.5624 28.266C33.7957 27.9393 34.1271 27.6827 34.5564 27.496C34.9857 27.3 35.4757 27.202 36.0264 27.202C36.8757 27.202 37.5617 27.4167 38.0844 27.846C38.6071 28.2753 38.8871 28.8633 38.9244 29.61H37.6504C37.6224 29.2087 37.4591 28.8867 37.1604 28.644C36.8711 28.4013 36.4791 28.28 35.9844 28.28C35.5271 28.28 35.1631 28.378 34.8924 28.574C34.6217 28.77 34.4864 29.0267 34.4864 29.344C34.4864 29.596 34.5657 29.806 34.7244 29.974C34.8924 30.1327 35.0977 30.2633 35.3404 30.366C35.5924 30.4593 35.9377 30.5667 36.3764 30.688C36.9271 30.8373 37.3751 30.9867 37.7204 31.136C38.0657 31.276 38.3597 31.4907 38.6024 31.78C38.8544 32.0693 38.9851 32.4473 38.9944 32.914C38.9944 33.334 38.8777 33.712 38.6444 34.048C38.4111 34.384 38.0797 34.65 37.6504 34.846C37.2304 35.0327 36.7451 35.126 36.1944 35.126ZM47.7928 30.87C47.7928 31.1127 47.7788 31.3693 47.7508 31.64H41.6188C41.6655 32.396 41.9222 32.9887 42.3888 33.418C42.8648 33.838 43.4388 34.048 44.1108 34.048C44.6615 34.048 45.1188 33.922 45.4828 33.67C45.8562 33.4087 46.1175 33.0633 46.2668 32.634H47.6388C47.4335 33.3713 47.0228 33.9733 46.4068 34.44C45.7908 34.8973 45.0255 35.126 44.1108 35.126C43.3828 35.126 42.7295 34.9627 42.1508 34.636C41.5815 34.3093 41.1335 33.8473 40.8068 33.25C40.4802 32.6433 40.3168 31.9433 40.3168 31.15C40.3168 30.3567 40.4755 29.6613 40.7928 29.064C41.1102 28.4667 41.5535 28.0093 42.1228 27.692C42.7015 27.3653 43.3642 27.202 44.1108 27.202C44.8388 27.202 45.4828 27.3607 46.0428 27.678C46.6028 27.9953 47.0322 28.434 47.3308 28.994C47.6388 29.5447 47.7928 30.17 47.7928 30.87ZM46.4768 30.604C46.4768 30.1187 46.3695 29.7033 46.1548 29.358C45.9402 29.0033 45.6462 28.7373 45.2728 28.56C44.9088 28.3733 44.5028 28.28 44.0548 28.28C43.4108 28.28 42.8602 28.4853 42.4028 28.896C41.9548 29.3067 41.6982 29.876 41.6328 30.604H46.4768ZM50.7485 28.574C50.9725 28.1353 51.2898 27.7947 51.7005 27.552C52.1205 27.3093 52.6292 27.188 53.2265 27.188V28.504H52.8905C51.4625 28.504 50.7485 29.2787 50.7485 30.828V35H49.4745V27.328H50.7485V28.574ZM56.2511 28.378V32.9C56.2511 33.2733 56.3305 33.5393 56.4891 33.698C56.6478 33.8473 56.9231 33.922 57.3151 33.922H58.2531V35H57.1051C56.3958 35 55.8638 34.8367 55.5091 34.51C55.1545 34.1833 54.9771 33.6467 54.9771 32.9V28.378H53.9831V27.328H54.9771V25.396H56.2511V27.328H58.2531V28.378H56.2511ZM70.1372 27.328L65.5172 38.612H64.2012L65.7132 34.916L62.6192 27.328H64.0332L66.4412 33.544L68.8212 27.328H70.1372ZM74.7638 35.126C74.0452 35.126 73.3918 34.9627 72.8038 34.636C72.2252 34.3093 71.7678 33.8473 71.4318 33.25C71.1052 32.6433 70.9418 31.9433 70.9418 31.15C70.9418 30.366 71.1098 29.6753 71.4458 29.078C71.7912 28.4713 72.2578 28.0093 72.8458 27.692C73.4338 27.3653 74.0918 27.202 74.8198 27.202C75.5478 27.202 76.2058 27.3653 76.7938 27.692C77.3818 28.0093 77.8438 28.4667 78.1798 29.064C78.5252 29.6613 78.6978 30.3567 78.6978 31.15C78.6978 31.9433 78.5205 32.6433 78.1658 33.25C77.8205 33.8473 77.3492 34.3093 76.7518 34.636C76.1545 34.9627 75.4918 35.126 74.7638 35.126ZM74.7638 34.006C75.2212 34.006 75.6505 33.8987 76.0518 33.684C76.4532 33.4693 76.7752 33.1473 77.0178 32.718C77.2698 32.2887 77.3958 31.766 77.3958 31.15C77.3958 30.534 77.2745 30.0113 77.0318 29.582C76.7892 29.1527 76.4718 28.8353 76.0798 28.63C75.6878 28.4153 75.2632 28.308 74.8058 28.308C74.3392 28.308 73.9098 28.4153 73.5178 28.63C73.1352 28.8353 72.8272 29.1527 72.5938 29.582C72.3605 30.0113 72.2438 30.534 72.2438 31.15C72.2438 31.7753 72.3558 32.3027 72.5798 32.732C72.8132 33.1613 73.1212 33.4833 73.5038 33.698C73.8865 33.9033 74.3065 34.006 74.7638 34.006ZM87.1769 27.328V35H85.9029V33.866C85.6603 34.258 85.3196 34.566 84.8809 34.79C84.4516 35.0047 83.9756 35.112 83.4529 35.112C82.8556 35.112 82.3189 34.9907 81.8429 34.748C81.3669 34.496 80.9889 34.1227 80.7089 33.628C80.4383 33.1333 80.3029 32.5313 80.3029 31.822V27.328H81.5629V31.654C81.5629 32.41 81.7543 32.9933 82.1369 33.404C82.5196 33.8053 83.0423 34.006 83.7049 34.006C84.3863 34.006 84.9229 33.796 85.3149 33.376C85.7069 32.956 85.9029 32.3447 85.9029 31.542V27.328H87.1769ZM90.602 28.574C90.826 28.1353 91.1433 27.7947 91.554 27.552C91.974 27.3093 92.4827 27.188 93.08 27.188V28.504H92.744C91.316 28.504 90.602 29.2787 90.602 30.828V35H89.328V27.328H90.602V28.574ZM105.283 30.87C105.283 31.1127 105.269 31.3693 105.241 31.64H99.1091C99.1557 32.396 99.4124 32.9887 99.8791 33.418C100.355 33.838 100.929 34.048 101.601 34.048C102.152 34.048 102.609 33.922 102.973 33.67C103.346 33.4087 103.608 33.0633 103.757 32.634H105.129C104.924 33.3713 104.513 33.9733 103.897 34.44C103.281 34.8973 102.516 35.126 101.601 35.126C100.873 35.126 100.22 34.9627 99.6411 34.636C99.0717 34.3093 98.6237 33.8473 98.2971 33.25C97.9704 32.6433 97.8071 31.9433 97.8071 31.15C97.8071 30.3567 97.9657 29.6613 98.2831 29.064C98.6004 28.4667 99.0437 28.0093 99.6131 27.692C100.192 27.3653 100.854 27.202 101.601 27.202C102.329 27.202 102.973 27.3607 103.533 27.678C104.093 27.9953 104.522 28.434 104.821 28.994C105.129 29.5447 105.283 30.17 105.283 30.87ZM103.967 30.604C103.967 30.1187 103.86 29.7033 103.645 29.358C103.43 29.0033 103.136 28.7373 102.763 28.56C102.399 28.3733 101.993 28.28 101.545 28.28C100.901 28.28 100.35 28.4853 99.8931 28.896C99.4451 29.3067 99.1884 29.876 99.1231 30.604H103.967ZM116.191 27.188C116.788 27.188 117.32 27.314 117.787 27.566C118.253 27.8087 118.622 28.1773 118.893 28.672C119.163 29.1667 119.299 29.7687 119.299 30.478V35H118.039V30.66C118.039 29.8947 117.847 29.3113 117.465 28.91C117.091 28.4993 116.583 28.294 115.939 28.294C115.276 28.294 114.749 28.5087 114.357 28.938C113.965 29.358 113.769 29.9693 113.769 30.772V35H112.509V30.66C112.509 29.8947 112.317 29.3113 111.935 28.91C111.561 28.4993 111.053 28.294 110.409 28.294C109.746 28.294 109.219 28.5087 108.827 28.938C108.435 29.358 108.239 29.9693 108.239 30.772V35H106.965V27.328H108.239V28.434C108.491 28.0327 108.827 27.7247 109.247 27.51C109.676 27.2953 110.147 27.188 110.661 27.188C111.305 27.188 111.874 27.3327 112.369 27.622C112.863 27.9113 113.232 28.336 113.475 28.896C113.689 28.3547 114.044 27.9347 114.539 27.636C115.033 27.3373 115.584 27.188 116.191 27.188ZM120.913 31.136C120.913 30.352 121.071 29.666 121.389 29.078C121.706 28.4807 122.14 28.0187 122.691 27.692C123.251 27.3653 123.871 27.202 124.553 27.202C125.225 27.202 125.808 27.3467 126.303 27.636C126.797 27.9253 127.166 28.2893 127.409 28.728V27.328H128.697V35H127.409V33.572C127.157 34.02 126.779 34.3933 126.275 34.692C125.78 34.9813 125.201 35.126 124.539 35.126C123.857 35.126 123.241 34.958 122.691 34.622C122.14 34.286 121.706 33.8147 121.389 33.208C121.071 32.6013 120.913 31.9107 120.913 31.136ZM127.409 31.15C127.409 30.5713 127.292 30.0673 127.059 29.638C126.825 29.2087 126.508 28.882 126.107 28.658C125.715 28.4247 125.281 28.308 124.805 28.308C124.329 28.308 123.895 28.42 123.503 28.644C123.111 28.868 122.798 29.1947 122.565 29.624C122.331 30.0533 122.215 30.5573 122.215 31.136C122.215 31.724 122.331 32.2373 122.565 32.676C122.798 33.1053 123.111 33.4367 123.503 33.67C123.895 33.894 124.329 34.006 124.805 34.006C125.281 34.006 125.715 33.894 126.107 33.67C126.508 33.4367 126.825 33.1053 127.059 32.676C127.292 32.2373 127.409 31.7287 127.409 31.15ZM131.507 26.082C131.265 26.082 131.059 25.998 130.891 25.83C130.723 25.662 130.639 25.4567 130.639 25.214C130.639 24.9713 130.723 24.766 130.891 24.598C131.059 24.43 131.265 24.346 131.507 24.346C131.741 24.346 131.937 24.43 132.095 24.598C132.263 24.766 132.347 24.9713 132.347 25.214C132.347 25.4567 132.263 25.662 132.095 25.83C131.937 25.998 131.741 26.082 131.507 26.082ZM132.123 27.328V35H130.849V27.328H132.123ZM135.569 24.64V35H134.295V24.64H135.569ZM140.997 31.136C140.997 30.352 141.155 29.666 141.473 29.078C141.79 28.4807 142.224 28.0187 142.775 27.692C143.335 27.3653 143.955 27.202 144.637 27.202C145.309 27.202 145.892 27.3467 146.387 27.636C146.881 27.9253 147.25 28.2893 147.493 28.728V27.328H148.781V35H147.493V33.572C147.241 34.02 146.863 34.3933 146.359 34.692C145.864 34.9813 145.285 35.126 144.623 35.126C143.941 35.126 143.325 34.958 142.775 34.622C142.224 34.286 141.79 33.8147 141.473 33.208C141.155 32.6013 140.997 31.9107 140.997 31.136ZM147.493 31.15C147.493 30.5713 147.376 30.0673 147.143 29.638C146.909 29.2087 146.592 28.882 146.191 28.658C145.799 28.4247 145.365 28.308 144.889 28.308C144.413 28.308 143.979 28.42 143.587 28.644C143.195 28.868 142.882 29.1947 142.649 29.624C142.415 30.0533 142.299 30.5573 142.299 31.136C142.299 31.724 142.415 32.2373 142.649 32.676C142.882 33.1053 143.195 33.4367 143.587 33.67C143.979 33.894 144.413 34.006 144.889 34.006C145.365 34.006 145.799 33.894 146.191 33.67C146.592 33.4367 146.909 33.1053 147.143 32.676C147.376 32.2373 147.493 31.7287 147.493 31.15ZM150.457 31.136C150.457 30.352 150.616 29.666 150.933 29.078C151.251 28.4807 151.685 28.0187 152.235 27.692C152.795 27.3653 153.421 27.202 154.111 27.202C154.709 27.202 155.264 27.342 155.777 27.622C156.291 27.8927 156.683 28.252 156.953 28.7V24.64H158.241V35H156.953V33.558C156.701 34.0153 156.328 34.3933 155.833 34.692C155.339 34.9813 154.76 35.126 154.097 35.126C153.416 35.126 152.795 34.958 152.235 34.622C151.685 34.286 151.251 33.8147 150.933 33.208C150.616 32.6013 150.457 31.9107 150.457 31.136ZM156.953 31.15C156.953 30.5713 156.837 30.0673 156.603 29.638C156.37 29.2087 156.053 28.882 155.651 28.658C155.259 28.4247 154.825 28.308 154.349 28.308C153.873 28.308 153.439 28.42 153.047 28.644C152.655 28.868 152.343 29.1947 152.109 29.624C151.876 30.0533 151.759 30.5573 151.759 31.136C151.759 31.724 151.876 32.2373 152.109 32.676C152.343 33.1053 152.655 33.4367 153.047 33.67C153.439 33.894 153.873 34.006 154.349 34.006C154.825 34.006 155.259 33.894 155.651 33.67C156.053 33.4367 156.37 33.1053 156.603 32.676C156.837 32.2373 156.953 31.7287 156.953 31.15ZM159.918 31.136C159.918 30.352 160.077 29.666 160.394 29.078C160.712 28.4807 161.146 28.0187 161.696 27.692C162.256 27.3653 162.882 27.202 163.572 27.202C164.17 27.202 164.725 27.342 165.238 27.622C165.752 27.8927 166.144 28.252 166.414 28.7V24.64H167.702V35H166.414V33.558C166.162 34.0153 165.789 34.3933 165.294 34.692C164.8 34.9813 164.221 35.126 163.558 35.126C162.877 35.126 162.256 34.958 161.696 34.622C161.146 34.286 160.712 33.8147 160.394 33.208C160.077 32.6013 159.918 31.9107 159.918 31.136ZM166.414 31.15C166.414 30.5713 166.298 30.0673 166.064 29.638C165.831 29.2087 165.514 28.882 165.112 28.658C164.72 28.4247 164.286 28.308 163.81 28.308C163.334 28.308 162.9 28.42 162.508 28.644C162.116 28.868 161.804 29.1947 161.57 29.624C161.337 30.0533 161.22 30.5573 161.22 31.136C161.22 31.724 161.337 32.2373 161.57 32.676C161.804 33.1053 162.116 33.4367 162.508 33.67C162.9 33.894 163.334 34.006 163.81 34.006C164.286 34.006 164.72 33.894 165.112 33.67C165.514 33.4367 165.831 33.1053 166.064 32.676C166.298 32.2373 166.414 31.7287 166.414 31.15ZM171.129 28.574C171.353 28.1353 171.671 27.7947 172.081 27.552C172.501 27.3093 173.01 27.188 173.607 27.188V28.504H173.271C171.843 28.504 171.129 29.2787 171.129 30.828V35H169.855V27.328H171.129V28.574ZM182.078 30.87C182.078 31.1127 182.064 31.3693 182.036 31.64H175.904C175.951 32.396 176.207 32.9887 176.674 33.418C177.15 33.838 177.724 34.048 178.396 34.048C178.947 34.048 179.404 33.922 179.768 33.67C180.141 33.4087 180.403 33.0633 180.552 32.634H181.924C181.719 33.3713 181.308 33.9733 180.692 34.44C180.076 34.8973 179.311 35.126 178.396 35.126C177.668 35.126 177.015 34.9627 176.436 34.636C175.867 34.3093 175.419 33.8473 175.092 33.25C174.765 32.6433 174.602 31.9433 174.602 31.15C174.602 30.3567 174.761 29.6613 175.078 29.064C175.395 28.4667 175.839 28.0093 176.408 27.692C176.987 27.3653 177.649 27.202 178.396 27.202C179.124 27.202 179.768 27.3607 180.328 27.678C180.888 27.9953 181.317 28.434 181.616 28.994C181.924 29.5447 182.078 30.17 182.078 30.87ZM180.762 30.604C180.762 30.1187 180.655 29.7033 180.44 29.358C180.225 29.0033 179.931 28.7373 179.558 28.56C179.194 28.3733 178.788 28.28 178.34 28.28C177.696 28.28 177.145 28.4853 176.688 28.896C176.24 29.3067 175.983 29.876 175.918 30.604H180.762ZM186.476 35.126C185.888 35.126 185.36 35.028 184.894 34.832C184.427 34.6267 184.058 34.3467 183.788 33.992C183.517 33.628 183.368 33.2127 183.34 32.746H184.656C184.693 33.1287 184.87 33.4413 185.188 33.684C185.514 33.9267 185.939 34.048 186.462 34.048C186.947 34.048 187.33 33.9407 187.61 33.726C187.89 33.5113 188.03 33.2407 188.03 32.914C188.03 32.578 187.88 32.3307 187.582 32.172C187.283 32.004 186.821 31.8407 186.196 31.682C185.626 31.5327 185.16 31.3833 184.796 31.234C184.441 31.0753 184.133 30.8467 183.872 30.548C183.62 30.24 183.494 29.8387 183.494 29.344C183.494 28.952 183.61 28.5927 183.844 28.266C184.077 27.9393 184.408 27.6827 184.838 27.496C185.267 27.3 185.757 27.202 186.308 27.202C187.157 27.202 187.843 27.4167 188.366 27.846C188.888 28.2753 189.168 28.8633 189.206 29.61H187.932C187.904 29.2087 187.74 28.8867 187.442 28.644C187.152 28.4013 186.76 28.28 186.266 28.28C185.808 28.28 185.444 28.378 185.174 28.574C184.903 28.77 184.768 29.0267 184.768 29.344C184.768 29.596 184.847 29.806 185.006 29.974C185.174 30.1327 185.379 30.2633 185.622 30.366C185.874 30.4593 186.219 30.5667 186.658 30.688C187.208 30.8373 187.656 30.9867 188.002 31.136C188.347 31.276 188.641 31.4907 188.884 31.78C189.136 32.0693 189.266 32.4473 189.276 32.914C189.276 33.334 189.159 33.712 188.926 34.048C188.692 34.384 188.361 34.65 187.932 34.846C187.512 35.0327 187.026 35.126 186.476 35.126ZM193.79 35.126C193.202 35.126 192.675 35.028 192.208 34.832C191.741 34.6267 191.373 34.3467 191.102 33.992C190.831 33.628 190.682 33.2127 190.654 32.746H191.97C192.007 33.1287 192.185 33.4413 192.502 33.684C192.829 33.9267 193.253 34.048 193.776 34.048C194.261 34.048 194.644 33.9407 194.924 33.726C195.204 33.5113 195.344 33.2407 195.344 32.914C195.344 32.578 195.195 32.3307 194.896 32.172C194.597 32.004 194.135 31.8407 193.51 31.682C192.941 31.5327 192.474 31.3833 192.11 31.234C191.755 31.0753 191.447 30.8467 191.186 30.548C190.934 30.24 190.808 29.8387 190.808 29.344C190.808 28.952 190.925 28.5927 191.158 28.266C191.391 27.9393 191.723 27.6827 192.152 27.496C192.581 27.3 193.071 27.202 193.622 27.202C194.471 27.202 195.157 27.4167 195.68 27.846C196.203 28.2753 196.483 28.8633 196.52 29.61H195.246C195.218 29.2087 195.055 28.8867 194.756 28.644C194.467 28.4013 194.075 28.28 193.58 28.28C193.123 28.28 192.759 28.378 192.488 28.574C192.217 28.77 192.082 29.0267 192.082 29.344C192.082 29.596 192.161 29.806 192.32 29.974C192.488 30.1327 192.693 30.2633 192.936 30.366C193.188 30.4593 193.533 30.5667 193.972 30.688C194.523 30.8373 194.971 30.9867 195.316 31.136C195.661 31.276 195.955 31.4907 196.198 31.78C196.45 32.0693 196.581 32.4473 196.59 32.914C196.59 33.334 196.473 33.712 196.24 34.048C196.007 34.384 195.675 34.65 195.246 34.846C194.826 35.0327 194.341 35.126 193.79 35.126Z" fill="#F79489"/>
</svg>
